<?xml version="1.0" encoding="UTF-8"?>
<svg version="1.1" xmlns="http://www.w3.org/2000/svg" width="500" height="500">
<path d="M0 0 C2.90961476 1.45480738 3.05318608 3.36306748 4.1875 6.375 C6.42328183 11.97784249 9.22931786 16.76367902 12.64453125 21.72265625 C14 24 14 24 14 27 C14.66 27 15.32 27 16 27 C16.33 28.65 16.66 30.3 17 32 C17.66 32 18.32 32 19 32 C19.66 33.98 20.32 35.96 21 38 C21.66 38 22.32 38 23 38 C24.2955854 39.78701435 25.5110177 41.63242103 26.6875 43.5 C29.73064007 48.20657496 32.90366588 52.40700364 36.75 56.4765625 C38 58 38 58 38 60 C38.66 60 39.32 60 40 60 C43 63.46153846 43 63.46153846 43 66 C43.66 66 44.32 66 45 66 C49 70.47058824 49 70.47058824 49 73 C49.66 73 50.32 73 51 73 C52.72682185 75.04967534 54.34312715 77.10116271 55.9375 79.25 C56.38029297 79.83652344 56.82308594 80.42304688 57.27929688 81.02734375 C58.13937291 82.16813014 58.99547412 83.31192641 59.84716797 84.45898438 C60.81607129 85.75413849 61.81310336 87.02818231 62.81640625 88.296875 C64 90 64 90 64 92 C64.66 92 65.32 92 66 92 C67.59220153 93.98718998 69.05486241 95.97133341 70.5 98.0625 C70.94069824 98.6915625 71.38139648 99.320625 71.83544922 99.96875 C73.2329102 101.97291839 74.61790282 103.98521161 76 106 C76.65210449 106.94528564 76.65210449 106.94528564 77.31738281 107.90966797 C102.29164293 144.23154818 117.45980887 184.84075898 109.4375 229.5625 C104.92156006 252.26475739 95.36550196 273.81337126 81 292 C80.34 292 79.68 292 79 292 C78.5978125 292.86625 78.5978125 292.86625 78.1875 293.75 C76.97070811 296.05550043 75.69666121 298.02056192 74 300 C73.34 300 72.68 300 72 300 C71.7525 300.58265625 71.505 301.1653125 71.25 301.765625 C69.81474554 304.33114236 68.22336987 305.83724798 66 307.75 C65.29875 308.36359375 64.5975 308.9771875 63.875 309.609375 C62 311 62 311 60 311 C60 311.66 60 312.32 60 313 C59.34 313 58.68 313 58 313 C58 313.66 58 314.32 58 315 C56.58569336 316.20166016 56.58569336 316.20166016 54.58984375 317.5390625 C53.85467529 318.0333374 53.11950684 318.5276123 52.36206055 319.03686523 C51.56195557 319.56094971 50.76185059 320.08503418 49.9375 320.625 C49.12128174 321.16261963 48.30506348 321.70023926 47.46411133 322.25415039 C37.0368412 329.03365018 26.51717192 334.7210052 14.79296875 338.9765625 C12.56528618 339.79286017 10.45513272 340.67861467 8.3125 341.6875 C3.97038407 343.40796103 -0.40876031 344.21477792 -5 345 C-4 342 -4 342 -1.8828125 340.67578125 C-0.51769531 340.00095703 -0.51769531 340.00095703 0.875 339.3125 C8.38867602 335.38467456 15.12938862 330.51186485 21.5625 325 C24 323 24 323 26 323 C26 322.34 26 321.68 26 321 C26.66 321 27.32 321 28 321 C28 320.34 28 319.68 28 319 C29.375 317.375 29.375 317.375 31 316 C31.66 316 32.32 316 33 316 C33.2475 315.46375 33.495 314.9275 33.75 314.375 C35.30652537 311.4176018 37.03435673 308.70275949 39 306 C39.66 306 40.32 306 41 306 C41.37511719 304.74509766 41.37511719 304.74509766 41.7578125 303.46484375 C42.88398627 300.32359803 44.24750372 297.48396139 45.81811523 294.54516602 C51.59183755 283.71393503 55.48396418 272.38485958 56 260 C56.03996094 259.1646875 56.07992187 258.329375 56.12109375 257.46875 C56.58209558 238.59479262 50.69436568 218.10531228 38.75390625 203.1953125 C37 201 37 201 37 199 C36.34 199 35.68 199 35 199 C33.79696095 197.61002255 32.66364664 196.15951099 31.5625 194.6875 C23.87684497 184.57820667 23.87684497 184.57820667 14 177 C14 176.34 14 175.68 14 175 C13.44681784 174.75495161 12.89363567 174.50990322 12.32369041 174.25742912 C7.192716 171.48088169 3.29838169 167.79826565 0 163 C-1.38747271 157.6160801 -1.27161459 152.40877112 -1.13525391 146.90185547 C-1.13242854 145.29449135 -1.13402555 143.68711435 -1.13967896 142.07975769 C-1.14253348 137.7425626 -1.0839944 133.40816635 -1.01393938 129.07161856 C-0.95117256 124.53008033 -0.9455324 119.98846877 -0.9336853 115.44656372 C-0.90267733 106.8579097 -0.82071866 98.27053761 -0.72019041 89.6824466 C-0.60818466 79.90023672 -0.55337633 70.11796369 -0.50323606 60.3352716 C-0.398877 40.22280053 -0.22313096 20.11148121 0 0 Z " fill="#AD97E5" transform="translate(289,126)"/>
<path d="M0 0 C-0.47680139 2.43798448 -0.95634129 4.87537516 -1.4375 7.3125 C-1.63956055 8.34793945 -1.63956055 8.34793945 -1.84570312 9.40429688 C-2.42774332 12.34289007 -3.05152228 15.15456685 -4 18 C-5.93412154 31.59470956 -6.304755 45.09105493 -6.31884766 58.80151367 C-6.32817222 60.91266757 -6.33834453 63.02381787 -6.34928894 65.13496399 C-6.37631832 70.80307198 -6.39165696 76.47115552 -6.40471697 82.1393106 C-6.42046746 88.08633553 -6.44721893 94.03331136 -6.4727478 99.9803009 C-6.51932638 111.21359432 -6.55617101 122.4468972 -6.58942068 133.68023711 C-6.62779089 146.48094844 -6.67716146 159.28161019 -6.72740483 172.08227956 C-6.83041311 198.38814952 -6.91977357 224.69405139 -7 251 C-7.33 250.34 -7.66 249.68 -8 249 C-9.33101049 248.32870775 -10.66477812 247.66287611 -12 247 C-13.45148775 245.87695108 -14.8682176 244.70778017 -16.25 243.5 C-16.95640625 242.8915625 -17.6628125 242.283125 -18.390625 241.65625 C-20 240 -20 240 -20 238 C-20.66 238 -21.32 238 -22 238 C-22 237.34 -22 236.68 -22 236 C-22.66 236 -23.32 236 -24 236 C-24 235.34 -24 234.68 -24 234 C-24.59474121 233.73195557 -25.18948242 233.46391113 -25.80224609 233.18774414 C-28.01812796 231.99020301 -29.42079528 230.79681017 -31.1640625 228.99609375 C-32.01097656 228.13274414 -32.01097656 228.13274414 -32.875 227.25195312 C-33.4525 226.65318359 -34.03 226.05441406 -34.625 225.4375 C-35.78160151 224.24650616 -36.94035778 223.05759995 -38.1015625 221.87109375 C-38.61025879 221.34443115 -39.11895508 220.81776855 -39.64306641 220.27514648 C-40.99400105 218.8835783 -40.99400105 218.8835783 -43 218 C-43 217.34 -43 216.68 -43 216 C-43.66 216 -44.32 216 -45 216 C-45 215.34 -45 214.68 -45 214 C-45.66 214 -46.32 214 -47 214 C-47 213.34 -47 212.68 -47 212 C-47.66 212 -48.32 212 -49 212 C-49 211.34 -49 210.68 -49 210 C-49.66 210 -50.32 210 -51 210 C-51 209.34 -51 208.68 -51 208 C-51.66 208 -52.32 208 -53 208 C-54.625 206.625 -54.625 206.625 -56 205 C-56 204.34 -56 203.68 -56 203 C-56.88993652 202.5968457 -56.88993652 202.5968457 -57.79785156 202.18554688 C-60.00540033 200.99709268 -61.46542882 199.79257611 -63.234375 198.03125 C-63.80800781 197.46019531 -64.38164062 196.88914063 -64.97265625 196.30078125 C-65.55917969 195.70652344 -66.14570313 195.11226562 -66.75 194.5 C-67.35199219 193.90574219 -67.95398438 193.31148437 -68.57421875 192.69921875 C-69.14269531 192.12816406 -69.71117187 191.55710938 -70.296875 190.96875 C-71.07562988 190.18661133 -71.07562988 190.18661133 -71.87011719 189.38867188 C-73 188 -73 188 -73 186 C-73.66 186 -74.32 186 -75 186 C-92.426416 165.98317081 -96.05586426 142.22594265 -94.84375 116.7109375 C-94.15718259 108.00624351 -92.28365603 100.07291853 -89 92 C-88.67386719 91.14019531 -88.34773437 90.28039062 -88.01171875 89.39453125 C-84.49965123 80.45143147 -79.824053 72.28181649 -75 64 C-74.34 64 -73.68 64 -73 64 C-72.79375 63.34 -72.5875 62.68 -72.375 62 C-70.50875748 57.92819814 -68.02438473 54.31203002 -65 51 C-64.34 51 -63.68 51 -63 51 C-62.731875 50.4225 -62.46375 49.845 -62.1875 49.25 C-60.97070811 46.94449957 -59.69666121 44.97943808 -58 43 C-57.34 43 -56.68 43 -56 43 C-56 42.34 -56 41.68 -56 41 C-54.625 39.375 -54.625 39.375 -53 38 C-52.34 38 -51.68 38 -51 38 C-51 37.34 -51 36.68 -51 36 C-50.34 36 -49.68 36 -49 36 C-49 35.34 -49 34.68 -49 34 C-48.34 34 -47.68 34 -47 34 C-47 33.34 -47 32.68 -47 32 C-46.34 32 -45.68 32 -45 32 C-45 31.34 -45 30.68 -45 30 C-44.34 30 -43.68 30 -43 30 C-43 29.34 -43 28.68 -43 28 C-41.26608049 26.39365985 -39.461909 24.8624713 -37.625 23.375 C-36.62726563 22.55773437 -35.62953125 21.74046875 -34.6015625 20.8984375 C-32 19 -32 19 -30 19 C-30 18.34 -30 17.68 -30 17 C-28.57421875 15.7109375 -28.57421875 15.7109375 -26.6875 14.375 C-25.76517578 13.70597656 -25.76517578 13.70597656 -24.82421875 13.0234375 C-23 12 -23 12 -20 12 C-20 11.34 -20 10.68 -20 10 C-19.01 10 -18.02 10 -17 10 C-17 9.34 -17 8.68 -17 8 C-15.25048432 7.04078278 -13.50036756 6.08266183 -11.75 5.125 C-10.28820312 4.32449219 -10.28820312 4.32449219 -8.796875 3.5078125 C-2.29015544 0 -2.29015544 0 0 0 Z " fill="#B49EE9" transform="translate(276,16)"/>
<path d="M0 0 C0.66 0 1.32 0 2 0 C3.17176518 2.12232979 4.33754785 4.24757791 5.5 6.375 C5.83386719 6.97828125 6.16773438 7.5815625 6.51171875 8.203125 C9 12.7734375 9 12.7734375 9 15 C9.66 15 10.32 15 11 15 C12.35961914 16.37866211 12.35961914 16.37866211 13.97265625 18.33984375 C18.52364754 23.68917194 23.46307758 28.60929047 28.4375 33.5625 C29.34048828 34.46935547 30.24347656 35.37621094 31.17382812 36.31054688 C35.75964619 40.88972364 40.39025762 45.34393304 45.32836914 49.54272461 C46.97122253 50.97491271 48.54891008 52.37226529 50 54 C50 54.66 50 55.32 50 56 C50.66 56 51.32 56 52 56 C52 56.66 52 57.32 52 58 C52.66 58 53.32 58 54 58 C54 58.66 54 59.32 54 60 C54.66 60 55.32 60 56 60 C55.49396008 62.16874252 55.00016187 63.99967627 54 66 C53.34 66 52.68 66 52 66 C52 66.66 52 67.32 52 68 C51.34 68 50.68 68 50 68 C49.505 69.485 49.505 69.485 49 71 C48.34 71 47.68 71 47 71 C47 71.66 47 72.32 47 73 C46.34 73 45.68 73 45 73 C44.7525 73.53625 44.505 74.0725 44.25 74.625 C42.69347463 77.5823982 40.96564327 80.29724051 39 83 C38.34 83 37.68 83 37 83 C36.73703125 83.721875 36.4740625 84.44375 36.203125 85.1875 C34.97277164 88.06365072 33.50140954 90.41233185 31.75 93 C18.08409953 114.22334232 13.92815517 138.62898411 18.64453125 163.3828125 C22.88512502 181.62317475 31.85629633 200.42100788 47 212 C48.66666667 213.66666667 50.33333333 215.33333333 52 217 C52.66 217.33 53.32 217.66 54 218 C54 218.66 54 219.32 54 220 C54.68835938 220.24878906 55.37671875 220.49757813 56.0859375 220.75390625 C59.47816315 222.20446923 62.4858996 223.99991734 65.625 225.9375 C66.19734375 226.28490234 66.7696875 226.63230469 67.359375 226.99023438 C70.21653539 228.7543648 72.76819982 230.47537498 75 233 C73 234 73 234 71.20678711 233.52197266 C70.4875708 233.2388623 69.76835449 232.95575195 69.02734375 232.6640625 C67.81449707 232.18779419 67.81449707 232.18779419 66.57714844 231.7019043 C65.70606445 231.34652588 64.83498047 230.99114746 63.9375 230.625 C63.0393457 230.25995361 62.14119141 229.89490723 61.21582031 229.51879883 C49.07655704 224.48291137 37.81131072 218.44392997 26.9375 211.0625 C26.23979492 210.58965576 25.54208984 210.11681152 24.82324219 209.62963867 C23.17478341 208.47584324 21.58091739 207.24473308 20 206 C20 205.34 20 204.68 20 204 C19.43410156 203.74992188 18.86820313 203.49984375 18.28515625 203.2421875 C0.43514931 193.53910681 -12.80135623 171.79365023 -21 154 C-21.32258789 153.31905273 -21.64517578 152.63810547 -21.97753906 151.93652344 C-24.57033475 146.3340125 -26.45734663 140.68825778 -28.125 134.75 C-28.37636719 133.89792969 -28.62773438 133.04585937 -28.88671875 132.16796875 C-32.28141321 120.24210498 -33.365561 108.56021611 -33.3125 96.1875 C-33.30903564 94.86886963 -33.30557129 93.55023926 -33.30200195 92.19165039 C-33.19637272 82.73228963 -32.34230843 74.15532429 -30 65 C-29.74863281 63.8140625 -29.49726562 62.628125 -29.23828125 61.40625 C-28.00066299 55.59140866 -26.51726438 50.37779209 -24 45 C-23.62691369 43.67723944 -23.26953585 42.34767923 -23 41 C-22.34 41 -21.68 41 -21 41 C-20.93683594 40.04480469 -20.87367187 39.08960938 -20.80859375 38.10546875 C-20.07343972 32.97231063 -17.5457388 28.79486794 -15.0625 24.3125 C-14.15747032 22.64197138 -13.25251954 20.97140001 -12.34765625 19.30078125 C-11.94554932 18.57028564 -11.54344238 17.83979004 -11.12915039 17.0871582 C-10.04213235 15.07787881 -9.00988604 13.04895619 -8 11 C-7.34 11 -6.68 11 -6 11 C-5.7525 10.113125 -5.505 9.22625 -5.25 8.3125 C-3.95035375 4.86843744 -2.51270773 2.66975197 0 0 Z " fill="#9A83DB" transform="translate(131,235)"/>
<path d="M0 0 C2 1 2 1 2.640625 2.86328125 C2.84171875 3.67152344 3.0428125 4.47976562 3.25 5.3125 C6.11274111 15.31073015 11.12801364 23.63732099 17.4609375 31.8203125 C19 34 19 34 19 36 C19.66 36 20.32 36 21 36 C21 36.66 21 37.32 21 38 C21.66 38 22.32 38 23 38 C24.41674805 39.43579102 24.41674805 39.43579102 26.07421875 41.44140625 C30.09943594 46.17382667 34.40985372 50.55776428 38.8125 54.9375 C39.57498047 55.70384766 40.33746094 56.47019531 41.12304688 57.25976562 C41.85201172 57.98744141 42.58097656 58.71511719 43.33203125 59.46484375 C44.31780151 60.44892212 44.31780151 60.44892212 45.32348633 61.45288086 C46.93380588 63.08270479 46.93380588 63.08270479 49 64 C49 64.66 49 65.32 49 66 C49.66 66 50.32 66 51 66 C51 66.66 51 67.32 51 68 C51.66 68 52.32 68 53 68 C55.3300641 71.49509615 55.62504256 73.28269589 55.53027344 77.38769531 C54.43205305 82.79789703 50.83918781 87.00534686 47.625 91.375 C46.57699219 92.85033203 46.57699219 92.85033203 45.5078125 94.35546875 C44.21606763 96.17136395 42.91572344 97.98119547 41.60400391 99.78271484 C40.36512712 101.49526873 39.17246046 103.2413093 38 105 C36.35 104.67 34.7 104.34 33 104 C33 103.34 33 102.68 33 102 C32.01 101.67 31.02 101.34 30 101 C30 100.34 30 99.68 30 99 C29.34 99 28.68 99 28 99 C28 98.34 28 97.68 28 97 C27.34 97 26.68 97 26 97 C26 96.34 26 95.68 26 95 C25.34 95 24.68 95 24 95 C24 94.34 24 93.68 24 93 C23.34 93 22.68 93 22 93 C22 92.34 22 91.68 22 91 C21.34 91 20.68 91 20 91 C20 90.34 20 89.68 20 89 C19.44731445 88.77183594 18.89462891 88.54367187 18.32519531 88.30859375 C15.32753597 86.62154482 13.2323494 84.49187482 10.796875 82.0625 C10.0728952 81.34139038 10.0728952 81.34139038 9.33428955 80.60571289 C8.32000936 79.59278907 7.30823196 78.57735362 6.29882812 77.55957031 C4.74828028 75.99826835 3.18729497 74.44797503 1.625 72.8984375 C0.63998266 71.91209939 -0.34441453 70.9251415 -1.328125 69.9375 C-2.2243457 69.03902344 -3.12056641 68.14054687 -4.04394531 67.21484375 C-6 65 -6 65 -6 63 C-6.66 63 -7.32 63 -8 63 C-14.5164533 53.91062972 -14.74078202 44.20397461 -13.3125 33.375 C-11.7957015 24.99161367 -9.42593177 17.2863079 -5 10 C-4.16599601 7.94279015 -3.45747354 5.87151787 -2.74609375 3.76953125 C-2 2 -2 2 0 0 Z " fill="#A590DE" transform="translate(164,176)"/>
<path d="M0 0 C2.2890625 1.6171875 2.2890625 1.6171875 4.625 3.875 C5.4809375 4.68839844 6.336875 5.50179688 7.21875 6.33984375 C8.1365625 7.21769531 9.054375 8.09554688 10 9 C11.02709422 9.9226162 12.05841531 10.84054692 13.09375 11.75390625 C13.5995459 12.2020166 14.1053418 12.65012695 14.62646484 13.11181641 C15.12098145 13.54929199 15.61549805 13.98676758 16.125 14.4375 C17.79165858 15.9125621 19.43070281 17.42175244 21 19 C21 19.66 21 20.32 21 21 C21.928125 21.433125 21.928125 21.433125 22.875 21.875 C25 23 25 23 27 25 C27.25396729 27.53611755 27.25396729 27.53611755 27.25878906 30.77905273 C27.26509338 31.99048447 27.27139771 33.2019162 27.27789307 34.45005798 C27.2738446 35.76462479 27.26979614 37.07919159 27.265625 38.43359375 C27.26697191 39.79118418 27.26891265 41.14877414 27.27142334 42.50636292 C27.27437442 45.35365383 27.27007825 48.20081935 27.26074219 51.0480957 C27.24935837 54.69782994 27.25590022 58.34726969 27.26788712 61.99699306 C27.27511547 64.80139889 27.27281314 67.60573497 27.26763153 70.4101429 C27.26564797 72.41042903 27.27172333 74.41071788 27.27789307 76.41099548 C27.27158875 77.62557938 27.26528442 78.84016327 27.25878906 80.09155273 C27.25719788 81.16251694 27.25560669 82.23348114 27.25396729 83.3368988 C27 86 27 86 25 89 C24.34 89 23.68 89 23 89 C23 89.66 23 90.32 23 91 C22.34 91 21.68 91 21 91 C20.79375 91.53109375 20.5875 92.0621875 20.375 92.609375 C18.42038808 96.00773436 15.77876283 98.51055928 13 101.25 C12.4534375 101.80429687 11.906875 102.35859375 11.34375 102.9296875 C7.2533867 107 7.2533867 107 5 107 C5 107.66 5 108.32 5 109 C4.34 109 3.68 109 3 109 C3 109.66 3 110.32 3 111 C1.35546875 112.5859375 1.35546875 112.5859375 -0.8125 114.375 C-3.06250857 116.23566282 -4.90350285 117.86872703 -6.63671875 120.2265625 C-7.31154297 121.10441406 -7.31154297 121.10441406 -8 122 C-8.66 122 -9.32 122 -10 122 C-10 122.66 -10 123.32 -10 124 C-10.66 124 -11.32 124 -12 124 C-12 134.56 -12 145.12 -12 156 C-15.42232972 157.14077657 -18.08673217 157.09815117 -21.6875 157.0625 C-22.86699219 157.05347656 -24.04648437 157.04445313 -25.26171875 157.03515625 C-26.16535156 157.02355469 -27.06898438 157.01195312 -28 157 C-30.95052258 121.79933107 -30.95052258 121.79933107 -24.28515625 112.69140625 C-20.40523781 108.51075132 -16.04994011 104.70498021 -11 102 C-10.34 102 -9.68 102 -9 102 C-9 101.34 -9 100.68 -9 100 C-7.625 98.375 -7.625 98.375 -6 97 C-5.34 97 -4.68 97 -4 97 C-4 96.34 -4 95.68 -4 95 C-3.34 95 -2.68 95 -2 95 C-2 94.34 -2 93.68 -2 93 C-1.34 93 -0.68 93 0 93 C0 92.34 0 91.68 0 91 C0.66 91 1.32 91 2 91 C2 90.34 2 89.68 2 89 C2.66 89 3.32 89 4 89 C4 88.34 4 87.68 4 87 C5.375 85.375 5.375 85.375 7 84 C7.66 84 8.32 84 9 84 C13.70210321 69.89369036 14.59776756 42.58750253 9.10461426 28.7434082 C5.08694965 21.54830414 -1.49604795 17.13781399 -8.20068359 12.63745117 C-10 11 -10 11 -10.23046875 7.1953125 C-8.14815148 1.78789813 -5.96411542 -0.76530685 0 0 Z " fill="#947FCF" transform="translate(285,317)"/>
<path d="M0 0 C4.37381963 -0.42880585 6.34825296 -0.48534354 9.9375 2.1875 C12.25392606 5.34626281 12.57346799 6.21264852 12 10 C10.19580078 12.40356445 10.19580078 12.40356445 7.6953125 14.86328125 C6.80199219 15.74951172 5.90867188 16.63574219 4.98828125 17.54882812 C4.04339844 18.46083984 3.09851563 19.37285156 2.125 20.3125 C1.17735282 21.25221504 0.23072579 22.19296003 -0.71484375 23.13476562 C-7.70581502 30 -7.70581502 30 -10 30 C-10.02537091 36.88679212 -10.04287571 43.77357217 -10.05493164 50.66040039 C-10.05995801 53.00285289 -10.06678008 55.34530225 -10.07543945 57.68774414 C-10.08757918 61.05616022 -10.09324531 64.42453478 -10.09765625 67.79296875 C-10.10281754 68.83897751 -10.10797882 69.88498627 -10.11329651 70.96269226 C-10.11337204 71.94333145 -10.11344757 72.92397064 -10.11352539 73.93432617 C-10.11685631 75.22339119 -10.11685631 75.22339119 -10.12025452 76.53849792 C-9.99457736 79.11099661 -9.56648426 81.49067271 -9 84 C-8.34 84 -7.68 84 -7 84 C-7 84.66 -7 85.32 -7 86 C-6.41734375 86.25394531 -5.8346875 86.50789063 -5.234375 86.76953125 C-2.75811967 88.13320333 -1.19479374 89.64225203 0.75 91.6875 C3.37003337 94.38004352 6.01574183 96.93826379 8.875 99.375 C12.9749331 102.89384022 16.73865722 106.70229413 20.5078125 110.5703125 C22.96589811 113.11400081 22.96589811 113.11400081 26.11914062 115.08813477 C28.0129626 116.66616856 28.8795662 117.55370746 29.52658081 119.95135498 C29.693916 122.32906739 29.67510254 124.63757781 29.5859375 127.01953125 C29.57744781 127.87810226 29.56895813 128.73667328 29.56021118 129.6212616 C29.52672797 132.35297231 29.4514637 135.0816878 29.375 137.8125 C29.34489358 139.66857704 29.31751895 141.52470053 29.29296875 143.38085938 C29.22695395 147.92172007 29.12347181 152.46035296 29 157 C23.5610835 157.21755666 19.12919186 157.10428384 14 155 C13.970271 153.76697144 13.970271 153.76697144 13.93994141 152.5090332 C13.84455397 148.77653874 13.73492911 145.0445933 13.625 141.3125 C13.5940625 140.01892578 13.563125 138.72535156 13.53125 137.39257812 C13.47324219 135.52182617 13.47324219 135.52182617 13.4140625 133.61328125 C13.3826416 132.46641846 13.3512207 131.31955566 13.31884766 130.13793945 C13.00576348 127.05672128 12.30329197 124.7917886 11 122 C10.34 122 9.68 122 9 122 C9 121.34 9 120.68 9 120 C8.11465576 119.60470093 8.11465576 119.60470093 7.21142578 119.20141602 C4.90839473 117.95023299 3.43638558 116.65195022 1.6171875 114.77734375 C0.70259766 113.84631836 0.70259766 113.84631836 -0.23046875 112.89648438 C-0.85566406 112.25001953 -1.48085937 111.60355469 -2.125 110.9375 C-3.37536074 109.6527607 -4.62786516 108.37010319 -5.8828125 107.08984375 C-6.43340332 106.52128662 -6.98399414 105.95272949 -7.55126953 105.36694336 C-8.97414012 103.89270095 -8.97414012 103.89270095 -11 103 C-11 102.34 -11 101.68 -11 101 C-11.66 101 -12.32 101 -13 101 C-13 100.34 -13 99.68 -13 99 C-13.66 99 -14.32 99 -15 99 C-15 98.34 -15 97.68 -15 97 C-15.66 97 -16.32 97 -17 97 C-17 96.34 -17 95.68 -17 95 C-17.66 95 -18.32 95 -19 95 C-19 94.34 -19 93.68 -19 93 C-19.66 93 -20.32 93 -21 93 C-21 92.34 -21 91.68 -21 91 C-21.99 90.67 -22.98 90.34 -24 90 C-26.21906584 86.78830153 -26.25776688 83.93247721 -26.2746582 80.1015625 C-26.28419022 78.91353027 -26.29372223 77.72549805 -26.30354309 76.50146484 C-26.30263168 75.22223145 -26.30172028 73.94299805 -26.30078125 72.625 C-26.30506638 71.30838379 -26.3093515 69.99176758 -26.31376648 68.63525391 C-26.32121888 65.85119597 -26.32094421 63.06726487 -26.31567383 60.28320312 C-26.30987478 56.71872137 -26.32682472 53.1547585 -26.3500185 49.59036255 C-26.36830488 46.18521985 -26.36457054 42.78019155 -26.36328125 39.375 C-26.372491 38.0957666 -26.38170074 36.8165332 -26.39118958 35.49853516 C-26.38496078 34.31050293 -26.37873199 33.1224707 -26.37231445 31.8984375 C-26.37294388 30.85349121 -26.3735733 29.80854492 -26.3742218 28.73193359 C-25.94871394 25.62559604 -25.18261604 24.2229744 -23 22 C-22.34 22 -21.68 22 -21 22 C-21 21.34 -21 20.68 -21 20 C-20.34 20 -19.68 20 -19 20 C-19 19.34 -19 18.68 -19 18 C-17.56640625 16.58984375 -17.56640625 16.58984375 -15.5625 14.9375 C-11.41038212 11.42929345 -7.64192767 7.64549595 -3.8828125 3.72265625 C-2 2 -2 2 0 2 C0 1.34 0 0.68 0 0 Z " fill="#8E79CC" transform="translate(205,317)"/>
<path d="M0 0 C1.92578125 1.08984375 1.92578125 1.08984375 4.67578125 3.08984375 C4.67578125 3.74984375 4.67578125 4.40984375 4.67578125 5.08984375 C5.33578125 5.08984375 5.99578125 5.08984375 6.67578125 5.08984375 C6.67578125 5.74984375 6.67578125 6.40984375 6.67578125 7.08984375 C7.33578125 7.08984375 7.99578125 7.08984375 8.67578125 7.08984375 C11.40385366 12.96065557 11.34724361 18.72656675 10.67578125 25.08984375 C9.63098957 27.88352586 8.47299696 29.67483513 6.67578125 32.08984375 C6.01578125 32.08984375 5.35578125 32.08984375 4.67578125 32.08984375 C4.67578125 32.74984375 4.67578125 33.40984375 4.67578125 34.08984375 C2.69578125 35.07984375 0.71578125 36.06984375 -1.32421875 37.08984375 C-1.65421875 47.31984375 -1.98421875 57.54984375 -2.32421875 68.08984375 C-0.67421875 68.41984375 0.97578125 68.74984375 2.67578125 69.08984375 C8.11611489 72.61709303 12.00966529 76.73777667 13.67578125 83.08984375 C14.56464533 90.31186439 14.14024757 96.04471699 10.16796875 102.25 C6.34634432 106.9620029 0.83295099 109.67094553 -5.12109375 110.4609375 C-13.35366405 110.64606144 -18.77933809 108.94333317 -25.0703125 103.609375 C-26.32421875 102.08984375 -26.32421875 102.08984375 -26.32421875 99.08984375 C-26.98421875 99.08984375 -27.64421875 99.08984375 -28.32421875 99.08984375 C-31.25362599 91.9494136 -31.25362599 85.2302739 -28.32421875 78.08984375 C-27.66421875 78.08984375 -27.00421875 78.08984375 -26.32421875 78.08984375 C-26.26234375 77.51234375 -26.20046875 76.93484375 -26.13671875 76.33984375 C-24.29411436 71.23724698 -18.9056898 69.32671689 -14.32421875 67.08984375 C-14.10057946 63.07045312 -13.93793389 59.05349603 -13.82983398 55.02929688 C-13.78475708 53.66309519 -13.72346705 52.29732345 -13.64526367 50.93261719 C-13.39896066 46.52170058 -13.32718545 42.40614788 -14.32421875 38.08984375 C-16.50236069 35.78195594 -18.4049883 34.59026755 -21.27758789 33.27001953 C-23.32421875 32.08984375 -23.32421875 32.08984375 -24.10717773 29.94482422 C-24.21461304 29.02660889 -24.21461304 29.02660889 -24.32421875 28.08984375 C-24.98421875 28.08984375 -25.64421875 28.08984375 -26.32421875 28.08984375 C-28.9838202 21.27461505 -28.9838202 15.90507245 -26.32421875 9.08984375 C-25.66421875 9.08984375 -25.00421875 9.08984375 -24.32421875 9.08984375 C-24.15921875 8.36796875 -23.99421875 7.64609375 -23.82421875 6.90234375 C-19.277951 -1.62190828 -8.58284129 -3.3610118 0 0 Z M-14.88671875 80.96484375 C-17.73069157 84.61096275 -18.11450347 86.49286296 -17.76953125 91 C-17.40617776 93.25971068 -17.40617776 93.25971068 -15.82421875 95.58984375 C-12.38155676 97.65544095 -9.33168492 98.29698912 -5.32421875 98.08984375 C-2.39028921 96.87800329 -0.89551609 95.81694946 1.05078125 93.33984375 C2.19368207 89.22540079 1.30462778 85.58335427 -0.32421875 81.71484375 C-4.53619156 78.29261584 -10.36653227 77.85452496 -14.88671875 80.96484375 Z " fill="#9E89D7" transform="translate(253.32421875,281.91015625)"/>
<path d="M0 0 C0.66 0.66 1.32 1.32 2 2 C1.61121812 5.01305957 0.73543126 6.39685311 -1 9 C-1.45139459 11.0492094 -1.45139459 11.0492094 -1.625 13.1875 C-1.74875 14.445625 -1.8725 15.70375 -2 17 C0.85368392 15.57315804 0.9606425 13.9881528 2 11 C2.68679942 8.67251306 3.35761043 6.34013344 4 4 C7.20395416 4 9.09399739 4.74335022 12 6 C11.01 7.485 11.01 7.485 10 9 C9.64706549 11.18028396 9.64706549 11.18028396 9.6875 13.5 C9.67074219 14.2734375 9.65398437 15.046875 9.63671875 15.84375 C10.09270202 18.55023132 10.80501758 19.38604234 13 21 C16.46108178 22.05893467 19.83724491 22.34568395 23.3125 21.3125 C25.29915657 19.76732267 26.60814607 18.0877809 28 16 C28.495 17.485 28.495 17.485 29 19 C28.34 19 27.68 19 27 19 C27.66 20.32 28.32 21.64 29 23 C29.66 21.68 30.32 20.36 31 19 C31.5775 19.185625 32.155 19.37125 32.75 19.5625 C35.26019347 20.05059317 36.64247837 19.97552619 39 19 C39.495 17.515 39.495 17.515 40 16 C39.227378 22.18097602 36.91285862 27.45343346 32.0625 31.375 C25.27451546 34.97678771 19.67509195 35.97276197 12 35 C7.41918609 33.26129691 3.15120758 30.81875312 0 27 C0 26.01 0 25.02 0 24 C-0.66 24 -1.32 24 -2 24 C-4.92940724 16.85956985 -4.92940724 10.14043015 -2 3 C-1.34 3 -0.68 3 0 3 C0 2.01 0 1.02 0 0 Z " fill="#9480CF" transform="translate(227,357)"/>
<path d="M0 0 C1.99527356 2.55235849 3.60472634 5.04966701 5.0625 7.9375 C7.37735777 12.17319719 10.07949372 15.98300838 13 19.8125 C13.41515869 20.36349365 13.83031738 20.9144873 14.25805664 21.48217773 C16.86953828 24.8462507 19.61228309 27.43814442 23 30 C24.66666667 31.66666667 26.33333333 33.33333333 28 35 C28.99 35.495 28.99 35.495 30 36 C30 36.66 30 37.32 30 38 C30.68835938 38.24878906 31.37671875 38.49757813 32.0859375 38.75390625 C35.47816315 40.20446923 38.4858996 41.99991734 41.625 43.9375 C42.19734375 44.28490234 42.7696875 44.63230469 43.359375 44.99023438 C46.21653539 46.7543648 48.76819982 48.47537498 51 51 C49 52 49 52 47.20678711 51.52197266 C46.4875708 51.2388623 45.76835449 50.95575195 45.02734375 50.6640625 C44.2187793 50.34655029 43.41021484 50.02903809 42.57714844 49.7019043 C41.70606445 49.34652588 40.83498047 48.99114746 39.9375 48.625 C39.0393457 48.25995361 38.14119141 47.89490723 37.21582031 47.51879883 C25.07655704 42.48291137 13.81131072 36.44392997 2.9375 29.0625 C2.23979492 28.58965576 1.54208984 28.11681152 0.82324219 27.62963867 C-0.82521659 26.47584324 -2.41908261 25.24473308 -4 24 C-4 23.34 -4 22.68 -4 22 C-4.639375 21.71125 -5.27875 21.4225 -5.9375 21.125 C-8 20 -8 20 -9 18 C-8.01 18 -7.02 18 -6 18 C-2.84964071 15.29969203 -0.47241991 13.25177923 0 9 C-0.33 9 -0.66 9 -1 9 C-1.33 6.69 -1.66 4.38 -2 2 C-1.34 2 -0.68 2 0 2 C0 1.34 0 0.68 0 0 Z " fill="#8673C8" transform="translate(155,417)"/>
<path d="M0 0 C0.66 0.33 1.32 0.66 2 1 C1.7215625 1.928125 1.7215625 1.928125 1.4375 2.875 C0.76313824 5.04160178 0.76313824 5.04160178 2 7 C1.01 7 0.02 7 -1 7 C-0.505 8.485 -0.505 8.485 0 10 C-0.99 10.99 -1.98 11.98 -3 13 C-2.505 13.99 -2.505 13.99 -2 15 C0.9417327 14.04222656 3.83268005 13.07004091 6.6875 11.875 C9 11 9 11 12 11 C12 10.01 12 9.02 12 8 C14.25 6.1875 14.25 6.1875 17 5 C19.3125 5.8125 19.3125 5.8125 21 7 C20.34 7 19.68 7 19 7 C19 7.66 19 8.32 19 9 C17.58569336 10.20166016 17.58569336 10.20166016 15.58984375 11.5390625 C14.85467529 12.0333374 14.11950684 12.5276123 13.36206055 13.03686523 C12.56195557 13.56094971 11.76185059 14.08503418 10.9375 14.625 C10.12128174 15.16261963 9.30506348 15.70023926 8.46411133 16.25415039 C-1.9631588 23.03365018 -12.48282808 28.7210052 -24.20703125 32.9765625 C-26.43471382 33.79286017 -28.54486728 34.67861467 -30.6875 35.6875 C-35.02961593 37.40796103 -39.40876031 38.21477792 -44 39 C-43 36 -43 36 -40.8828125 34.67578125 C-39.97273438 34.22589844 -39.06265625 33.77601563 -38.125 33.3125 C-30.61132398 29.38467456 -23.87061138 24.51186485 -17.4375 19 C-15 17 -15 17 -13 17 C-13 16.34 -13 15.68 -13 15 C-12.34 15 -11.68 15 -11 15 C-11 14.34 -11 13.68 -11 13 C-9.625 11.375 -9.625 11.375 -8 10 C-7.34 10 -6.68 10 -6 10 C-5.7525 9.46375 -5.505 8.9275 -5.25 8.375 C-3.70303025 5.43575748 -1.86985631 2.74245592 0 0 Z " fill="#9782DB" transform="translate(328,432)"/>
<path d="M0 0 C4.37381963 -0.42880585 6.34825296 -0.48534354 9.9375 2.1875 C12 5 12 5 12.54296875 7.21875 C11.66378569 11.72219131 8.57952316 14.18212577 5.375 17.3125 C4.75753906 17.95767578 4.14007813 18.60285156 3.50390625 19.26757812 C-1.11812571 23.8652836 -1.11812571 23.8652836 -5.32421875 24.5078125 C-8.33708271 23.9360281 -9.70273011 22.98040508 -12 21 C-12.99 20.67 -13.98 20.34 -15 20 C-13.80266585 14.2912818 -11.79225394 11.07193101 -7.5 7.0625 C-7.00113281 6.56943359 -6.50226563 6.07636719 -5.98828125 5.56835938 C-2.29619235 2 -2.29619235 2 0 2 C0 1.34 0 0.68 0 0 Z " fill="#A18BE1" transform="translate(205,317)"/>
<path d="M0 0 C-0.47680139 2.43798448 -0.95634129 4.87537516 -1.4375 7.3125 C-1.57220703 8.00279297 -1.70691406 8.69308594 -1.84570312 9.40429688 C-2.42774332 12.34289007 -3.05152228 15.15456685 -4 18 C-5.93412154 31.59470956 -6.304755 45.09105493 -6.31884766 58.80151367 C-6.32817222 60.91266757 -6.33834453 63.02381787 -6.34928894 65.13496399 C-6.37631832 70.80307198 -6.39165696 76.47115552 -6.40471697 82.1393106 C-6.42046746 88.08633553 -6.44721893 94.03331136 -6.4727478 99.9803009 C-6.51932638 111.21359432 -6.55617101 122.4468972 -6.58942068 133.68023711 C-6.62779089 146.48094844 -6.67716146 159.28161019 -6.72740483 172.08227956 C-6.83041311 198.38814952 -6.91977357 224.69405139 -7 251 C-7.33 250.34 -7.66 249.68 -8 249 C-8.66 248.67 -9.32 248.34 -10 248 C-12 247 -12 247 -13 245 C-11.68 245 -10.36 245 -9 245 C-9.00184359 243.89324637 -9.00368717 242.78649275 -9.00558662 241.64620113 C-9.04997673 214.72213436 -9.08284727 187.79807234 -9.10362434 160.87397671 C-9.11393892 147.85371539 -9.12800276 134.83347823 -9.15087891 121.81323242 C-9.17080718 110.46540071 -9.18371512 99.1175865 -9.18817699 87.76973778 C-9.19078531 81.76061306 -9.19691987 75.75153841 -9.21146011 69.74242973 C-9.22503507 64.08642302 -9.22922278 58.43048702 -9.22621536 52.77446556 C-9.22676556 50.69881557 -9.23074348 48.62316321 -9.23841095 46.54752731 C-9.24837076 43.71225711 -9.24596501 40.87725338 -9.24050903 38.04197693 C-9.24633472 37.22192199 -9.2521604 36.40186705 -9.25816262 35.55696195 C-9.23266481 30.64993368 -8.5275337 26.6648598 -7 22 C-6.74944479 20.52739724 -6.53137457 19.04805841 -6.375 17.5625 C-6.189375 15.7990625 -6.189375 15.7990625 -6 14 C-5.34 14 -4.68 14 -4 14 C-4.14095064 12.3745692 -4.28792087 10.74965949 -4.4375 9.125 C-4.51871094 8.22007813 -4.59992188 7.31515625 -4.68359375 6.3828125 C-4.86989285 3.98889139 -4.86989285 3.98889139 -6 2 C-2.25 0 -2.25 0 0 0 Z " fill="#AB9FCC" transform="translate(276,16)"/>
<path d="M0 0 C1.17539996 0.92652701 2.34010577 1.86663387 3.5 2.8125 C4.1496875 3.33457031 4.799375 3.85664063 5.46875 4.39453125 C7 6 7 6 7 9 C6.34 9 5.68 9 5 9 C5 9.99 5 10.98 5 12 C4.34 12 3.68 12 3 12 C3 12.66 3 13.32 3 14 C4.32 14 5.64 14 7 14 C6.67 14.66 6.34 15.32 6 16 C5.34 15.67 4.68 15.34 4 15 C4 15.66 4 16.32 4 17 C3.34 17 2.68 17 2 17 C2 17.99 2 18.98 2 20 C2.99 20.33 3.98 20.66 5 21 C4.34 21 3.68 21 3 21 C3.33 22.32 3.66 23.64 4 25 C3.34 24.67 2.68 24.34 2 24 C2 23.34 2 22.68 2 22 C1.34 22 0.68 22 0 22 C0 21.34 0 20.68 0 20 C-0.57234375 19.75507813 -1.1446875 19.51015625 -1.734375 19.2578125 C-4.38024402 17.78889901 -6.14853139 16.04651756 -8.25 13.875 C-8.95640625 13.15054687 -9.6628125 12.42609375 -10.390625 11.6796875 C-10.92171875 11.12539063 -11.4528125 10.57109375 -12 10 C-9.92446352 9.4465236 -8.15634036 9 -6 9 C-5.731875 8.401875 -5.46375 7.80375 -5.1875 7.1875 C-4.00800664 5.01474908 -2.770808 3.69381635 -1 2 C-0.67 1.34 -0.34 0.68 0 0 Z " fill="#8B76CB" transform="translate(214,417)"/>
<path d="M0 0 C0.66 0.33 1.32 0.66 2 1 C1.814375 1.61875 1.62875 2.2375 1.4375 2.875 C0.76313824 5.04160178 0.76313824 5.04160178 2 7 C1.01 7 0.02 7 -1 7 C-0.67 7.99 -0.34 8.98 0 10 C-0.99 10.99 -1.98 11.98 -3 13 C-2.67 13.66 -2.34 14.32 -2 15 C0.9417327 14.04222656 3.83268005 13.07004091 6.6875 11.875 C9 11 9 11 12 11 C12 10.01 12 9.02 12 8 C14.25 6.1875 14.25 6.1875 17 5 C19.3125 5.8125 19.3125 5.8125 21 7 C20.34 7 19.68 7 19 7 C19 7.66 19 8.32 19 9 C17.01261409 10.62875988 15.04338501 12.10245048 12.9375 13.5625 C12.09541992 14.1802832 12.09541992 14.1802832 11.23632812 14.81054688 C7.19108824 17.6352801 4.00207227 18.55305841 -1 19 C-1.66 19.33 -2.32 19.66 -3 20 C-4.33333333 19.33333333 -5.66666667 18.66666667 -7 18 C-8.32 18 -9.64 18 -11 18 C-9.125 12.25 -9.125 12.25 -8 10 C-7.34 10 -6.68 10 -6 10 C-5.7525 9.46375 -5.505 8.9275 -5.25 8.375 C-3.70303025 5.43575748 -1.86985631 2.74245592 0 0 Z " fill="#9A84DA" transform="translate(328,432)"/>
<path d="M0 0 C2 1 4 2 6 3 C6 3.66 6 4.32 6 5 C6.68835938 5.24878906 7.37671875 5.49757813 8.0859375 5.75390625 C11.47816315 7.20446923 14.4858996 8.99991734 17.625 10.9375 C18.19734375 11.28490234 18.7696875 11.63230469 19.359375 11.99023438 C22.21653539 13.7543648 24.76819982 15.47537498 27 18 C25 19 25 19 23.17504883 18.50610352 C22.44310303 18.21662842 21.71115723 17.92715332 20.95703125 17.62890625 C20.13686523 17.30535156 19.31669922 16.98179687 18.47167969 16.6484375 C17.59415039 16.29007812 16.71662109 15.93171875 15.8125 15.5625 C14.47493652 15.02302734 14.47493652 15.02302734 13.11035156 14.47265625 C5.10321854 11.17475949 -2.48190465 7.28303614 -10 3 C-6.90226756 2.15937603 -4.21667249 1.91064799 -1 2 C-0.67 1.34 -0.34 0.68 0 0 Z " fill="#7466AC" transform="translate(179,450)"/>
<path d="M0 0 C0.33 0 0.66 0 1 0 C1 47.19 1 94.38 1 143 C-1.31 142.34 -3.62 141.68 -6 141 C-6.33 140.34 -6.66 139.68 -7 139 C-2.25 137.875 -2.25 137.875 0 139 C0 93.13 0 47.26 0 0 Z " fill="#B09FDE" transform="translate(267,119)"/>
<path d="M0 0 C0.66 0.66 1.32 1.32 2 2 C1.61121812 5.01305957 0.73543126 6.39685311 -1 9 C-1.45139459 11.0492094 -1.45139459 11.0492094 -1.625 13.1875 C-1.74875 14.445625 -1.8725 15.70375 -2 17 C0.85368392 15.57315804 0.9606425 13.9881528 2 11 C2.68679942 8.67251306 3.35761043 6.34013344 4 4 C7.20395416 4 9.09399739 4.74335022 12 6 C11.01 7.485 11.01 7.485 10 9 C9.54605448 11.27912938 9.54605448 11.27912938 9.375 13.6875 C9.30023438 14.49574219 9.22546875 15.30398438 9.1484375 16.13671875 C9.09945312 16.75160156 9.05046875 17.36648438 9 18 C8.34 16.68 7.68 15.36 7 14 C6.67 14.66 6.34 15.32 6 16 C5.34 16.33 4.68 16.66 4 17 C2.86649466 19.01669827 2.86649466 19.01669827 2 21 C1.34 21 0.68 21 0 21 C0 21.99 0 22.98 0 24 C-0.66 24 -1.32 24 -2 24 C-4.92940724 16.85956985 -4.92940724 10.14043015 -2 3 C-1.34 3 -0.68 3 0 3 C0 2.01 0 1.02 0 0 Z " fill="#8E7AC9" transform="translate(227,357)"/>
<path d="M0 0 C0.33 0 0.66 0 1 0 C1 37.95 1 75.9 1 115 C0.67 114.34 0.34 113.68 0 113 C-0.66 112.67 -1.32 112.34 -2 112 C-4 111 -4 111 -5 109 C-3.68 109 -2.36 109 -1 109 C-0.67 73.03 -0.34 37.06 0 0 Z " fill="#9E92BF" transform="translate(268,152)"/>
<path d="M0 0 C0.66 0 1.32 0 2 0 C2.33 0.99 2.66 1.98 3 3 C3.66 3.33 4.32 3.66 5 4 C5 4.66 5 5.32 5 6 C5.99 6.33 6.98 6.66 8 7 C8.6875 9.0625 8.6875 9.0625 9 11 C10.65 11.33 12.3 11.66 14 12 C16.42857143 18.28571429 16.42857143 18.28571429 15 22 C15.66 22.33 16.32 22.66 17 23 C17 24.65 17 26.3 17 28 C9.55553485 21.21239942 4.20375987 12.09323944 0 3 C0 2.01 0 1.02 0 0 Z " fill="#8F79D9" transform="translate(111,389)"/>
<path d="M0 0 C3.82246588 0.55959523 5.58971741 2.21317357 8.25 4.9375 C8.95640625 5.64777344 9.6628125 6.35804688 10.390625 7.08984375 C12 9 12 9 12 11 C12.66 11 13.32 11 14 11 C14 11.66 14 12.32 14 13 C14.66 13 15.32 13 16 13 C16 13.66 16 14.32 16 15 C16.66 15 17.32 15 18 15 C17.49396008 17.16874252 17.00016187 18.99967627 16 21 C15.34 21 14.68 21 14 21 C14 21.66 14 22.32 14 23 C13.34 23 12.68 23 12 23 C11.67 23.99 11.34 24.98 11 26 C10.67 26 10.34 26 10 26 C10 24.35 10 22.7 10 21 C11.32 20.34 12.64 19.68 14 19 C14 18.34 14 17.68 14 17 C13.34 17 12.68 17 12 17 C11.67 16.34 11.34 15.68 11 15 C10.34 15 9.68 15 9 15 C9.33 13.68 9.66 12.36 10 11 C9.01 11.33 8.02 11.66 7 12 C6.896875 11.38125 6.79375 10.7625 6.6875 10.125 C6.12474627 7.63473516 6.12474627 7.63473516 3 6 C3 5.34 3 4.68 3 4 C2.01 3.67 1.02 3.34 0 3 C0 2.01 0 1.02 0 0 Z " fill="#8274AA" transform="translate(169,280)"/>
<path d="M0 0 C0.33 0 0.66 0 1 0 C1 2.31 1 4.62 1 7 C1.66 7 2.32 7 3 7 C3.8125 9.1875 3.8125 9.1875 4 12 C1.6875 14.8125 1.6875 14.8125 -1 17 C-1.66 17 -2.32 17 -3 17 C-2.67 15.68 -2.34 14.36 -2 13 C-3.98 13.99 -3.98 13.99 -6 15 C-6.66 13.35 -7.32 11.7 -8 10 C-7.360625 9.7525 -6.72125 9.505 -6.0625 9.25 C-3.81258459 8.18437567 -3.81258459 8.18437567 -3.25 5.875 C-3.1675 5.25625 -3.085 4.6375 -3 4 C-2.34 4.33 -1.68 4.66 -1 5 C-0.67 3.35 -0.34 1.7 0 0 Z " fill="#9E89DD" transform="translate(234,368)"/>
<path d="M0 0 C1.3303125 0.7115625 1.3303125 0.7115625 2.6875 1.4375 C5.57042756 2.79737149 7.87610623 3.54060386 11 4 C8.35261084 5.4606285 7.10551666 6 4 6 C4 6.66 4 7.32 4 8 C3.01 8 2.02 8 1 8 C0.67 8.66 0.34 9.32 0 10 C0.66 10.33 1.32 10.66 2 11 C1.01 11.99 0.02 12.98 -1 14 C-4.51005335 12.3619751 -7.45543849 10.96865509 -10 8 C-8.60804085 5.2160817 -6.84424221 5.02101003 -4 4 C-4.66 5.65 -5.32 7.3 -6 9 C-3.46326712 7.6446674 -3.46326712 7.6446674 -1 6 C-1 5.34 -1 4.68 -1 4 C-0.34 4 0.32 4 1 4 C0.67 2.68 0.34 1.36 0 0 Z " fill="#8F7DC7" transform="translate(237,376)"/>
<path d="M0 0 C0.33 1.32 0.66 2.64 1 4 C1.66 3.01 2.32 2.02 3 1 C4.9375 1.625 4.9375 1.625 7 3 C7.79148599 6.0999868 8 8.80525245 8 12 C8.19864555 13.35562166 8.40755135 14.70976713 8.625 16.0625 C8.74875 17.361875 8.8725 18.66125 9 20 C8.34 20.66 7.68 21.32 7 22 C6.67386719 21.13117188 6.34773438 20.26234375 6.01171875 19.3671875 C5.57472656 18.21476562 5.13773437 17.06234375 4.6875 15.875 C4.25824219 14.73804688 3.82898438 13.60109375 3.38671875 12.4296875 C2.06072143 8.97608755 2.06072143 8.97608755 0.26953125 5.7578125 C-1 3 -1 3 0 0 Z " fill="#A691E1" transform="translate(335,336)"/>
<path d="M0 0 C-0.66 2.31 -1.32 4.62 -2 7 C-4.31 6.67 -6.62 6.34 -9 6 C-9.20625 6.598125 -9.4125 7.19625 -9.625 7.8125 C-11.55910129 10.88947932 -13.64642035 11.72563973 -17 13 C-19.375 12.6875 -19.375 12.6875 -21 12 C-20.34 12 -19.68 12 -19 12 C-19 11.34 -19 10.68 -19 10 C-17.57421875 8.7109375 -17.57421875 8.7109375 -15.6875 7.375 C-14.76517578 6.70597656 -14.76517578 6.70597656 -13.82421875 6.0234375 C-12 5 -12 5 -9 5 C-9 4.34 -9 3.68 -9 3 C-8.01 3 -7.02 3 -6 3 C-6 2.34 -6 1.68 -6 1 C-3 0 -3 0 0 0 Z " fill="#B2A3D9" transform="translate(265,23)"/>
<path d="M0 0 C0.66 0.33 1.32 0.66 2 1 C1.01 2.65 0.02 4.3 -1 6 C-0.34 6.33 0.32 6.66 1 7 C-4.5626148 9.66038099 -9.93267948 10.96232949 -16 12 C-14.69528407 8.08585222 -13.29778662 7.83622525 -9.6875 6 C-6.21253363 4.21844181 -3.05585987 2.43888104 0 0 Z " fill="#6F609F" transform="translate(300,459)"/>
<path d="M0 0 C0.33 0 0.66 0 1 0 C1 15.18 1 30.36 1 46 C-1.31 45.34 -3.62 44.68 -6 44 C-6.33 43.34 -6.66 42.68 -7 42 C-2.25 40.875 -2.25 40.875 0 42 C0 28.14 0 14.28 0 0 Z " fill="#A898D9" transform="translate(267,216)"/>
<path d="M0 0 C0.556875 0.391875 1.11375 0.78375 1.6875 1.1875 C1.0275 1.1875 0.3675 1.1875 -0.3125 1.1875 C-0.3125 1.8475 -0.3125 2.5075 -0.3125 3.1875 C-2.4069968 4.82179751 -4.49032091 6.32917234 -6.6875 7.8125 C-7.59242188 8.44285156 -7.59242188 8.44285156 -8.515625 9.0859375 C-13.04712865 12.1875 -13.04712865 12.1875 -15.3125 12.1875 C-15.3125 10.5375 -15.3125 8.8875 -15.3125 7.1875 C-12.40649739 5.93085022 -10.51645416 5.1875 -7.3125 5.1875 C-7.3125 4.1975 -7.3125 3.2075 -7.3125 2.1875 C-3.20088417 -1.12463498 -3.20088417 -1.12463498 0 0 Z " fill="#8371B5" transform="translate(347.3125,437.8125)"/>
<path d="M0 0 C4 0 4 0 7 1 C5.56590028 4.35861695 3.80630679 6.35874939 1.0625 8.75 C0.37285156 9.36359375 -0.31679688 9.9771875 -1.02734375 10.609375 C-3 12 -3 12 -6 12 C-5.67 10.35 -5.34 8.7 -5 7 C-4.34 7 -3.68 7 -3 7 C-2.690625 6.030625 -2.38125 5.06125 -2.0625 4.0625 C-1 1 -1 1 0 0 Z " fill="#9685CE" transform="translate(354,425)"/>
<path d="M0 0 C2.475 0.99 2.475 0.99 5 2 C5.33 1.67 5.66 1.34 6 1 C7.66617115 0.95936168 9.33388095 0.957279 11 1 C8.26307534 4.30669336 4.60004821 5.86780532 0.8125 7.6875 C0.15830078 8.00783203 -0.49589844 8.32816406 -1.16992188 8.65820312 C-2.77727907 9.44428292 -4.38828858 10.22288683 -6 11 C-6 10.01 -6 9.02 -6 8 C-5.34 8 -4.68 8 -4 8 C-4 7.34 -4 6.68 -4 6 C-3.34 5.34 -2.68 4.68 -2 4 C-1.30251417 2.68252676 -0.63040043 1.35085807 0 0 Z " fill="#907DD1" transform="translate(321,449)"/>
<path d="M0 0 C2.91687906 0.61096791 5.13415334 1.51314558 7.671875 3.06640625 C8.33574219 3.46923828 8.99960938 3.87207031 9.68359375 4.28710938 C10.36550781 4.70798828 11.04742187 5.12886719 11.75 5.5625 C12.44738281 5.98724609 13.14476562 6.41199219 13.86328125 6.84960938 C15.57835717 7.89510086 17.28956473 8.94693351 19 10 C18.34 10.66 17.68 11.32 17 12 C11.72 10.02 6.44 8.04 1 6 C1.66 5.01 2.32 4.02 3 3 C2.01 2.67 1.02 2.34 0 2 C0 1.34 0 0.68 0 0 Z " fill="#5D5577" transform="translate(187,457)"/>
<path d="M0 0 C2.475 0.99 2.475 0.99 5 2 C4.67 3.32 4.34 4.64 4 6 C3.1028125 6.061875 3.1028125 6.061875 2.1875 6.125 C-0.32180123 6.84774995 -0.32180123 6.84774995 -1.4375 9.875 C-3.18335883 13.36671765 -4.55353089 14.32333935 -8 16 C-6.42986223 10.03347646 -3.24970218 5.17090975 0 0 Z " fill="#8D7DBE" transform="translate(122,249)"/>
<path d="M0 0 C3.65316671 1.24976756 4.78065836 1.67098753 7 5 C6.34 6.32 5.68 7.64 5 9 C2.69 9 0.38 9 -2 9 C-3 7 -3 7 -2.125 3.9375 C-1 1 -1 1 0 0 Z " fill="#9B86D9" transform="translate(193,329)"/>
<path d="M0 0 C1.32 0.33 2.64 0.66 4 1 C3.01 1.495 3.01 1.495 2 2 C1.67 18.17 1.34 34.34 1 51 C0.67 51 0.34 51 0 51 C0 34.17 0 17.34 0 0 Z " fill="#AD9EDA" transform="translate(297,348)"/>
<path d="M0 0 C3.79133356 0.54161908 5.66109564 1.99283725 8 5 C8.625 7.4375 8.625 7.4375 8 10 C6.14023296 11.96726803 4.20606765 13.39140901 2 15 C2 13.68 2 12.36 2 11 C2.99 10.34 3.98 9.68 5 9 C3.68 8.67 2.36 8.34 1 8 C0.67 5.36 0.34 2.72 0 0 Z " fill="#A18EDB" transform="translate(209,317)"/>
<path d="M0 0 C1.485 0.99 1.485 0.99 3 2 C3.328125 4.44140625 3.328125 4.44140625 3.25 7.5625 C3.22421875 8.71234375 3.1984375 9.8621875 3.171875 11.046875 C2.86794287 18.03731405 2.46820407 25.01874294 2 32 C1.67 32 1.34 32 1 32 C0.21420207 27.85076942 -0.11854983 23.94706569 -0.09765625 19.7265625 C-0.09443359 18.57285156 -0.09121094 17.41914063 -0.08789062 16.23046875 C-0.07951172 15.04066406 -0.07113281 13.85085938 -0.0625 12.625 C-0.05798828 11.41199219 -0.05347656 10.19898438 -0.04882812 8.94921875 C-0.03708354 5.96609493 -0.0206584 2.98307321 0 0 Z " fill="#8677B4" transform="translate(145,359)"/>
<path d="M0 0 C0.66 0 1.32 0 2 0 C2.33 0.99 2.66 1.98 3 3 C2.67 3.66 2.34 4.32 2 5 C2.66 5 3.32 5 4 5 C4 5.66 4 6.32 4 7 C3.34 7 2.68 7 2 7 C2 7.66 2 8.32 2 9 C0 10.625 0 10.625 -2 12 C-3.32 11.01 -4.64 10.02 -6 9 C-4.97407374 5.92222122 -4.24530756 5.15549526 -2 3 C-1.34 2.01 -0.68 1.02 0 0 Z " fill="#A792E0" transform="translate(282,317)"/>
<path d="M0 0 C1.98 0.99 3.96 1.98 6 3 C5.06725891 4.12894876 4.12859878 5.25300876 3.1875 6.375 C2.66542969 7.00148438 2.14335937 7.62796875 1.60546875 8.2734375 C0 10 0 10 -3 12 C-4.46911544 8.18029984 -3.52561108 5.69358471 -2 2 C-1.34 1.34 -0.68 0.68 0 0 Z " fill="#907CC2" transform="translate(205,329)"/>
<path d="M0 0 C0.38614349 6.8218683 -0.99134292 12.49577707 -3 19 C-5.76264507 13.55364258 -6.42861273 10.15402407 -5 4 C-1.71794872 0 -1.71794872 0 0 0 Z " fill="#8F7EBC" transform="translate(398,349)"/>
<path d="M0 0 C0.66 0 1.32 0 2 0 C2.33 0.99 2.66 1.98 3 3 C3.66 3.33 4.32 3.66 5 4 C5 4.66 5 5.32 5 6 C5.99 6.33 6.98 6.66 8 7 C8.6875 9.0625 8.6875 9.0625 9 11 C9.66 11 10.32 11 11 11 C10.67 13.31 10.34 15.62 10 18 C6.83673624 15.09117267 4.78533387 12.21520301 2.75 8.4375 C2.22921875 7.48746094 1.7084375 6.53742188 1.171875 5.55859375 C0 3 0 3 0 0 Z " fill="#6F61A1" transform="translate(111,389)"/>
<path d="M0 0 C-0.47680139 2.43798448 -0.95634129 4.87537516 -1.4375 7.3125 C-1.57220703 8.00279297 -1.70691406 8.69308594 -1.84570312 9.40429688 C-2.42774332 12.34289007 -3.05152228 15.15456685 -4 18 C-4.22179785 19.89212737 -4.40614015 21.78884472 -4.5625 23.6875 C-4.64628906 24.68136719 -4.73007812 25.67523438 -4.81640625 26.69921875 C-4.87699219 27.45847656 -4.93757813 28.21773437 -5 29 C-5.33 29 -5.66 29 -6 29 C-6.19517554 27.06325815 -6.38087873 25.12555991 -6.5625 23.1875 C-6.66691406 22.10855469 -6.77132813 21.02960937 -6.87890625 19.91796875 C-7 17 -7 17 -6 14 C-5.34 14 -4.68 14 -4 14 C-4.14095064 12.3745692 -4.28792087 10.74965949 -4.4375 9.125 C-4.55931641 7.76761719 -4.55931641 7.76761719 -4.68359375 6.3828125 C-4.86989285 3.98889139 -4.86989285 3.98889139 -6 2 C-2.25 0 -2.25 0 0 0 Z " fill="#8A7FA4" transform="translate(276,16)"/>
<path d="M0 0 C1.32 0 2.64 0 4 0 C4 1.65 4 3.3 4 5 C4.99 4.67 5.98 4.34 7 4 C5.79618552 6.49361571 4.54571278 8.68143083 3 11 C2.67 11 2.34 11 2 11 C1.67 11.66 1.34 12.32 1 13 C0.01 12.67 -0.98 12.34 -2 12 C-2 11.01 -2 10.02 -2 9 C-1.34 9 -0.68 9 0 9 C0 8.34 0 7.68 0 7 C0.99 6.67 1.98 6.34 3 6 C1.68 6 0.36 6 -1 6 C-0.67 4.02 -0.34 2.04 0 0 Z " fill="#967EDE" transform="translate(218,425)"/>
<path d="M0 0 C3 1 3 1 4.82421875 4.37890625 C5.45592589 5.76866196 6.07661796 7.16346534 6.6875 8.5625 C7.00783203 9.27341797 7.32816406 9.98433594 7.65820312 10.71679688 C8.44820496 12.47366662 9.22533623 14.23631345 10 16 C9.34 16.66 8.68 17.32 8 18 C8 17.34 8 16.68 8 16 C7.34 16 6.68 16 6 16 C5.67 14.02 5.34 12.04 5 10 C4.01 9.67 3.02 9.34 2 9 C1.26953125 6.93359375 1.26953125 6.93359375 0.8125 4.4375 C0.65394531 3.61121094 0.49539063 2.78492188 0.33203125 1.93359375 C0.16767578 0.97646484 0.16767578 0.97646484 0 0 Z " fill="#9788B8" transform="translate(378,256)"/>
<path d="M0 0 C3.16277272 1.58138636 3.43093689 4.32596051 4.625 7.5625 C5.29402344 9.35880859 5.29402344 9.35880859 5.9765625 11.19140625 C6.31429688 12.11824219 6.65203125 13.04507813 7 14 C6.01 13.67 5.02 13.34 4 13 C4 12.01 4 11.02 4 10 C3.01 10.495 3.01 10.495 2 11 C1.53101037 13.8159849 1.53101037 13.8159849 1.375 17.0625 C1.30023438 18.16722656 1.22546875 19.27195313 1.1484375 20.41015625 C1.09945313 21.26480469 1.05046875 22.11945313 1 23 C0.67 23 0.34 23 0 23 C0 15.41 0 7.82 0 0 Z " fill="#A79AC5" transform="translate(289,126)"/>
<path d="M0 0 C0.66 0 1.32 0 2 0 C2 1.65 2 3.3 2 5 C2.66 5.33 3.32 5.66 4 6 C3.030625 6.5775 2.06125 7.155 1.0625 7.75 C-2.09469292 9.64792862 -2.09469292 9.64792862 -2.875 12.25 C-2.91625 12.8275 -2.9575 13.405 -3 14 C-3.66 14 -4.32 14 -5 14 C-5 14.66 -5 15.32 -5 16 C-5.66 15.67 -6.32 15.34 -7 15 C-5.1074692 9.60628722 -2.95534402 4.8916039 0 0 Z " fill="#A999D1" transform="translate(196,89)"/>
<path d="M0 0 C0.66 0 1.32 0 2 0 C3.17176518 2.12232979 4.33754785 4.24757791 5.5 6.375 C5.83386719 6.97828125 6.16773438 7.5815625 6.51171875 8.203125 C9 12.7734375 9 12.7734375 9 15 C9.66 15 10.32 15 11 15 C11.33 15.99 11.66 16.98 12 18 C11.34 18 10.68 18 10 18 C10 17.34 10 16.68 10 16 C8.68 16 7.36 16 6 16 C6 14.35 6 12.7 6 11 C4.68 11.33 3.36 11.66 2 12 C2.185625 11.443125 2.37125 10.88625 2.5625 10.3125 C3.07551165 7.600867 2.6640724 5.65628961 2 3 C0.68 3.33 -0.64 3.66 -2 4 C-1.34 2.68 -0.68 1.36 0 0 Z " fill="#8073AD" transform="translate(131,235)"/>
<path d="M0 0 C0.33 0 0.66 0 1 0 C1 11.55 1 23.1 1 35 C0.67 34.34 0.34 33.68 0 33 C-0.66 32.67 -1.32 32.34 -2 32 C-4 31 -4 31 -5 29 C-3.68 29 -2.36 29 -1 29 C-0.67 19.43 -0.34 9.86 0 0 Z " fill="#8C81AE" transform="translate(268,232)"/>
<path d="M0 0 C0.99 0 1.98 0 3 0 C3.66 0.66 4.32 1.32 5 2 C4.7578125 3.9453125 4.7578125 3.9453125 4.125 6.125 C3.92132813 6.84945313 3.71765625 7.57390625 3.5078125 8.3203125 C3.34023437 8.87460937 3.17265625 9.42890625 3 10 C2.34 10 1.68 10 1 10 C1.33 10.99 1.66 11.98 2 13 C1.01 13 0.02 13 -1 13 C-1.07654536 8.48382401 -1.10228696 4.40914783 0 0 Z " fill="#9F88E2" transform="translate(226,361)"/>
<path d="M0 0 C3.79379058 1.49041773 5.68343758 3.69062512 8 7 C8 7.66 8 8.32 8 9 C7.34 9 6.68 9 6 9 C5.67 9.99 5.34 10.98 5 12 C4.67 10.68 4.34 9.36 4 8 C3.34 8 2.68 8 2 8 C0.3125 6.8125 0.3125 6.8125 -1 5 C-0.6875 2.3125 -0.6875 2.3125 0 0 Z " fill="#8573C3" transform="translate(162,432)"/>
<path d="M0 0 C0.66 0.33 1.32 0.66 2 1 C1.67 2.65 1.34 4.3 1 6 C-0.32 6 -1.64 6 -3 6 C-3.103125 6.61875 -3.20625 7.2375 -3.3125 7.875 C-4 10 -4 10 -7 12 C-9.1875 11.625 -9.1875 11.625 -11 11 C-9.54782324 9.49403892 -8.08807139 7.99537896 -6.625 6.5 C-5.40683594 5.24703125 -5.40683594 5.24703125 -4.1640625 3.96875 C-2 2 -2 2 0 2 C0 1.34 0 0.68 0 0 Z " fill="#8F7FC1" transform="translate(205,317)"/>
<path d="M0 0 C0.66 0.33 1.32 0.66 2 1 C1.11955395 5.74811977 -1.4790509 8.79913718 -5 12 C-7.875 12.9375 -7.875 12.9375 -10 13 C-9.67 12.01 -9.34 11.02 -9 10 C-8.34 10 -7.68 10 -7 10 C-6.731875 9.4225 -6.46375 8.845 -6.1875 8.25 C-4.97070811 5.94449957 -3.69666121 3.97943808 -2 2 C-1.34 2 -0.68 2 0 2 C0 1.34 0 0.68 0 0 Z " fill="#998ABA" transform="translate(220,57)"/>
<path d="M0 0 C0.99 0.33 1.98 0.66 3 1 C3.33 1.99 3.66 2.98 4 4 C4.33 3.34 4.66 2.68 5 2 C5.66 2 6.32 2 7 2 C7 2.99 7 3.98 7 5 C7.66 5 8.32 5 9 5 C8.67 5.66 8.34 6.32 8 7 C5.35139573 7.59355614 2.70802678 7.74209269 0 8 C0 7.34 0 6.68 0 6 C-0.66 5.34 -1.32 4.68 -2 4 C-2 3.01 -2 2.02 -2 1 C-1.34 0.67 -0.68 0.34 0 0 Z " fill="#907AD8" transform="translate(163,439)"/>
<path d="M0 0 C1.88391785 3.26545761 2.49287967 6.28111761 3 10 C-0.93169105 10 -2.16427228 8.60580385 -5 6 C-5 5.34 -5 4.68 -5 4 C-5.99 3.67 -6.98 3.34 -8 3 C-5.50935112 2.31292445 -3.62113708 2 -1 2 C-0.67 1.34 -0.34 0.68 0 0 Z " fill="#907FBB" transform="translate(308,297)"/>
<path d="M0 0 C3.87511727 0.54984772 5.59576506 2.27555331 8.25 5.0625 C8.95640625 5.79597656 9.6628125 6.52945312 10.390625 7.28515625 C10.92171875 7.85105469 11.4528125 8.41695313 12 9 C10.68 9.99 9.36 10.98 8 12 C7.731875 11.38125 7.46375 10.7625 7.1875 10.125 C6.04443152 7.7004767 6.04443152 7.7004767 3 6 C3 5.34 3 4.68 3 4 C2.01 3.67 1.02 3.34 0 3 C0 2.01 0 1.02 0 0 Z " fill="#766998" transform="translate(169,280)"/>
<path d="M0 0 C0.4140625 2.06640625 0.4140625 2.06640625 0.625 4.5625 C0.69976562 5.38878906 0.77453125 6.21507812 0.8515625 7.06640625 C0.90054688 7.70449219 0.94953125 8.34257812 1 9 C-2.21043882 7.61811547 -4.04936365 6.07578097 -6.25 3.375 C-6.77078125 2.74335938 -7.2915625 2.11171875 -7.828125 1.4609375 C-8.21484375 0.97882813 -8.6015625 0.49671875 -9 0 C-2.25 -1.125 -2.25 -1.125 0 0 Z " fill="#8A79B2" transform="translate(251,241)"/>
<path d="M0 0 C0.639375 0.2475 1.27875 0.495 1.9375 0.75 C2.2675 1.74 2.5975 2.73 2.9375 3.75 C1.9475 5.235 1.9475 5.235 0.9375 6.75 C0.9375 5.76 0.9375 4.77 0.9375 3.75 C0.2775 3.75 -0.3825 3.75 -1.0625 3.75 C-1.0625 5.4 -1.0625 7.05 -1.0625 8.75 C-1.7225 8.75 -2.3825 8.75 -3.0625 8.75 C-3.0625 8.09 -3.0625 7.43 -3.0625 6.75 C-3.7225 6.75 -4.3825 6.75 -5.0625 6.75 C-5.0625 6.09 -5.0625 5.43 -5.0625 4.75 C-5.7225 4.75 -6.3825 4.75 -7.0625 4.75 C-7.0625 4.09 -7.0625 3.43 -7.0625 2.75 C-7.7225 2.42 -8.3825 2.09 -9.0625 1.75 C-7.7425 1.42 -6.4225 1.09 -5.0625 0.75 C-5.0625 1.41 -5.0625 2.07 -5.0625 2.75 C-4.0725 3.08 -3.0825 3.41 -2.0625 3.75 C-2.0625 3.09 -2.0625 2.43 -2.0625 1.75 C-2.7225 1.42 -3.3825 1.09 -4.0625 0.75 C-2.0625 -0.25 -2.0625 -0.25 0 0 Z " fill="#AB95E3" transform="translate(236.0625,225.25)"/>
<path d="M0 0 C0.66 0 1.32 0 2 0 C2.06058594 1.02480469 2.12117187 2.04960937 2.18359375 3.10546875 C2.26805026 4.46615695 2.35269567 5.82683343 2.4375 7.1875 C2.47681641 7.86103516 2.51613281 8.53457031 2.55664062 9.22851562 C2.78927565 12.89699102 3.17207011 16.41694206 4 20 C3.67 19.34 3.34 18.68 3 18 C2.34 18 1.68 18 1 18 C-0.83292414 11.59233959 -1.04559253 6.58723293 0 0 Z " fill="#A796D2" transform="translate(151,211)"/>
<path d="M0 0 C0.66 0 1.32 0 2 0 C2 0.99 2 1.98 2 3 C4.15811388 2.05270463 4.15811388 2.05270463 6 0 C6.66 0.99 7.32 1.98 8 3 C7.125 5.6875 7.125 5.6875 6 8 C6.99 8.33 7.98 8.66 9 9 C9 9.99 9 10.98 9 12 C4.86062408 8.69984002 1.41337795 5.82675589 -1 1 C-0.67 0.67 -0.34 0.34 0 0 Z " fill="#7061A7" transform="translate(129,416)"/>
<path d="M0 0 C0 0.66 0 1.32 0 2 C0.99 2.33 1.98 2.66 3 3 C2.34 5.31 1.68 7.62 1 10 C-1.31 8.02 -3.62 6.04 -6 4 C-2.25 0 -2.25 0 0 0 Z " fill="#9784C5" transform="translate(316,305)"/>
<path d="M0 0 C-0.3878678 2.48660455 -0.70962479 3.72345219 -2.55859375 5.484375 C-3.17863281 5.90203125 -3.79867187 6.3196875 -4.4375 6.75 C-5.05496094 7.17796875 -5.67242187 7.6059375 -6.30859375 8.046875 C-8 9 -8 9 -10 9 C-9.67 10.32 -9.34 11.64 -9 13 C-9.99 13.33 -10.98 13.66 -12 14 C-11.67 12.02 -11.34 10.04 -11 8 C-10.34 8 -9.68 8 -9 8 C-8.7525 7.236875 -8.505 6.47375 -8.25 5.6875 C-6.36807696 1.64136546 -4.50311555 0 0 0 Z " fill="#8A79AD" transform="translate(238,283)"/>
<path d="M0 0 C5.03163018 4.29785078 10.02718443 8.63425542 15 13 C14.01 13.495 14.01 13.495 13 14 C8.94575128 12.02766279 5.99831585 9.34098052 3 6 C3 5.34 3 4.68 3 4 C1.35 3.67 -0.3 3.34 -2 3 C-1 1 -1 1 0 0 Z " fill="#7568A2" transform="translate(199,403)"/>
<path d="M0 0 C1.32 0.66 2.64 1.32 4 2 C4 3.65 4 5.3 4 7 C3.34 7 2.68 7 2 7 C2 7.66 2 8.32 2 9 C0.68 8.67 -0.64 8.34 -2 8 C-2 8.99 -2 9.98 -2 11 C-2.66 11 -3.32 11 -4 11 C-2.7874262 7.27566618 -1.49140021 3.62197194 0 0 Z " fill="#8573B7" transform="translate(338,414)"/>
<path d="M0 0 C2 2 2 2 2 6 C1.01 6 0.02 6 -1 6 C-0.67 7.65 -0.34 9.3 0 11 C-0.99 11.495 -0.99 11.495 -2 12 C-2.33 12.99 -2.66 13.98 -3 15 C-2.01 14.67 -1.02 14.34 0 14 C-0.66 15.32 -1.32 16.64 -2 18 C-2.66 18 -3.32 18 -4 18 C-4.33 18.66 -4.66 19.32 -5 20 C-4.5830731 13.78922693 -3.38036789 8.75255574 -1 3 C-0.67 2.01 -0.34 1.02 0 0 Z " fill="#8376A7" transform="translate(188,105)"/>
<path d="M0 0 C4.21814817 3.9700218 7.61227103 8.30840284 11 13 C10.67 13.66 10.34 14.32 10 15 C7.525 14.01 7.525 14.01 5 13 C5 11.02 5 9.04 5 7 C4.01 7 3.02 7 2 7 C0 4 0 4 0 0 Z " fill="#8B7CA9" transform="translate(355,220)"/>
<path d="M0 0 C0.66 0.33 1.32 0.66 2 1 C2.6328125 3.06640625 2.6328125 3.06640625 3.125 5.5625 C3.29257813 6.38878906 3.46015625 7.21507812 3.6328125 8.06640625 C3.75398437 8.70449219 3.87515625 9.34257812 4 10 C2.02 9.01 0.04 8.02 -2 7 C-2 7.99 -2 8.98 -2 10 C-2.66 10 -3.32 10 -4 10 C-3.43454163 6.04179141 -2.19097652 3.3340947 0 0 Z " fill="#8274A0" transform="translate(164,176)"/>
<path d="M0 0 C0.33 1.32 0.66 2.64 1 4 C-0.07218201 5.01194706 -1.15826378 6.00918057 -2.25 7 C-3.15492188 7.8353125 -3.15492188 7.8353125 -4.078125 8.6875 C-6 10 -6 10 -10 10 C-10 9.34 -10 8.68 -10 8 C-8.38542921 6.56418526 -6.70780925 5.19855217 -5 3.875 C-4.071875 3.15054688 -3.14375 2.42609375 -2.1875 1.6796875 C-1.465625 1.12539063 -0.74375 0.57109375 0 0 Z " fill="#9485B1" transform="translate(243,36)"/>
<path d="M0 0 C-6.15034169 7.48291572 -6.15034169 7.48291572 -10 10 C-9.67 7.69 -9.34 5.38 -9 3 C-8.34 3 -7.68 3 -7 3 C-7 2.34 -7 1.68 -7 1 C-4.53721199 -0.231394 -2.7204945 -0.07159196 0 0 Z " fill="#6D6199" transform="translate(306,409)"/>
<path d="M0 0 C0.33 0.66 0.66 1.32 1 2 C1.99 1.67 2.98 1.34 4 1 C1.74645484 5.50709031 0.57716052 7.54396265 -4 10 C-4.66 10 -5.32 10 -6 10 C-4.6302836 6.00499382 -2.74277578 3.19990508 0 0 Z " fill="#9788BA" transform="translate(209,70)"/>
<path d="M0 0 C0.66 0.33 1.32 0.66 2 1 C1.57316761 2.58624235 1.13303842 4.1689098 0.6875 5.75 C0.44386719 6.63171875 0.20023437 7.5134375 -0.05078125 8.421875 C-1.02125331 11.05772505 -2.21005644 12.85407326 -4 15 C-4.51211281 8.59858988 -4.11888494 5.01989102 0 0 Z " fill="#8A7BB2" transform="translate(389,377)"/>
<path d="M0 0 C2.97 0.495 2.97 0.495 6 1 C5.34 2.98 4.68 4.96 4 7 C2.35 6.67 0.7 6.34 -1 6 C-1.33 4.68 -1.66 3.36 -2 2 C-1.34 2 -0.68 2 0 2 C0 1.34 0 0.68 0 0 Z " fill="#8975CB" transform="translate(167,445)"/>
<path d="M0 0 C0.33 0.99 0.66 1.98 1 3 C2.65 3 4.3 3 6 3 C6.103125 3.639375 6.20625 4.27875 6.3125 4.9375 C6.6528125 5.9584375 6.6528125 5.9584375 7 7 C7.99 7.33 8.98 7.66 10 8 C9.34 8 8.68 8 8 8 C8.33 9.32 8.66 10.64 9 12 C8.34 11.67 7.68 11.34 7 11 C7 10.34 7 9.68 7 9 C6.34 9 5.68 9 5 9 C5 8.34 5 7.68 5 7 C4.401875 6.7525 3.80375 6.505 3.1875 6.25 C0.71352479 4.83629988 -0.43370255 3.34944617 -2 1 C-1.34 0.67 -0.68 0.34 0 0 Z " fill="#7162A6" transform="translate(209,430)"/>
<path d="M0 0 C0.66 0.66 1.32 1.32 2 2 C1.61121812 5.01305957 0.73543126 6.39685311 -1 9 C-1.24107326 11.28648848 -1.24107326 11.28648848 -1.125 13.6875 C-1.10695312 14.49574219 -1.08890625 15.30398438 -1.0703125 16.13671875 C-1.04710937 16.75160156 -1.02390625 17.36648438 -1 18 C-1.99 18 -2.98 18 -4 18 C-4.21755666 12.5610835 -4.10428384 8.12919186 -2 3 C-1.34 3 -0.68 3 0 3 C0 2.01 0 1.02 0 0 Z " fill="#605782" transform="translate(227,357)"/>
<path d="M0 0 C0.66 0.33 1.32 0.66 2 1 C1.814375 1.61875 1.62875 2.2375 1.4375 2.875 C0.76313824 5.04160178 0.76313824 5.04160178 2 7 C1.01 7 0.02 7 -1 7 C-1.33 7.99 -1.66 8.98 -2 10 C-5.0625 11.1875 -5.0625 11.1875 -8 12 C-8 11.34 -8 10.68 -8 10 C-7.34 10 -6.68 10 -6 10 C-5.7525 9.46375 -5.505 8.9275 -5.25 8.375 C-3.70303025 5.43575748 -1.86985631 2.74245592 0 0 Z " fill="#7466A1" transform="translate(328,432)"/>
<path d="M0 0 C2.96404505 2.80804268 5.44499019 5.18315774 7 9 C7.66 9 8.32 9 9 9 C8.67 9.99 8.34 10.98 8 12 C7.34 11.67 6.68 11.34 6 11 C6 10.34 6 9.68 6 9 C4.35 8.67 2.7 8.34 1 8 C0.67 5.36 0.34 2.72 0 0 Z " fill="#9D8FBB" transform="translate(320,177)"/>
<path d="M0 0 C1.4540625 0.0309375 1.4540625 0.0309375 2.9375 0.0625 C1.6883258 3.52175163 0.26222205 6.20943203 -2.0625 9.0625 C-3.0525 8.7325 -4.0425 8.4025 -5.0625 8.0625 C-4.4025 8.0625 -3.7425 8.0625 -3.0625 8.0625 C-3.3409375 6.3609375 -3.3409375 6.3609375 -3.625 4.625 C-3.8415625 2.8615625 -3.8415625 2.8615625 -4.0625 1.0625 C-3.0625 0.0625 -3.0625 0.0625 0 0 Z " fill="#8776AE" transform="translate(204.0625,271.9375)"/>
<path d="M0 0 C0.66 0 1.32 0 2 0 C2.33 0.99 2.66 1.98 3 3 C3.66 3.66 4.32 4.32 5 5 C4.67 5.66 4.34 6.32 4 7 C3.01 7.33 2.02 7.66 1 8 C-0.20882096 10.00016466 -0.20882096 10.00016466 -1 12 C-1.02687279 10.18757948 -1.04633715 8.37504767 -1.0625 6.5625 C-1.07410156 5.55316406 -1.08570313 4.54382813 -1.09765625 3.50390625 C-1 1 -1 1 0 0 Z " fill="#BBA9E9" transform="translate(291,136)"/>
<path d="M0 0 C0.33 0.66 0.66 1.32 1 2 C1.66 2.33 2.32 2.66 3 3 C1.76055724 3.86941494 0.50792941 4.72005457 -0.75 5.5625 C-1.44609375 6.03816406 -2.1421875 6.51382813 -2.859375 7.00390625 C-5 8 -5 8 -7.265625 7.65234375 C-7.83796875 7.43707031 -8.4103125 7.22179688 -9 7 C-8.34 7 -7.68 7 -7 7 C-7 6.34 -7 5.68 -7 5 C-5.46875 3.7109375 -5.46875 3.7109375 -3.5 2.375 C-2.8503125 1.92898437 -2.200625 1.48296875 -1.53125 1.0234375 C-0.77328125 0.51683594 -0.77328125 0.51683594 0 0 Z " fill="#9083AF" transform="translate(253,28)"/>
<path d="M0 0 C1.98 0.99 1.98 0.99 4 2 C4 2.66 4 3.32 4 4 C5.65 4.33 7.3 4.66 9 5 C9 5.66 9 6.32 9 7 C9.66 7.33 10.32 7.66 11 8 C10.01 8.495 10.01 8.495 9 9 C2.51768489 5.9903537 2.51768489 5.9903537 0.5625 2.25 C0.376875 1.5075 0.19125 0.765 0 0 Z " fill="#8477A9" transform="translate(229,310)"/>
<path d="M0 0 C2.94721162 2.74395564 5.19168608 5.38337216 7 9 C6.67 9.66 6.34 10.32 6 11 C5.01 11.33 4.02 11.66 3 12 C3 11.34 3 10.68 3 10 C2.34 9.34 1.68 8.68 1 8 C1.33 7.34 1.66 6.68 2 6 C1.34 6 0.68 6 0 6 C0 4.02 0 2.04 0 0 Z " fill="#8B7EAF" transform="translate(370,241)"/>
<path d="M0 0 C0.99 0 1.98 0 3 0 C5.21538462 5.41538462 5.21538462 5.41538462 4.125 8.375 C3.75375 8.91125 3.3825 9.4475 3 10 C2.01 10 1.02 10 0 10 C0 8.68 0 7.36 0 6 C-0.185625 5.113125 -0.37125 4.22625 -0.5625 3.3125 C-0.706875 2.549375 -0.85125 1.78625 -1 1 C-0.67 0.67 -0.34 0.34 0 0 Z " fill="#AA96E4" transform="translate(130,238)"/>
<path d="M0 0 C-0.66 0 -1.32 0 -2 0 C-2.4021875 0.86625 -2.4021875 0.86625 -2.8125 1.75 C-4.01719859 4.0325868 -5.40798115 5.9737942 -7 8 C-7.66 7.67 -8.32 7.34 -9 7 C-9 5.35 -9 3.7 -9 2 C-3.375 -1.125 -3.375 -1.125 0 0 Z " fill="#8072AC" transform="translate(370,418)"/>
<path d="M0 0 C2.29946417 3.44919626 2.80769035 6.1381022 3.625 10.1875 C3.88539063 11.45980469 4.14578125 12.73210937 4.4140625 14.04296875 C4.60742188 15.01878906 4.80078125 15.99460937 5 17 C2 16 2 16 0.3125 12.9375 C-0.120625 11.968125 -0.55375 10.99875 -1 10 C-0.34 10 0.32 10 1 10 C0.67 6.7 0.34 3.4 0 0 Z " fill="#685997" transform="translate(148,395)"/>
<path d="M0 0 C1.32 0.33 2.64 0.66 4 1 C4 1.99 4 2.98 4 4 C4.66 4.33 5.32 4.66 6 5 C5.67 6.65 5.34 8.3 5 10 C4.67 10 4.34 10 4 10 C3.67 11.65 3.34 13.3 3 15 C2.67 15 2.34 15 2 15 C1.34 10.05 0.68 5.1 0 0 Z " fill="#8674B3" transform="translate(343,360)"/>
<path d="M0 0 C0.61875 0.268125 1.2375 0.53625 1.875 0.8125 C2.205 1.8025 2.535 2.7925 2.875 3.8125 C1.225 3.8125 -0.425 3.8125 -2.125 3.8125 C-2.125 4.4725 -2.125 5.1325 -2.125 5.8125 C-3.775 6.1425 -5.425 6.4725 -7.125 6.8125 C-4.65392562 -0.4106405 -4.65392562 -0.4106405 0 0 Z " fill="#9986DB" transform="translate(306.125,458.1875)"/>
<path d="M0 0 C0.33 2.31 0.66 4.62 1 7 C0.01 7.33 -0.98 7.66 -2 8 C-2.66 8.66 -3.32 9.32 -4 10 C-4.75 7.25 -4.75 7.25 -5 4 C-1.84210526 0 -1.84210526 0 0 0 Z " fill="#8674BA" transform="translate(263,431)"/>
<path d="M0 0 C0.33 0 0.66 0 1 0 C1 2.97 1 5.94 1 9 C1.66 9.33 2.32 9.66 3 10 C3 11.32 3 12.64 3 14 C1.02 14.99 1.02 14.99 -1 16 C-0.67 10.72 -0.34 5.44 0 0 Z " fill="#8474B5" transform="translate(346,375)"/>
<path d="M0 0 C0.66 0 1.32 0 2 0 C2.66 1.32 3.32 2.64 4 4 C3.54625 4.37125 3.0925 4.7425 2.625 5.125 C0.52970606 7.54264685 -0.12013285 9.95430602 -1 13 C-1.66 13 -2.32 13 -3 13 C-2.52060632 8.28596212 -2.03165952 4.33420699 0 0 Z " fill="#7E6FAA" transform="translate(106,282)"/>
<path d="M0 0 C0.99 0 1.98 0 3 0 C6.62870159 8.261959 6.62870159 8.261959 5 13 C3.09610151 10.14415227 2.30537823 8.0688238 1.375 4.8125 C0.98441406 3.46091797 0.98441406 3.46091797 0.5859375 2.08203125 C0.39257812 1.39496094 0.19921875 0.70789063 0 0 Z " fill="#8273A6" transform="translate(338,345)"/>
<path d="M0 0 C0.66 0 1.32 0 2 0 C0.6062718 4.43458973 -1.60582235 6.87378374 -5 10 C-6.125 6.25 -6.125 6.25 -5 4 C-3.68 4 -2.36 4 -1 4 C-0.67 2.68 -0.34 1.36 0 0 Z " fill="#8274AF" transform="translate(375,406)"/>
<path d="M0 0 C0.66 2.31 1.32 4.62 2 7 C1.01 7.495 1.01 7.495 0 8 C0 7.34 0 6.68 0 6 C-0.66 6 -1.32 6 -2 6 C-3.625 4.625 -3.625 4.625 -5 3 C-5 2.34 -5 1.68 -5 1 C-5.66 0.67 -6.32 0.34 -7 0 C-4.3333581 -1.33332095 -2.83319697 -0.67102033 0 0 Z " fill="#8475AA" transform="translate(225,218)"/>
<path d="M0 0 C2.475 0.495 2.475 0.495 5 1 C4.34 4.3 3.68 7.6 3 11 C2.34 9.68 1.68 8.36 1 7 C0.67 6.67 0.34 6.34 0 6 C-0.04080783 4.00041636 -0.04254356 1.99954746 0 0 Z " fill="#8B7EAE" transform="translate(184,166)"/>
<path d="M0 0 C0.66 0 1.32 0 2 0 C1.34 2.64 0.68 5.28 0 8 C-2.31 8 -4.62 8 -7 8 C-5.625 6 -5.625 6 -4 4 C-3.34 4 -2.68 4 -2 4 C-2 3.34 -2 2.68 -2 2 C-1.34 2 -0.68 2 0 2 C0 1.34 0 0.68 0 0 Z " fill="#7567A7" transform="translate(317,445)"/>
<path d="M0 0 C2.15377564 2.62198774 3.40072174 4.64404172 4 8 C2.35 8.33 0.7 8.66 -1 9 C-1.33 6.69 -1.66 4.38 -2 2 C-1.34 2 -0.68 2 0 2 C0 1.34 0 0.68 0 0 Z " fill="#7364A8" transform="translate(155,417)"/>
<path d="M0 0 C0.33 0 0.66 0 1 0 C1 2.31 1 4.62 1 7 C-1.35171131 6.40138258 -3.6859378 5.73075648 -6 5 C-6.33 4.34 -6.66 3.68 -7 3 C-2.25 1.875 -2.25 1.875 0 3 C0 2.01 0 1.02 0 0 Z " fill="#9F8DCF" transform="translate(267,255)"/>
<path d="M0 0 C0.33 0.99 0.66 1.98 1 3 C1.66 3.33 2.32 3.66 3 4 C3 4.99 3 5.98 3 7 C1.35 7.33 -0.3 7.66 -2 8 C-1.125 1.125 -1.125 1.125 0 0 Z " fill="#9784C5" transform="translate(128,239)"/>
<path d="M0 0 C0 0.66 0 1.32 0 2 C-1.4317616 2.69937202 -2.87067032 3.38412718 -4.3125 4.0625 C-5.51326172 4.63677734 -5.51326172 4.63677734 -6.73828125 5.22265625 C-9 6 -9 6 -12 5 C-12.33 4.34 -12.66 3.68 -13 3 C-7.25 1.875 -7.25 1.875 -5 3 C-5 2.34 -5 1.68 -5 1 C-3 0 -3 0 0 0 Z " fill="#7566A3" transform="translate(314,459)"/>
<path d="M0 0 C0.66 0.66 1.32 1.32 2 2 C1.67 2.99 1.34 3.98 1 5 C-1.64 5.33 -4.28 5.66 -7 6 C-2.25 1.125 -2.25 1.125 0 0 Z " fill="#8675B5" transform="translate(235,351)"/>
<path d="M0 0 C4.2742558 1.5830577 6.26531794 4.50568404 9 8 C8.01 8 7.02 8 6 8 C6 7.34 6 6.68 6 6 C4.35 6 2.7 6 1 6 C0.67 4.02 0.34 2.04 0 0 Z " fill="#8879B0" transform="translate(159,270)"/>
<path d="M0 0 C1.875 0.25 1.875 0.25 4 1 C5.25 3.0625 5.25 3.0625 6 5 C5.01 5.495 5.01 5.495 4 6 C3.67 6.66 3.34 7.32 3 8 C0 3.375 0 3.375 0 0 Z " fill="#8F7FBB" transform="translate(330,329)"/>
<path d="M0 0 C0.598125 0.226875 1.19625 0.45375 1.8125 0.6875 C1.125 2.625 1.125 2.625 -0.1875 4.6875 C-2.8125 5.4375 -2.8125 5.4375 -5.1875 5.6875 C-5.1875 2.6875 -5.1875 2.6875 -3.9375 0.9375 C-2.1875 -0.3125 -2.1875 -0.3125 0 0 Z " fill="#A28CDF" transform="translate(188.1875,337.3125)"/>
<path d="M0 0 C0.66 0.33 1.32 0.66 2 1 C2.375 3.1875 2.375 3.1875 2 6 C0.16038352 7.99022836 -1.79186148 9.38989899 -4 11 C-4 9.68 -4 8.36 -4 7 C-3.01 6.34 -2.02 5.68 -1 5 C-0.27034634 2.43717258 -0.27034634 2.43717258 0 0 Z " fill="#6A5E8D" transform="translate(215,321)"/>
<path d="M0 0 C3.58790575 0.29899215 4.78166776 0.76986601 7.3125 3.4375 C9 6 9 6 9 8 C8.34 8 7.68 8 7 8 C7 7.34 7 6.68 7 6 C6.01 5.67 5.02 5.34 4 5 C4 4.34 4 3.68 4 3 C3.34 3 2.68 3 2 3 C2 2.34 2 1.68 2 1 C1.34 0.67 0.68 0.34 0 0 Z " fill="#746A95" transform="translate(190,272)"/>
<path d="M0 0 C0.99 0 1.98 0 3 0 C2.8125 2.3125 2.8125 2.3125 2 5 C-0.5625 6.8125 -0.5625 6.8125 -3 8 C-1.125 2.25 -1.125 2.25 0 0 Z " fill="#8173AC" transform="translate(117,257)"/>
<path d="M0 0 C0.99 0.495 0.99 0.495 2 1 C2.73075648 3.3140622 3.40138258 5.64828869 4 8 C4.99 8 5.98 8 7 8 C6.67 9.32 6.34 10.64 6 12 C5.01 11.67 4.02 11.34 3 11 C2.05078125 9.00390625 2.05078125 9.00390625 1.3125 6.5625 C1.06113281 5.75941406 0.80976563 4.95632812 0.55078125 4.12890625 C0 2 0 2 0 0 Z " fill="#B8A5E9" transform="translate(353,219)"/>
<path d="M0 0 C2 1 2 1 3.125 3.375 C4 6 4 6 4 9 C2.68 9 1.36 9 0 9 C0 6.03 0 3.06 0 0 Z " fill="#968AAD" transform="translate(289,126)"/>
<path d="M0 0 C1.98 0 3.96 0 6 0 C6.99 1.98 7.98 3.96 9 6 C5.06326356 4.68775452 2.77280706 3.08089673 0 0 Z " fill="#6C5FA3" transform="translate(157,444)"/>
<path d="M0 0 C0.99 0 1.98 0 3 0 C3.07654536 4.51617599 3.10228696 8.59085217 2 13 C1.67 13 1.34 13 1 13 C0.67 8.71 0.34 4.42 0 0 Z " fill="#6C5E9C" transform="translate(99,346)"/>
<path d="M0 0 C0.99 0.66 1.98 1.32 3 2 C3 2.66 3 3.32 3 4 C3.66 4 4.32 4 5 4 C5.33 5.65 5.66 7.3 6 9 C4.85073734 8.04578192 3.70569459 7.08647955 2.5625 6.125 C1.92441406 5.59132813 1.28632813 5.05765625 0.62890625 4.5078125 C-1 3 -1 3 -2 1 C-1.34 0.67 -0.68 0.34 0 0 Z " fill="#736395" transform="translate(294,290)"/>
<path d="M0 0 C0.33 0 0.66 0 1 0 C1.33 1.65 1.66 3.3 2 5 C3.32 5 4.64 5 6 5 C6 5.66 6 6.32 6 7 C4.68 7.33 3.36 7.66 2 8 C0.02 5.69 -1.96 3.38 -4 1 C-2.68 1.33 -1.36 1.66 0 2 C0 1.34 0 0.68 0 0 Z " fill="#655996" transform="translate(142,427)"/>
<path d="M0 0 C0.33 0.99 0.66 1.98 1 3 C1.66 3 2.32 3 3 3 C3 3.99 3 4.98 3 6 C3.99 6 4.98 6 6 6 C6 7.65 6 9.3 6 11 C2.60582235 7.87378374 0.3937282 5.43458973 -1 1 C-0.67 0.67 -0.34 0.34 0 0 Z " fill="#635691" transform="translate(122,406)"/>
<path d="M0 0 C0.66 0 1.32 0 2 0 C2.6875 1.6875 2.6875 1.6875 3 4 C1.5625 6.75 1.5625 6.75 0 9 C-0.33 8.34 -0.66 7.68 -1 7 C-1.66 6.67 -2.32 6.34 -3 6 C-2.34 6 -1.68 6 -1 6 C-0.67 4.02 -0.34 2.04 0 0 Z " fill="#8172AC" transform="translate(380,394)"/>
<path d="M0 0 C0.66 0.33 1.32 0.66 2 1 C1.34 2.32 0.68 3.64 0 5 C0.66 5 1.32 5 2 5 C2 5.99 2 6.98 2 8 C-0.62187494 6.95125002 -1.79371361 6.35068687 -3.25 3.875 C-3.4975 3.25625 -3.745 2.6375 -4 2 C-2.125 0.9375 -2.125 0.9375 0 0 Z " fill="#7262A0" transform="translate(231,380)"/>
<path d="M0 0 C5.875 3.75 5.875 3.75 7 6 C5.35 6.33 3.7 6.66 2 7 C2 6.34 2 5.68 2 5 C1.34 5 0.68 5 0 5 C0 3.35 0 1.7 0 0 Z " fill="#796CA1" transform="translate(284,317)"/>
<path d="M0 0 C0.66 0.33 1.32 0.66 2 1 C-0.75 5.875 -0.75 5.875 -3 7 C-4.13350534 9.01669827 -4.13350534 9.01669827 -5 11 C-4.50769231 4.6 -4.50769231 4.6 -1.9375 1.5625 C-0.9784375 0.7890625 -0.9784375 0.7890625 0 0 Z " fill="#716691" transform="translate(280,317)"/>
<path d="M0 0 C0.99 0.33 1.98 0.66 3 1 C3.33 3.31 3.66 5.62 4 8 C2.35 6.35 0.7 4.7 -1 3 C-0.67 2.01 -0.34 1.02 0 0 Z " fill="#8A7AB0" transform="translate(320,315)"/>
<path d="M0 0 C1.32 0.33 2.64 0.66 4 1 C3.67 2.65 3.34 4.3 3 6 C1.02 5.34 -0.96 4.68 -3 4 C-2.67 3.34 -2.34 2.68 -2 2 C-1.34 2 -0.68 2 0 2 C0 1.34 0 0.68 0 0 Z " fill="#A38DDE" transform="translate(172,304)"/>
<path d="M0 0 C1.98 0.99 3.96 1.98 6 3 C6 4.65 6 6.3 6 8 C1.3125 4.38671875 1.3125 4.38671875 0 3 C0 2.01 0 1.02 0 0 Z " fill="#8372A9" transform="translate(169,249)"/>
<path d="M0 0 C0.33 0.66 0.66 1.32 1 2 C1.66 2 2.32 2 3 2 C4.38232443 3.62626404 5.71937515 5.2925002 7 7 C6.67 7.66 6.34 8.32 6 9 C4.0625 8.25 4.0625 8.25 2 7 C1.25 4.875 1.25 4.875 1 3 C0.34 3 -0.32 3 -1 3 C-0.67 2.01 -0.34 1.02 0 0 Z " fill="#9182AA" transform="translate(331,190)"/>
<path d="M0 0 C1.32 1.32 2.64 2.64 4 4 C3.67 4.66 3.34 5.32 3 6 C2.01 6 1.02 6 0 6 C0 4.02 0 2.04 0 0 Z M-4 6 C-3.01 6.33 -2.02 6.66 -1 7 C-1.33 7.66 -1.66 8.32 -2 9 C-2.66 8.67 -3.32 8.34 -4 8 C-4 7.34 -4 6.68 -4 6 Z " fill="#BBA8E7" transform="translate(300,150)"/>
<path d="M0 0 C0 0.33 0 0.66 0 1 C-3.3 1.66 -6.6 2.32 -10 3 C-9 0 -9 0 -7.25 -1.3125 C-4.22513532 -2.23676421 -2.76271632 -1.38135816 0 0 Z " fill="#423F54" transform="translate(294,468)"/>
<path d="M0 0 C1.4606285 2.64738916 2 3.89448334 2 7 C1.01 7.33 0.02 7.66 -1 8 C-1 7.34 -1 6.68 -1 6 C-1.66 5.67 -2.32 5.34 -3 5 C-2.01 3.35 -1.02 1.7 0 0 Z " fill="#8270BA" transform="translate(333,425)"/>
<path d="M0 0 C3 3.75 3 3.75 3 6 C1.02 6.99 -0.96 7.98 -3 9 C-2.01 6.03 -1.02 3.06 0 0 Z " fill="#7F70A9" transform="translate(113,265)"/>
<path d="M0 0 C1.60080151 4.00200378 0.29279692 7.04556236 -1 11 C-1.99 11 -2.98 11 -4 11 C-3.67 10.01 -3.34 9.02 -3 8 C-2.34 8 -1.68 8 -1 8 C-1.33 6.35 -1.66 4.7 -2 3 C-1.34 3 -0.68 3 0 3 C0 2.01 0 1.02 0 0 Z " fill="#BEACEC" transform="translate(269,34)"/>
<path d="M0 0 C0.33 0.66 0.66 1.32 1 2 C0.34 2 -0.32 2 -1 2 C-0.67 3.32 -0.34 4.64 0 6 C-1.98 6 -3.96 6 -6 6 C-4.75453595 2.26360784 -3.36595047 1.81243487 0 0 Z " fill="#7A70A7" transform="translate(296,462)"/>
<path d="M0 0 C4 0 4 0 7 1 C6.34 2.32 5.68 3.64 5 5 C4.34 5 3.68 5 3 5 C3 4.34 3 3.68 3 3 C2.01 2.67 1.02 2.34 0 2 C0 1.34 0 0.68 0 0 Z " fill="#8273B2" transform="translate(354,425)"/>
<path d="M0 0 C-0.33 1.65 -0.66 3.3 -1 5 C-2.32 4.34 -3.64 3.68 -5 3 C-5 2.34 -5 1.68 -5 1 C-5.66 0.67 -6.32 0.34 -7 0 C-4.3333581 -1.33332095 -2.83319697 -0.67102033 0 0 Z " fill="#7465A5" transform="translate(199,417)"/>
<path d="M0 0 C0.66 0.33 1.32 0.66 2 1 C2.40729228 3.32156597 2.74438677 5.6568787 3 8 C2.01 7.67 1.02 7.34 0 7 C-0.38133299 5.0085944 -0.71325582 3.00720923 -1 1 C-0.67 0.67 -0.34 0.34 0 0 Z " fill="#8172B4" transform="translate(181,400)"/>
<path d="M0 0 C0.66 0.33 1.32 0.66 2 1 C1.67 2.65 1.34 4.3 1 6 C-0.98 6 -2.96 6 -5 6 C-3.625 4 -3.625 4 -2 2 C-1.34 2 -0.68 2 0 2 C0 1.34 0 0.68 0 0 Z " fill="#7F70A5" transform="translate(205,317)"/>
<path d="M0 0 C0.66 0 1.32 0 2 0 C5 5.75 5 5.75 5 8 C4.01 7.67 3.02 7.34 2 7 C2 5.68 2 4.36 2 3 C0.68 3.33 -0.64 3.66 -2 4 C-1.34 2.68 -0.68 1.36 0 0 Z " fill="#796F98" transform="translate(131,235)"/>
<path d="M0 0 C0 0.66 0 1.32 0 2 C0.66 2.66 1.32 3.32 2 4 C4 6 4 6 4 8 C3.34 8 2.68 8 2 8 C2 7.34 2 6.68 2 6 C1.34 6 0.68 6 0 6 C0 5.34 0 4.68 0 4 C-0.66 4 -1.32 4 -2 4 C-2 3.34 -2 2.68 -2 2 C-2.66 1.67 -3.32 1.34 -4 1 C-2 0 -2 0 0 0 Z " fill="#776B92" transform="translate(231,226)"/>
<path d="M0 0 C4.875 4.625 4.875 4.625 6 8 C5.01 8 4.02 8 3 8 C0.19744677 5.0936485 0 4.21174952 0 0 Z " fill="#7D7199" transform="translate(339,199)"/>
<path d="M0 0 C3.08089673 2.77280706 4.68775452 5.06326356 6 9 C3.5625 7.875 3.5625 7.875 1 6 C0.1875 2.8125 0.1875 2.8125 0 0 Z " fill="#726891" transform="translate(172,196)"/>
<path d="M0 0 C3.26954202 0.56371414 4.82575883 1.49962266 7 4 C6.34 4.66 5.68 5.32 5 6 C2.875 5.625 2.875 5.625 1 5 C1.66 4.34 2.32 3.68 3 3 C2.01 2.67 1.02 2.34 0 2 C0 1.34 0 0.68 0 0 Z " fill="#695E91" transform="translate(187,457)"/>
<path d="M0 0 C0.33 0.66 0.66 1.32 1 2 C1.66 2.33 2.32 2.66 3 3 C1.68 3.33 0.36 3.66 -1 4 C-1 4.66 -1 5.32 -1 6 C-2.32 5.67 -3.64 5.34 -5 5 C-3.35 3.35 -1.7 1.7 0 0 Z " fill="#7C6AAC" transform="translate(268,425)"/>
<path d="M0 0 C0.185625 0.9590625 0.185625 0.9590625 0.375 1.9375 C0.684375 2.9584375 0.684375 2.9584375 1 4 C1.66 4.33 2.32 4.66 3 5 C1.68 5.99 0.36 6.98 -1 8 C-1.93065133 5.39417629 -2.14917407 4.35801776 -1.0625 1.75 C-0.711875 1.1725 -0.36125 0.595 0 0 Z " fill="#8471B9" transform="translate(203,333)"/>
<path d="M0 0 C1.98 0.99 1.98 0.99 4 2 C4 2.99 4 3.98 4 5 C4.99 5.33 5.98 5.66 7 6 C6.34 6.66 5.68 7.32 5 8 C2.5 5.6875 2.5 5.6875 0 3 C0 2.01 0 1.02 0 0 Z " fill="#897CB0" transform="translate(276,326)"/>
<path d="M0 0 C2 1 2 1 3.1875 3.8125 C3.96421451 6.85961076 4.10096399 8.13749363 3 11 C3 10.01 3 9.02 3 8 C2.34 8 1.68 8 1 8 C-0.35439668 5.29120665 -0.06501451 2.99066732 0 0 Z " fill="#7E729E" transform="translate(390,280)"/>
<path d="M0 0 C0.66 0.66 1.32 1.32 2 2 C2.66 1.67 3.32 1.34 4 1 C4.33 3.31 4.66 5.62 5 8 C4.01 7.34 3.02 6.68 2 6 C2 5.34 2 4.68 2 4 C1.34 4 0.68 4 0 4 C0 2.68 0 1.36 0 0 Z " fill="#8678A9" transform="translate(201,198)"/>
<path d="M0 0 C1.65 0.33 3.3 0.66 5 1 C4.67 1.66 4.34 2.32 4 3 C4 3.99 4 4.98 4 6 C3.01 6 2.02 6 1 6 C1 5.34 1 4.68 1 4 C0.34 4 -0.32 4 -1 4 C-0.67 2.68 -0.34 1.36 0 0 Z " fill="#B7A2EA" transform="translate(321,185)"/>
<path d="M0 0 C0.66 0 1.32 0 2 0 C2 2.97 2 5.94 2 9 C1.34 8.01 0.68 7.02 0 6 C-0.66 6 -1.32 6 -2 6 C-1.34 4.02 -0.68 2.04 0 0 Z " fill="#C4B1EF" transform="translate(270,21)"/>
<path d="M0 0 C1.2065625 0.0309375 1.2065625 0.0309375 2.4375 0.0625 C0.08472731 2.78676311 -2.18746331 3.8766763 -5.5625 5.0625 C-3.15007962 0.07683121 -3.15007962 0.07683121 0 0 Z " fill="#776A9D" transform="translate(329.5625,449.9375)"/>
<path d="M0 0 C0.103125 0.639375 0.20625 1.27875 0.3125 1.9375 C0.539375 2.618125 0.76625 3.29875 1 4 C1.99 4.33 2.98 4.66 4 5 C3.67 6.65 3.34 8.3 3 10 C3.66 10.33 4.32 10.66 5 11 C4.01 11 3.02 11 2 11 C0.57741188 7.17679443 -0.24042276 4.08718695 0 0 Z " fill="#6D5E9B" transform="translate(104,369)"/>
<path d="M0 0 C1.32 0 2.64 0 4 0 C3.34 1.65 2.68 3.3 2 5 C1.01 5 0.02 5 -1 5 C-1 2 -1 2 0 0 Z " fill="#8C79B4" transform="translate(207,266)"/>
<path d="M0 0 C0.99 0 1.98 0 3 0 C3 2.31 3 4.62 3 7 C1.68 6.34 0.36 5.68 -1 5 C-0.67 3.35 -0.34 1.7 0 0 Z " fill="#B09BE9" transform="translate(169,196)"/>
<path d="M0 0 C1.43088528 2.86177057 0.59991697 4.93375773 0 8 C-0.66 8 -1.32 8 -2 8 C-2 8.66 -2 9.32 -2 10 C-2.66 9.67 -3.32 9.34 -4 9 C-3.52418802 7.68628013 -3.04424851 6.37405454 -2.5625 5.0625 C-2.29566406 4.33160156 -2.02882812 3.60070312 -1.75390625 2.84765625 C-1 1 -1 1 0 0 Z " fill="#8B7FA8" transform="translate(193,95)"/>
<path d="M0 0 C0.66 1.32 1.32 2.64 2 4 C-0.375 5.5625 -0.375 5.5625 -3 7 C-3.66 6.67 -4.32 6.34 -5 6 C-4.67 5.34 -4.34 4.68 -4 4 C-3.34 4 -2.68 4 -2 4 C-1.34 2.68 -0.68 1.36 0 0 Z " fill="#887AA5" transform="translate(215,63)"/>
<path d="M0 0 C1.98 0.495 1.98 0.495 4 1 C3.34 2.32 2.68 3.64 2 5 C1.01 5 0.02 5 -1 5 C-0.67 3.35 -0.34 1.7 0 0 Z " fill="#907DC4" transform="translate(349,432)"/>
<path d="M0 0 C1.00000429 4.00001715 0.80688405 6.05523353 0 10 C-0.99 10.33 -1.98 10.66 -3 11 C-2.01 7.37 -1.02 3.74 0 0 Z " fill="#665A8E" transform="translate(342,403)"/>
<path d="M0 0 C0.66 0.99 1.32 1.98 2 3 C1.34 3 0.68 3 0 3 C0.33 5.31 0.66 7.62 1 10 C0.01 10 -0.98 10 -2 10 C-2.17942163 6.05272412 -2.09350689 3.4019487 0 0 Z " fill="#7D6CAE" transform="translate(254,373)"/>
<path d="M0 0 C0.66 0.66 1.32 1.32 2 2 C1.61121812 5.01305957 0.73543126 6.39685311 -1 9 C-1.66 9 -2.32 9 -3 9 C-2.67 7.02 -2.34 5.04 -2 3 C-1.34 3 -0.68 3 0 3 C0 2.01 0 1.02 0 0 Z " fill="#75679B" transform="translate(227,357)"/>
<path d="M0 0 C0.99 0.33 1.98 0.66 3 1 C0.03 3.475 0.03 3.475 -3 6 C-3.33 5.01 -3.66 4.02 -4 3 C-3.34 3 -2.68 3 -2 3 C-2 2.34 -2 1.68 -2 1 C-1.34 0.67 -0.68 0.34 0 0 Z " fill="#6F6299" transform="translate(199,341)"/>
<path d="M0 0 C0.99 0.495 0.99 0.495 2 1 C2 1.66 2 2.32 2 3 C3.32 3.66 4.64 4.32 6 5 C2.25 6.125 2.25 6.125 0 5 C0 3.35 0 1.7 0 0 Z " fill="#756896" transform="translate(304,335)"/>
<path d="M0 0 C0.93423645 3.01031744 1.04449911 3.86650268 0 7 C-1.32 6.34 -2.64 5.68 -4 5 C-4 4.34 -4 3.68 -4 3 C-2 1.375 -2 1.375 0 0 Z " fill="#8574B3" transform="translate(190,332)"/>
<path d="M0 0 C1.98 1.65 3.96 3.3 6 5 C4.1875 5.625 4.1875 5.625 2 6 C1.01 5.34 0.02 4.68 -1 4 C-0.67 2.68 -0.34 1.36 0 0 Z " fill="#8174A2" transform="translate(189,218)"/>
<path d="M0 0 C1.65 1.65 3.3 3.3 5 5 C4.01 5.495 4.01 5.495 3 6 C3 6.66 3 7.32 3 8 C2.34 7.67 1.68 7.34 1 7 C0.59270772 4.67843403 0.25561323 2.3431213 0 0 Z " fill="#9487B3" transform="translate(320,177)"/>
<path d="M0 0 C-1.32 1.32 -2.64 2.64 -4 4 C-4.66 3.67 -5.32 3.34 -6 3 C-6 2.01 -6 1.02 -6 0 C-3.50907189 -1.24546405 -2.58919267 -0.7767578 0 0 Z " fill="#A798C8" transform="translate(272,20)"/>
<path d="M0 0 C0.99 0.495 0.99 0.495 2 1 C1.67 1.66 1.34 2.32 1 3 C2.98 3.495 2.98 3.495 5 4 C4.67 4.66 4.34 5.32 4 6 C2.68 6 1.36 6 0 6 C0 4.02 0 2.04 0 0 Z " fill="#7F71BB" transform="translate(186,456)"/>
<path d="M0 0 C0.66 0.33 1.32 0.66 2 1 C1.375 2.9375 1.375 2.9375 0 5 C-3.125 5.75 -3.125 5.75 -6 6 C-4 4 -2 2 0 0 Z " fill="#635689" transform="translate(308,453)"/>
<path d="M0 0 C1.65 0.33 3.3 0.66 5 1 C2.61426621 2.89213369 0.92824652 4.02391783 -2 5 C-2 4.01 -2 3.02 -2 2 C-1.34 2 -0.68 2 0 2 C0 1.34 0 0.68 0 0 Z " fill="#7364A2" transform="translate(317,455)"/>
<path d="M0 0 C0.99 0.66 1.98 1.32 3 2 C3 2.66 3 3.32 3 4 C2.34 4 1.68 4 1 4 C0.67 4.99 0.34 5.98 0 7 C-0.66 5.68 -1.32 4.36 -2 3 C-1.34 2.67 -0.68 2.34 0 2 C0 1.34 0 0.68 0 0 Z " fill="#7766B9" transform="translate(167,437)"/>
<path d="M0 0 C1.32 0.33 2.64 0.66 4 1 C3.67 2.98 3.34 4.96 3 7 C1.5 5.75 1.5 5.75 0 4 C0 2.68 0 1.36 0 0 Z " fill="#9881DE" transform="translate(226,432)"/>
<path d="M0 0 C0.99 0.33 1.98 0.66 3 1 C2.67 2.65 2.34 4.3 2 6 C1.01 5.67 0.02 5.34 -1 5 C-1.33 4.01 -1.66 3.02 -2 2 C-1.34 1.34 -0.68 0.68 0 0 Z " fill="#8F7BCD" transform="translate(282,425)"/>
<path d="M0 0 C0.66 0 1.32 0 2 0 C1.3125 2.375 1.3125 2.375 0 5 C-2.625 6.3125 -2.625 6.3125 -5 7 C-5 5 -5 5 -3.625 3.375 C-2 2 -2 2 0 2 C0 1.34 0 0.68 0 0 Z " fill="#73689A" transform="translate(281,412)"/>
<path d="M0 0 C0.99 0.33 1.98 0.66 3 1 C2.6875 2.875 2.6875 2.875 2 5 C1.01 5.66 0.02 6.32 -1 7 C-0.67 4.69 -0.34 2.38 0 0 Z " fill="#7769A0" transform="translate(297,412)"/>
<path d="M0 0 C0.598125 0.20625 1.19625 0.4125 1.8125 0.625 C-2.9375 4.625 -2.9375 4.625 -5.1875 4.625 C-5.1875 3.635 -5.1875 2.645 -5.1875 1.625 C-2.1875 -0.375 -2.1875 -0.375 0 0 Z " fill="#605680" transform="translate(261.1875,384.375)"/>
<path d="M0 0 C1.32 0 2.64 0 4 0 C3.67 2.97 3.34 5.94 3 9 C2.67 9 2.34 9 2 9 C1.34 6.03 0.68 3.06 0 0 Z " fill="#736793" transform="translate(253,364)"/>
<path d="M0 0 C0.103125 0.639375 0.20625 1.27875 0.3125 1.9375 C0.539375 2.618125 0.76625 3.29875 1 4 C1.99 4.33 2.98 4.66 4 5 C3.34 6.32 2.68 7.64 2 9 C0.4375 6.1875 0.4375 6.1875 -1 3 C-0.67 2.01 -0.34 1.02 0 0 Z " fill="#716292" transform="translate(335,336)"/>
<path d="M0 0 C1.875 0.3125 1.875 0.3125 4 1 C4.66 1.99 5.32 2.98 6 4 C4.02 4 2.04 4 0 4 C0 2.68 0 1.36 0 0 Z " fill="#8578AE" transform="translate(209,317)"/>
<path d="M0 0 C1.65 1.65 3.3 3.3 5 5 C4.34 5 3.68 5 3 5 C2.67 5.66 2.34 6.32 2 7 C2 5.68 2 4.36 2 3 C0.68 2.67 -0.64 2.34 -2 2 C-1.34 1.34 -0.68 0.68 0 0 Z " fill="#7D6FA8" transform="translate(199,228)"/>
<path d="M0 0 C2.475 0.495 2.475 0.495 5 1 C5 1.99 5 2.98 5 4 C4.01 4.33 3.02 4.66 2 5 C1.34 3.35 0.68 1.7 0 0 Z " fill="#AF9BE2" transform="translate(172,203)"/>
<path d="M0 0 C1.98 0.495 1.98 0.495 4 1 C4 2.32 4 3.64 4 5 C2.35 4.67 0.7 4.34 -1 4 C-0.67 2.68 -0.34 1.36 0 0 Z " fill="#BBA6EB" transform="translate(316,176)"/>
<path d="M0 0 C0.66 0 1.32 0 2 0 C2 0.99 2 1.98 2 3 C1.34 3 0.68 3 0 3 C-0.66 4.65 -1.32 6.3 -2 8 C-2.6875 6.25 -2.6875 6.25 -3 4 C-1.6875 1.75 -1.6875 1.75 0 0 Z " fill="#BAA3F0" transform="translate(213,71)"/>
<path d="M0 0 C-0.33 2.31 -0.66 4.62 -1 7 C-1.33 6.01 -1.66 5.02 -2 4 C-4.00016466 2.79117904 -4.00016466 2.79117904 -6 2 C-2.25 0 -2.25 0 0 0 Z " fill="#726A80" transform="translate(276,16)"/>
</svg>
