<?xml version="1.0" encoding="UTF-8"?>
<svg version="1.1" xmlns="http://www.w3.org/2000/svg" width="447" height="559">
<path d="M0 0 C0.66 0 1.32 0 2 0 C2.4125 0.92039063 2.825 1.84078125 3.25 2.7890625 C10.77144344 19.35919083 19.97905587 34.76598082 30.80029297 49.40625 C34 53.78675695 34 53.78675695 34 56 C34.99 56.33 35.98 56.66 37 57 C38.18359375 58.35546875 38.18359375 58.35546875 39.4375 60.1875 C42.90161439 65.0128281 46.76619613 69.44288019 50.68530273 73.89916992 C53.00995645 76.56810541 55.10102526 79.15326646 57.0546875 82.1171875 C59.1030292 85.15268183 61.39510169 87.43451014 64 90 C65.84245496 92.17548561 67.5813746 94.42293152 69.3125 96.6875 C69.76689453 97.26822266 70.22128906 97.84894531 70.68945312 98.44726562 C74 102.7534657 74 102.7534657 74 105 C74.66 105 75.32 105 76 105 C77.30078823 106.74036494 78.51488895 108.54581891 79.6875 110.375 C82.1844286 114.22125626 84.69948561 118.02588733 87.375 121.75 C98.42030572 137.47509357 108.02741174 153.83930941 114.31640625 172.03564453 C114.98142704 173.94662929 115.67779774 175.84661372 116.375 177.74609375 C126.6188481 206.55691652 126.9027996 239.80219278 118 269 C117.77795898 269.73347656 117.55591797 270.46695312 117.32714844 271.22265625 C114.26131238 281.19189483 110.65723419 290.65250159 106 300 C105.34 300 104.68 300 104 300 C103.92394531 300.68191406 103.84789062 301.36382812 103.76953125 302.06640625 C102.77682416 305.85078709 100.86492135 308.7447245 98.6875 311.9375 C98.24672119 312.58992676 97.80594238 313.24235352 97.35180664 313.91455078 C84.951255 331.88441982 69.18249929 346.95950568 51 359 C50.071875 359.62519531 49.14375 360.25039063 48.1875 360.89453125 C34.30724139 369.87066787 11.87678979 383 -5 383 C-4.921875 381.2265625 -4.921875 381.2265625 -4 379 C-1.75455211 377.62511345 0.38159289 376.49176732 2.75 375.375 C14.94145762 369.24432196 29.33725314 359.49412029 37 348 C37.66 348 38.32 348 39 348 C39.24363281 347.46890625 39.48726563 346.9378125 39.73828125 346.390625 C41.01517819 343.97124132 42.48502759 341.74699494 44.02050781 339.4855957 C59.10347344 317.05362862 66.09589539 290.64698665 61.1484375 263.71484375 C59.01151915 254.11073795 55.19098996 245.29437273 50.76953125 236.5390625 C49.35994098 233.71988197 48.10901196 230.94599074 47 228 C46.34 228 45.68 228 45 228 C41 222.58823529 41 222.58823529 41 220 C40.34 220 39.68 220 39 220 C37.60946976 218.42366615 36.28827212 216.78595085 35 215.125 C27.54509449 205.31523645 27.54509449 205.31523645 18 198 C18 197.34 18 196.68 18 196 C17.01 195.67 16.02 195.34 15 195 C15 194.34 15 193.68 15 193 C14.01 192.67 13.02 192.34 12 192 C12 191.34 12 190.68 12 190 C11.42636719 189.75121094 10.85273438 189.50242187 10.26171875 189.24609375 C7.66984535 187.81810133 5.89489323 186.16052094 3.8125 184.0625 C3.11769531 183.37285156 2.42289062 182.68320312 1.70703125 181.97265625 C-1.49645867 178.27068277 -1.12560446 174.71015529 -1.12698364 170.00901794 C-1.12854363 169.29324414 -1.13010362 168.57747033 -1.13171089 167.84000641 C-1.13570754 165.43555315 -1.1325364 163.03116274 -1.12939453 160.62670898 C-1.13074915 158.90539513 -1.13252943 157.18408157 -1.13470459 155.46276855 C-1.13927135 150.78320189 -1.13749255 146.10365721 -1.1343255 141.42409015 C-1.13179842 136.53362642 -1.13414038 131.64316461 -1.13571167 126.75270081 C-1.13753217 118.54028993 -1.13513 110.32788803 -1.13037109 102.11547852 C-1.12492689 92.61048139 -1.12669276 83.10550571 -1.1321975 73.60050911 C-1.13672987 65.44931525 -1.13737862 57.29812785 -1.13475883 49.14693314 C-1.13319697 44.27430212 -1.13299985 39.4016812 -1.13629532 34.52905083 C-1.13917588 29.94988624 -1.13719491 25.37074941 -1.13140106 20.79158783 C-1.13007454 19.10730345 -1.13046577 17.42301676 -1.13266373 15.73873329 C-1.13537939 13.44712305 -1.13198898 11.15560285 -1.12698364 8.86399841 C-1.12660662 7.57922828 -1.12622959 6.29445814 -1.12584114 4.97075558 C-1 2 -1 2 0 0 Z " fill="#A259BB" transform="translate(266,144)"/>
<path d="M0 0 C0.99 0.33 1.98 0.66 3 1 C2.73445313 1.969375 2.46890625 2.93875 2.1953125 3.9375 C1.83800061 5.291524 1.48126192 6.64569936 1.125 8 C0.95097656 8.6290625 0.77695313 9.258125 0.59765625 9.90625 C-3.43748525 25.44901725 -3.3046188 41.28175565 -3.31884766 57.21484375 C-3.32816279 59.62111746 -3.33833377 62.02738798 -3.34928894 64.43365479 C-3.37361886 70.24946943 -3.38913288 76.06525767 -3.40060402 81.88111079 C-3.41445743 88.65765442 -3.43941795 95.43414409 -3.46498732 102.21065199 C-3.51028394 114.29210939 -3.5469689 126.37357659 -3.578125 138.45507812 C-3.60838116 150.18035601 -3.64276347 161.90561002 -3.68261719 173.63085938 C-3.68507874 174.35548272 -3.68754028 175.08010607 -3.69007643 175.82668769 C-3.7024524 179.46247116 -3.71490866 183.09825434 -3.72740483 186.7340374 C-3.83071568 216.82265844 -3.91985756 246.91130777 -4 277 C-8.4211641 276.16461591 -10.63171824 273.67736058 -13.625 270.5 C-16.95724215 266.79727917 -16.95724215 266.79727917 -21 264 C-21 263.34 -21 262.68 -21 262 C-21.99 261.67 -22.98 261.34 -24 261 C-24 260.34 -24 259.68 -24 259 C-24.99 258.67 -25.98 258.34 -27 258 C-27 257.34 -27 256.68 -27 256 C-27.59474121 255.73195557 -28.18948242 255.46391113 -28.80224609 255.18774414 C-31.01812796 253.99020301 -32.42079528 252.79681017 -34.1640625 250.99609375 C-35.01097656 250.13274414 -35.01097656 250.13274414 -35.875 249.25195312 C-36.4525 248.65318359 -37.03 248.05441406 -37.625 247.4375 C-38.78160151 246.24650616 -39.94035778 245.05759995 -41.1015625 243.87109375 C-41.61025879 243.34443115 -42.11895508 242.81776855 -42.64306641 242.27514648 C-43.99400105 240.8835783 -43.99400105 240.8835783 -46 240 C-46 239.34 -46 238.68 -46 238 C-46.66 238 -47.32 238 -48 238 C-49.625 236.625 -49.625 236.625 -51 235 C-51 234.34 -51 233.68 -51 233 C-51.99 232.67 -52.98 232.34 -54 232 C-54 231.34 -54 230.68 -54 230 C-54.66 230 -55.32 230 -56 230 C-57.625 228.625 -57.625 228.625 -59 227 C-59 226.34 -59 225.68 -59 225 C-59.58426758 224.74025391 -60.16853516 224.48050781 -60.77050781 224.21289062 C-63.15561164 222.915344 -64.75190637 221.50658878 -66.671875 219.59375 C-67.33574219 218.93246094 -67.99960938 218.27117187 -68.68359375 217.58984375 C-69.36550781 216.90019531 -70.04742187 216.21054688 -70.75 215.5 C-71.44738281 214.81035156 -72.14476562 214.12070313 -72.86328125 213.41015625 C-73.85134766 212.41822266 -73.85134766 212.41822266 -74.859375 211.40625 C-75.46233398 210.80103516 -76.06529297 210.19582031 -76.68652344 209.57226562 C-78 208 -78 208 -78 206 C-78.66 206 -79.32 206 -80 206 C-95.07381176 186.97649959 -102.85111083 166.69279178 -102.625 142.4375 C-102.62235138 141.65274292 -102.61970276 140.86798584 -102.61697388 140.05944824 C-102.53238948 126.6518853 -100.89763734 114.57472418 -96 102 C-95.57509277 100.88093262 -95.57509277 100.88093262 -95.14160156 99.73925781 C-88.08391323 81.52508621 -77.0306349 66.50738217 -64.3828125 51.8125 C-62.04256226 49.12897533 -62.04256226 49.12897533 -60.3046875 46.625 C-59.87414062 46.08875 -59.44359375 45.5525 -59 45 C-58.34 45 -57.68 45 -57 45 C-56.67 44.01 -56.34 43.02 -56 42 C-55.34 42 -54.68 42 -54 42 C-53.67 41.01 -53.34 40.02 -53 39 C-52.34 39 -51.68 39 -51 39 C-51 38.34 -51 37.68 -51 37 C-50.34 37 -49.68 37 -49 37 C-48.67 36.01 -48.34 35.02 -48 34 C-47.34 34 -46.68 34 -46 34 C-46 33.34 -46 32.68 -46 32 C-44.49576101 30.60126876 -42.91734851 29.28204731 -41.3125 28 C-40.31089844 27.19949219 -39.30929688 26.39898437 -38.27734375 25.57421875 C-37.18561339 24.71523307 -36.09315083 23.85717725 -35 23 C-34.4548877 22.57025879 -33.90977539 22.14051758 -33.34814453 21.69775391 C-22.770246 13.37697254 -12.06866012 6.03433006 0 0 Z " fill="#A662BE" transform="translate(249,22)"/>
<path d="M0 0 C3 1 3 1 4.140625 3.1875 C4.87169505 5.04091702 5.60090736 6.89506805 6.328125 8.75 C10.57733555 17.01014761 17.28056837 23.57132976 23.8203125 30.05078125 C24.64199921 30.87200974 25.46368591 31.69323822 26.31027222 32.53935242 C28.03406359 34.26014346 29.76026371 35.97852467 31.48876953 37.69458008 C34.12984272 40.31730909 36.76273827 42.94804014 39.39453125 45.58007812 C41.07765262 47.2582864 42.76123055 48.93603692 44.4453125 50.61328125 C45.22875031 51.39560623 46.01218811 52.17793121 46.81936646 52.98396301 C50.40654157 56.54012007 53.96169642 59.94911715 58 63 C60.375 64.9375 60.375 64.9375 62 67 C61.71639428 71.32498717 60.28352751 73.09932137 57.125 75.9375 C53.01736811 79.84701459 49.47518389 83.9737355 46 88.4375 C45.51934082 89.05294678 45.03868164 89.66839355 44.54345703 90.30249023 C42.04847963 93.50650475 42.04847963 93.50650475 40 97 C39.34 97 38.68 97 38 97 C37.72929687 97.71542969 37.45859375 98.43085938 37.1796875 99.16796875 C35.99538542 102.01107805 34.62641455 104.62473457 33.125 107.3125 C32.07143463 109.2017468 31.03099085 111.09833985 30 113 C29.67829834 113.59321045 29.35659668 114.1864209 29.02514648 114.79760742 C26.3387948 119.93333642 24.46111085 125.13774737 22.8125 130.6875 C22.55130371 131.565271 22.29010742 132.44304199 22.02099609 133.34741211 C20.05217987 140.24586562 19.03912728 146.81036227 19 154 C18.97421875 154.91652344 18.9484375 155.83304688 18.921875 156.77734375 C18.87458169 159.52429701 18.92264488 162.25389308 19 165 C19.00773437 166.40378906 19.00773437 166.40378906 19.015625 167.8359375 C20.0818047 197.46050211 36.11983102 221.73471641 57.11083984 241.32666016 C61.07383735 244.83691925 65.3858697 247.45043084 70 250 C72.40948543 251.41530012 74.79845496 252.86306174 77.1875 254.3125 C78.84845703 255.29669922 78.84845703 255.29669922 80.54296875 256.30078125 C81.75919922 257.14189453 81.75919922 257.14189453 83 258 C83 258.66 83 259.32 83 260 C76.49357395 258.72728592 70.69964057 256.88447701 64.625 254.25 C63.37456909 253.71330688 63.37456909 253.71330688 62.09887695 253.16577148 C55.85442404 250.44912762 49.82966056 247.53208846 44 244 C42.9171875 243.34515625 41.834375 242.6903125 40.71875 242.015625 C31.98343814 236.61397347 23.96976716 230.46334884 16 224 C15.07960937 223.26652344 14.15921875 222.53304687 13.2109375 221.77734375 C11.32851275 220.2640871 9.57822447 218.82741781 8 217 C8 216.34 8 215.68 8 215 C7.01 214.67 6.02 214.34 5 214 C-19.51707596 192.14633898 -34.51839468 153.39010335 -36.87109375 121.296875 C-37.7522473 105.59632089 -37.06968327 90.42600176 -34 75 C-33.87141602 74.32630371 -33.74283203 73.65260742 -33.61035156 72.95849609 C-28.38122445 46.43364903 -14.84256892 22.26385338 0 0 Z " fill="#9643B4" transform="translate(91,264)"/>
<path d="M0 0 C1.92480469 0.31958008 1.92480469 0.31958008 4 1 C5.203125 3.88671875 5.203125 3.88671875 6.25 7.6875 C11.48523937 25.04119488 22.58228826 37.99911668 35.47900391 50.40625 C37.02069786 51.90256259 38.51500125 53.44740529 40 55 C40 55.66 40 56.32 40 57 C40.5969165 57.27094482 41.19383301 57.54188965 41.80883789 57.82104492 C43.97094914 58.98436918 45.35093986 60.11926454 47.05859375 61.86328125 C47.60966797 62.42080078 48.16074219 62.97832031 48.72851562 63.55273438 C49.57446289 64.42381836 49.57446289 64.42381836 50.4375 65.3125 C50.99759766 65.88162109 51.55769531 66.45074219 52.13476562 67.03710938 C53.23930585 68.15969343 54.34014611 69.2859316 55.43701172 70.41601562 C56.87262418 71.8709131 58.35811652 73.27614515 59.84765625 74.67578125 C62.53664742 77.5795013 62.90117896 79.15997673 63.12109375 82.9765625 C62.65109673 90.83006111 56.32936055 97.83122202 52 104 C51.60377441 104.56605957 51.20754883 105.13211914 50.79931641 105.71533203 C49.60869267 107.40360115 48.4018345 109.0787252 47.1875 110.75 C46.45917969 111.75546875 45.73085937 112.7609375 44.98046875 113.796875 C44.32691406 114.52390625 43.67335937 115.2509375 43 116 C40 116 40 116 38.3125 114.625 C37 113 37 113 37 111 C36.01 110.67 35.02 110.34 34 110 C34 109.34 34 108.68 34 108 C33.01 107.67 32.02 107.34 31 107 C31 106.34 31 105.68 31 105 C30.401875 104.731875 29.80375 104.46375 29.1875 104.1875 C27.00152146 103.00082594 25.58667406 101.90400887 24 100 C24 99.34 24 98.68 24 98 C23.46101074 97.78408203 22.92202148 97.56816406 22.36669922 97.34570312 C19.16067949 95.52276309 16.72621649 93.05124801 14.1328125 90.46875 C13.2970015 89.64292419 13.2970015 89.64292419 12.44430542 88.80041504 C11.26671687 87.63293781 10.09181655 86.46274366 8.91943359 85.29003906 C7.14837745 83.5233202 5.36201362 81.77319418 3.57421875 80.0234375 C-6.17848369 70.36971076 -14.18761942 61.07768185 -14.4375 46.6875 C-14.37385137 30.02891646 -6.71264688 14.90211995 0 0 Z " fill="#9F56BA" transform="translate(126,200)"/>
<path d="M0 0 C3.50342153 0.83777471 5.30662794 2.19251 7.875 4.6875 C9.30162219 7.54074437 9.18533868 9.52204549 8.875 12.6875 C6.3710635 16.75639681 2.7667456 19.57778337 -0.828125 22.65234375 C-10.14514689 30.07852399 -10.14514689 30.07852399 -15.41261292 40.0065155 C-15.42928513 40.91726334 -15.44595734 41.82801117 -15.46313477 42.76635742 C-15.49679893 44.31893501 -15.49679893 44.31893501 -15.53114319 45.90287781 C-15.54278 47.02160782 -15.55441681 48.14033783 -15.56640625 49.29296875 C-15.58706398 51.02272697 -15.58706398 51.02272697 -15.60813904 52.78742981 C-15.63143177 55.23104036 -15.64868658 57.67471472 -15.66040039 60.1184082 C-15.68727495 63.84380352 -15.76215872 67.56633809 -15.83789062 71.29101562 C-15.85455248 73.66664758 -15.86831734 76.04230197 -15.87890625 78.41796875 C-15.90876114 79.52657761 -15.93861603 80.63518646 -15.96937561 81.77738953 C-15.9373779 87.45066236 -15.52950502 90.91491333 -11.74633789 95.29125977 C-10.56643735 96.45167388 -9.36121717 97.58727579 -8.125 98.6875 C-7.23554688 99.54859375 -6.34609375 100.4096875 -5.4296875 101.296875 C-4.62789062 102.00328125 -3.82609375 102.7096875 -3 103.4375 C-2.19304687 104.15421875 -1.38609375 104.8709375 -0.5546875 105.609375 C1.12292288 107.04424433 2.83258844 108.4421742 4.56640625 109.80859375 C6.875 111.6875 6.875 111.6875 8.6875 114 C12.2178985 118.33734672 16.55835336 121.75696114 20.84375 125.328125 C21.75640625 126.09382813 21.75640625 126.09382813 22.6875 126.875 C23.23019531 127.32230469 23.77289063 127.76960938 24.33203125 128.23046875 C27.65149664 131.36505252 29.0590594 133.35347554 29.21557617 137.99707031 C29.21510274 139.75332684 29.19824488 141.50962939 29.16796875 143.265625 C29.16372391 144.1921991 29.15947906 145.11877319 29.15510559 146.07342529 C29.13833322 149.02841434 29.10068355 151.98271761 29.0625 154.9375 C29.0474513 156.94269847 29.03376322 158.94790765 29.02148438 160.953125 C28.98843438 165.86484696 28.93666182 170.77605726 28.875 175.6875 C25.11297946 176.94150685 22.65973243 176.39855845 18.75 175.8125 C16.85894531 175.53792969 16.85894531 175.53792969 14.9296875 175.2578125 C11.875 174.6875 11.875 174.6875 10.875 173.6875 C10.7281525 171.35951303 10.64741818 169.02730891 10.59375 166.6953125 C10.57534058 165.99356903 10.55693115 165.29182556 10.53796387 164.56881714 C10.47904833 162.31679899 10.42632816 160.0647031 10.375 157.8125 C10.30731755 154.8566113 10.2335772 151.90096275 10.15625 148.9453125 C10.12595703 147.6267627 10.09566406 146.30821289 10.06445312 144.94970703 C10.01666631 141.67800959 10.01666631 141.67800959 8.875 138.6875 C8.215 138.3575 7.555 138.0275 6.875 137.6875 C6.875 137.0275 6.875 136.3675 6.875 135.6875 C5.885 135.3575 4.895 135.0275 3.875 134.6875 C3.875 134.0275 3.875 133.3675 3.875 132.6875 C3.30209229 132.44128906 2.72918457 132.19507813 2.13891602 131.94140625 C-0.49718723 130.48135813 -2.2424654 128.77983374 -4.34765625 126.625 C-5.13333984 125.82835937 -5.91902344 125.03171875 -6.72851562 124.2109375 C-7.53998047 123.37820313 -8.35144531 122.54546875 -9.1875 121.6875 C-10.80111679 120.03944238 -12.41690922 118.39351136 -14.03515625 116.75 C-15.10455444 115.65365234 -15.10455444 115.65365234 -16.19555664 114.53515625 C-18.18855558 112.51885467 -18.18855558 112.51885467 -21.125 110.6875 C-21.125 110.0275 -21.125 109.3675 -21.125 108.6875 C-22.115 108.3575 -23.105 108.0275 -24.125 107.6875 C-24.125 107.0275 -24.125 106.3675 -24.125 105.6875 C-24.681875 105.48125 -25.23875 105.275 -25.8125 105.0625 C-29.17544722 103.06290976 -31.40857944 101.19624518 -33.125 97.6875 C-33.91021443 92.71595461 -33.87848629 87.74797089 -33.859375 82.7265625 C-33.86783347 81.25213926 -33.87747614 79.77772239 -33.88824463 78.30331421 C-33.90460493 75.21824603 -33.90195689 72.13389583 -33.88671875 69.04882812 C-33.86945067 65.11180647 -33.90655089 61.17745611 -33.95898056 57.24082375 C-33.99220384 54.19674591 -33.99263895 51.15330145 -33.98383331 48.10908127 C-33.98419124 46.65870158 -33.99536174 45.20827975 -34.01793671 43.75807571 C-34.18943987 31.05409737 -34.18943987 31.05409737 -29.70581055 25.87866211 C-28.5395993 24.78497916 -27.34906809 23.71601757 -26.125 22.6875 C-25.41472656 21.93339844 -24.70445312 21.17929687 -23.97265625 20.40234375 C-20.1318639 16.57836012 -16.19757672 12.93835283 -12.06640625 9.4296875 C-10.07182048 7.63977754 -8.30671021 5.72745425 -6.5 3.75 C-4.13282675 1.36130699 -3.39292893 0.74644436 0 0 Z " fill="#9443B3" transform="translate(177.125,354.3125)"/>
<path d="M0 0 C0.62777344 0.2371875 1.25554687 0.474375 1.90234375 0.71875 C7.29924668 3.26958377 10.79231567 7.50410979 13 13 C14.02545827 19.40911419 14.21978061 25.78568613 10.9375 31.5625 C8.16669928 35.24370667 4.92723648 37.62883835 1 40 C0.34 40 -0.32 40 -1 40 C-0.67 51.55 -0.34 63.1 0 75 C1.32 75.33 2.64 75.66 4 76 C4 76.66 4 77.32 4 78 C4.70125 78.165 5.4025 78.33 6.125 78.5 C10.59750506 80.8334809 13.9949068 85.09240896 15.65625 89.8984375 C16.84707956 97.17873639 17.14272696 105.6138694 13 112 C8.2365541 117.21560523 2.79753228 121.51099062 -4.3671875 122.43359375 C-12.82079918 122.44300757 -18.59793709 122.02779845 -24.9296875 116.234375 C-30.16998182 110.7114092 -32.60102233 105.59079904 -33.4375 98.0625 C-33.11215935 90.84842462 -29.35829319 84.66192732 -24.5859375 79.44140625 C-21.8236444 76.93084922 -18.79528554 75 -15 75 C-15 63.78 -15 52.56 -15 41 C-16.65 40.34 -18.3 39.68 -20 39 C-26.26629743 34.86935904 -28.65997761 30.30721481 -30.875 23.1875 C-31.17042485 15.65416629 -28.38478486 9.68192527 -23.40234375 4.1796875 C-22 3 -22 3 -20 3 C-20 2.34 -20 1.68 -20 1 C-12.76016809 -1.51702567 -7.29172177 -2.76725684 0 0 Z M-16 90 C-18.70089196 93.1365197 -19.03755684 94.4554258 -18.75 98.625 C-17.87839923 103.23774634 -17.87839923 103.23774634 -15 106.6875 C-10.91933959 108.47278893 -7.37871116 108.98362352 -3 108 C0.07865028 105.82170971 1.60641898 102.98395256 3 99.5 C3 95.90661884 1.97225355 93.99019087 0 91 C-5.85028324 86.26998376 -9.59467475 86.04777804 -16 90 Z " fill="#9E54B9" transform="translate(226,317)"/>
<path d="M0 0 C3.42322975 1.15629094 4.98893533 2.88443336 7.44921875 5.515625 C10.40044695 8.59308567 13.31817385 11.57455616 16.57421875 14.328125 C17.16680481 14.85084488 17.75939087 15.37356476 18.36993408 15.91212463 C20.01252065 17.34581093 21.69138752 18.73827152 23.39080811 20.10411072 C29.022757 25.03051714 32.27558052 28.36544786 33.02832031 36.13110352 C33.087209 38.86134667 33.08859183 41.54403833 33.02734375 44.26953125 C33.02968164 45.73201968 33.03559081 47.19450625 33.04486084 48.65696716 C33.05200659 51.70491891 33.02091679 54.74928033 32.9609375 57.79663086 C32.88698073 61.67722186 32.90243389 65.55125022 32.94583511 69.43209934 C32.97074533 72.44659926 32.95144031 75.45960222 32.91893768 78.47398186 C32.90801213 79.90308584 32.90954507 81.33234806 32.92450714 82.76141548 C32.97681523 90.45334311 32.54964516 95.70451025 27.31103516 101.58398438 C25.77935696 103.0476952 24.22201864 104.48516716 22.63671875 105.890625 C21.27698671 107.2667148 19.9239758 108.64952726 18.58203125 110.04296875 C17.31121499 111.30732761 16.03781526 112.56909562 14.76171875 113.828125 C14.11203125 114.47330078 13.46234375 115.11847656 12.79296875 115.78320312 C11.60031479 116.96726802 10.40662125 118.15028767 9.21142578 119.33178711 C8.13694785 120.39543697 7.08643685 121.48371417 6.05810547 122.59204102 C4.63671875 123.890625 4.63671875 123.890625 2.63671875 123.890625 C2.30671875 124.880625 1.97671875 125.870625 1.63671875 126.890625 C0.97671875 126.890625 0.31671875 126.890625 -0.36328125 126.890625 C-0.36328125 127.550625 -0.36328125 128.210625 -0.36328125 128.890625 C-1.73828125 130.515625 -1.73828125 130.515625 -3.36328125 131.890625 C-4.02328125 131.890625 -4.68328125 131.890625 -5.36328125 131.890625 C-5.69328125 132.880625 -6.02328125 133.870625 -6.36328125 134.890625 C-7.02328125 134.890625 -7.68328125 134.890625 -8.36328125 134.890625 C-8.36328125 135.550625 -8.36328125 136.210625 -8.36328125 136.890625 C-9.02328125 137.220625 -9.68328125 137.550625 -10.36328125 137.890625 C-10.38310059 138.94040527 -10.40291992 139.99018555 -10.42333984 141.07177734 C-10.49930323 144.95955761 -10.58803423 148.84695903 -10.68066406 152.734375 C-10.71899229 154.41821829 -10.75383837 156.10214455 -10.78515625 157.78613281 C-10.83072412 160.20407806 -10.88873048 162.62145028 -10.94921875 165.0390625 C-10.96076996 165.7943222 -10.97232117 166.54958191 -10.98422241 167.32772827 C-11.13553784 172.66288159 -11.13553784 172.66288159 -13.36328125 174.890625 C-16.09763087 175.1970109 -18.74607946 175.4019586 -21.48828125 175.515625 C-22.24238281 175.55429687 -22.99648437 175.59296875 -23.7734375 175.6328125 C-25.63631309 175.72713531 -27.4997638 175.80997162 -29.36328125 175.890625 C-29.46227686 169.85836561 -29.53481032 163.82658073 -29.58300781 157.79370117 C-29.60310324 155.74218507 -29.63038449 153.69072611 -29.66503906 151.6394043 C-29.71364794 148.68784475 -29.73627077 145.73704352 -29.75390625 142.78515625 C-29.77455139 141.87039017 -29.79519653 140.95562408 -29.81646729 140.01313782 C-29.81782547 136.14474434 -29.77397785 133.61289588 -27.83886719 130.2097168 C-25.10017097 127.64414724 -22.3082274 125.15850106 -19.45748901 122.71817017 C-16.18095359 119.85884714 -13.12346822 116.79377821 -10.0546875 113.71484375 C-9.40249741 113.06361038 -8.75030731 112.41237701 -8.07835388 111.7414093 C-6.71677989 110.38050965 -5.35644301 109.0183712 -3.99731445 107.6550293 C-1.91015851 105.56246175 0.18235507 103.47535676 2.27539062 101.38867188 C3.6031858 100.06021681 4.93067122 98.73145207 6.2578125 97.40234375 C6.88376816 96.77841232 7.50972382 96.1544809 8.15464783 95.51164246 C12.19488849 91.44924254 13.74173114 89.68398533 13.86132812 84.01708984 C13.88384644 83.00198334 13.90636475 81.98687683 13.92956543 80.94100952 C14.00058977 76.28154894 14.0581223 71.62224966 14.09667969 66.96240234 C14.1232582 64.50842746 14.16415119 62.05456368 14.21972656 59.60107422 C14.29902066 56.0591118 14.33202052 52.51928355 14.35546875 48.9765625 C14.38846069 47.88669037 14.42145264 46.79681824 14.45544434 45.67391968 C14.44093797 40.11630325 14.05267276 36.68370891 10.35107422 32.39404297 C9.13693735 31.20132343 7.90101348 30.03004022 6.63671875 28.890625 C5.89502441 28.12717773 5.15333008 27.36373047 4.38916016 26.57714844 C3.76187012 25.97418945 3.13458008 25.37123047 2.48828125 24.75 C1.79347656 24.07195312 1.09867187 23.39390625 0.3828125 22.6953125 C-1.05115458 21.30623942 -2.48876028 19.92091428 -3.9296875 18.5390625 C-4.61675781 17.86617188 -5.30382812 17.19328125 -6.01171875 16.5 C-6.94250244 15.6023291 -6.94250244 15.6023291 -7.89208984 14.68652344 C-9.517868 12.70191937 -10.07384071 11.42820351 -10.36328125 8.890625 C-8.40341491 4.53536647 -5.21161326 -0.24119863 0 0 Z " fill="#9747B6" transform="translate(260.36328125,355.109375)"/>
<path d="M0 0 C0 0.99 0 1.98 0 3 C-0.66 3 -1.32 3 -2 3 C-2 3.99 -2 4.98 -2 6 C-1.34 6 -0.68 6 0 6 C1.125 11.75 1.125 11.75 0 14 C-0.66 14 -1.32 14 -2 14 C-4.80396138 18.94816714 -3.77350507 23.61682285 -3 29 C1.4737878 31.30905177 6.06374342 31.92612694 11 31 C13.46416134 28.79511741 13.46416134 28.79511741 15 26 C15.53753906 25.55269531 16.07507813 25.10539062 16.62890625 24.64453125 C18.25289076 23.05282352 18.25289076 23.05282352 18.00390625 20.625 C17.85824219 19.75875 17.71257812 18.8925 17.5625 18 C16.78890877 13.31663685 16.78890877 13.31663685 19 10 C21.475 10.495 21.475 10.495 24 11 C23.34 11.33 22.68 11.66 22 12 C22 12.66 22 13.32 22 14 C22.598125 13.814375 23.19625 13.62875 23.8125 13.4375 C26 13 26 13 29 14 C31.54218321 19.08436641 30.63427698 26.98014753 29 32.3125 C26.07170446 38.9740254 19.50059287 43.27472062 13 46 C6.12958123 46.8847059 -1.18511846 47.09158017 -7.2578125 43.390625 C-13.07186807 38.74980934 -17.38875114 33.35132292 -19 26 C-19.82088583 18.61202755 -17.87956361 12.95470094 -13.50390625 6.9453125 C-9.38286249 1.99183846 -6.72593649 -0.29893051 0 0 Z " fill="#9749B5" transform="translate(212,393)"/>
<path d="M0 0 C2.31 0.66 4.62 1.32 7 2 C7 3.32 7 4.64 7 6 C7.556875 6.04125 8.11375 6.0825 8.6875 6.125 C12.67030477 7.63200721 15.12992356 11.25984712 17 15 C17.08691001 17.84429357 17.11553802 20.66379176 17.09765625 23.5078125 C17.0962413 24.34843231 17.09482635 25.18905212 17.09336853 26.05514526 C17.08776237 28.74513275 17.07520886 31.43503759 17.0625 34.125 C17.05748579 35.94661338 17.05292275 37.76822807 17.04882812 39.58984375 C17.03779094 44.05992777 17.0205222 48.52994986 17 53 C14 54 14 54 11 53 C8.69 52.67 6.38 52.34 4 52 C4 40.78 4 29.56 4 18 C2.02 17.67 0.04 17.34 -2 17 C-2 16.34 -2 15.68 -2 15 C-2.66 15 -3.32 15 -4 15 C-3.67 13.68 -3.34 12.36 -3 11 C-3.66 11 -4.32 11 -5 11 C-4.54663921 6.12637153 -3.2910841 3.60957611 0 0 Z " fill="#8F39B1" transform="translate(186,475)"/>
<path d="M0 0 C3.42322975 1.15629094 4.98893533 2.88443336 7.44921875 5.515625 C10.44058635 8.6353205 13.40562341 11.65356896 16.69921875 14.453125 C21.25912259 18.35095691 25.44121485 22.60771477 29.63671875 26.890625 C28.97671875 27.550625 28.31671875 28.210625 27.63671875 28.890625 C26.97671875 28.560625 26.31671875 28.230625 25.63671875 27.890625 C25.63671875 27.230625 25.63671875 26.570625 25.63671875 25.890625 C20.74774512 28.92899394 20.74774512 28.92899394 16.63671875 32.890625 C16.63671875 33.550625 16.63671875 34.210625 16.63671875 34.890625 C15.97671875 34.890625 15.31671875 34.890625 14.63671875 34.890625 C14.30671875 35.550625 13.97671875 36.210625 13.63671875 36.890625 C13.22856934 36.40883789 12.82041992 35.92705078 12.39990234 35.43066406 C7.26906116 29.46028305 1.74876217 23.98470586 -3.9296875 18.5390625 C-4.96029297 17.52972656 -4.96029297 17.52972656 -6.01171875 16.5 C-6.63224121 15.90155273 -7.25276367 15.30310547 -7.89208984 14.68652344 C-9.517868 12.70191937 -10.07384071 11.42820351 -10.36328125 8.890625 C-8.40341491 4.53536647 -5.21161326 -0.24119863 0 0 Z " fill="#9F58B9" transform="translate(260.36328125,355.109375)"/>
<path d="M0 0 C0.65355469 0.56267578 0.65355469 0.56267578 1.3203125 1.13671875 C1.91585937 1.64847656 2.51140625 2.16023438 3.125 2.6875 C3.76179687 3.23535156 4.39859375 3.78320312 5.0546875 4.34765625 C6.76614087 5.80136062 8.50231289 7.21543326 10.25 8.625 C15.79347648 13.41254787 15.79347648 13.41254787 16.25741577 16.9786377 C16.34798799 19.51731883 16.33676122 22.03818997 16.29296875 24.578125 C16.28872391 25.5046991 16.28447906 26.43127319 16.28010559 27.38592529 C16.26333322 30.34091434 16.22568355 33.29521761 16.1875 36.25 C16.1724513 38.25519847 16.15876322 40.26040765 16.14648438 42.265625 C16.11343438 47.17734696 16.06166182 52.08855726 16 57 C12.23797946 58.25400685 9.78473243 57.71105845 5.875 57.125 C4.61429688 56.94195313 3.35359375 56.75890625 2.0546875 56.5703125 C-1 56 -1 56 -2 55 C-2.15996166 52.40846893 -2.25938697 49.8404798 -2.31640625 47.24609375 C-2.33718735 46.47064713 -2.35796844 45.6952005 -2.37937927 44.89625549 C-2.44495802 42.41009692 -2.50379799 39.92382955 -2.5625 37.4375 C-2.60567733 35.75584796 -2.64929136 34.07420706 -2.69335938 32.39257812 C-2.80064779 28.26183129 -2.90189132 24.13097464 -3 20 C-2.01 20 -1.02 20 0 20 C0 31.22 0 42.44 0 54 C2.97 54 5.94 54 9 54 C10.32 54.33 11.64 54.66 13 55 C12.90637603 49.66115037 12.800262 44.32274944 12.68261719 38.984375 C12.64435809 37.16868879 12.60949983 35.35292759 12.578125 33.53710938 C12.5324077 30.92550877 12.47442464 28.31442312 12.4140625 25.703125 C12.40251129 24.89256653 12.39096008 24.08200806 12.37905884 23.24688721 C12.30023164 17.78982465 12.30023164 17.78982465 10 13 C9.01 12.34 8.02 11.68 7 11 C7 10.34 7 9.68 7 9 C5.68 8.67 4.36 8.34 3 8 C3 6.68 3 5.36 3 4 C2.01 4 1.02 4 0 4 C0 2.68 0 1.36 0 0 Z " fill="#B280C9" transform="translate(190,473)"/>
<path d="M0 0 C2.83018296 2.80866066 5.62432059 5.64427124 8.3828125 8.5234375 C15.42223418 15.8078964 22.09628929 22.02990622 31 27 C32.80452068 28.06184207 34.59974714 29.13740181 36.39013672 30.22290039 C38.1010051 31.26006496 39.82175513 32.28087702 41.54296875 33.30078125 C42.35378906 33.86152344 43.16460937 34.42226563 44 35 C44 35.66 44 36.32 44 37 C37.49331164 35.72723461 31.70016872 33.88367177 25.625 31.25 C24.79863037 30.89655518 23.97226074 30.54311035 23.12084961 30.17895508 C15.33662469 26.80124055 7.7288114 23.22670771 1 18 C2.258125 18.12375 3.51625 18.2475 4.8125 18.375 C5.52019531 18.44460938 6.22789062 18.51421875 6.95703125 18.5859375 C9 19 9 19 12 21 C12 21.66 12 22.32 12 23 C12.66 23 13.32 23 14 23 C13.01 20.36 12.02 17.72 11 15 C10.01 15.495 10.01 15.495 9 16 C9 14.35 9 12.7 9 11 C6.03 10.505 6.03 10.505 3 10 C2.67 8.68 2.34 7.36 2 6 C1.34 6 0.68 6 0 6 C0 4.02 0 2.04 0 0 Z " fill="#9A5BB4" transform="translate(130,487)"/>
<path d="M0 0 C0.33 0 0.66 0 1 0 C1 79.86 1 159.72 1 242 C-3.29425875 240.92643531 -3.74740471 240.4915227 -6 237 C-4.02 237.66 -2.04 238.32 0 239 C0 160.13 0 81.26 0 0 Z " fill="#C7A7CE" transform="translate(244,57)"/>
<path d="M0 0 C0.66 0.33 1.32 0.66 2 1 C1 4 1 4 -2 6 C-2.33 6.99 -2.66 7.98 -3 9 C-3.639375 9.12375 -4.27875 9.2475 -4.9375 9.375 C-5.618125 9.58125 -6.29875 9.7875 -7 10 C-7.33 10.825 -7.66 11.65 -8 12.5 C-8.33 13.325 -8.66 14.15 -9 15 C-11.125 15.8125 -11.125 15.8125 -13 16 C-13.33 17.65 -13.66 19.3 -14 21 C-12.02 21 -10.04 21 -8 21 C-8 21.66 -8 22.32 -8 23 C-34.00576369 35 -34.00576369 35 -42 35 C-41.921875 33.2265625 -41.921875 33.2265625 -41 31 C-38.75455211 29.62511345 -36.61840711 28.49176732 -34.25 27.375 C-22.05854238 21.24432196 -7.66274686 11.49412029 0 0 Z " fill="#9850B3" transform="translate(303,492)"/>
<path d="M0 0 C3.96287721 0.38104589 5.4323945 1.57539752 8.25 4.3125 C9.67662219 7.16574437 9.56033868 9.14704549 9.25 12.3125 C6.26307204 17.16625793 1.5737224 20.67091827 -2.75 24.3125 C-3.89175295 20.55988542 -3.35183973 18.89308293 -1.75 15.3125 C-1.75 14.6525 -1.75 13.9925 -1.75 13.3125 C-2.41 12.9825 -3.07 12.6525 -3.75 12.3125 C-3.17655063 9.44525314 -2.8885485 8.4510485 -0.75 6.3125 C-4.13023517 6.3125 -6.58468937 7.18705622 -9.75 8.3125 C-8.77133662 7.16623678 -7.79205413 6.02050212 -6.8125 4.875 C-6.26722656 4.23691406 -5.72195312 3.59882813 -5.16015625 2.94140625 C-2.89894517 0.32942559 -2.89894517 0.32942559 0 0 Z " fill="#A05AB9" transform="translate(176.75,354.6875)"/>
<path d="M0 0 C0 1.32 0 2.64 0 4 C-0.99 4.33 -1.98 4.66 -3 5 C-5.34264206 8.24365824 -6.43589129 11.05123902 -7 15 C-8.32 14.67 -9.64 14.34 -11 14 C-11.33 14.99 -11.66 15.98 -12 17 C-12.66 17 -13.32 17 -14 17 C-13.39053254 11.5147929 -13.39053254 11.5147929 -11.625 9.1875 C-10 8 -10 8 -7 7 C-5.96708324 5.01679982 -4.9662501 3.01652194 -4 1 C-2 0 -2 0 0 0 Z M-16 17 C-15.34 17 -14.68 17 -14 17 C-13.33333333 21 -12.66666667 25 -12 29 C-12.969375 29.12375 -13.93875 29.2475 -14.9375 29.375 C-15.948125 29.58125 -16.95875 29.7875 -18 30 C-18.33 30.66 -18.66 31.32 -19 32 C-19.99 32 -20.98 32 -22 32 C-22.33 32.99 -22.66 33.98 -23 35 C-24.98 35 -26.96 35 -29 35 C-30 32 -30 32 -29.3125 29.875 C-27.66599424 27.52284892 -26.69306966 27.67326742 -24 27 C-23.67 26.34 -23.34 25.68 -23 25 C-22 23 -22 23 -19.875 22.25 C-19.25625 22.1675 -18.6375 22.085 -18 22 C-17.855625 21.360625 -17.71125 20.72125 -17.5625 20.0625 C-17 18 -17 18 -16 17 Z " fill="#9340B4" transform="translate(318,479)"/>
<path d="M0 0 C1.17286161 3.71681497 0.59401666 6.22109913 -0.46875 9.96875 C-1.10456082 12.1997562 -1.10456082 12.1997562 -1.375 15.375 C-2 18 -2 18 -3.875 19.3125 C-4.57625 19.539375 -5.2775 19.76625 -6 20 C-9.05697699 20.65675972 -9.05697699 20.65675972 -10.0625 22.77734375 C-10.371875 23.51082031 -10.68125 24.24429687 -11 25 C-11.495 26.11568359 -11.495 26.11568359 -12 27.25390625 C-12.66761661 28.79516178 -13.33428083 30.3368302 -14 31.87890625 C-15 34 -15 34 -17 37 C-17.70812814 39.32108669 -18.38024152 41.65377147 -19 44 C-19.66 44 -20.32 44 -21 44 C-21.309375 45.093125 -21.61875 46.18625 -21.9375 47.3125 C-22.58337897 49.55407994 -23.2623117 51.7869351 -24 54 C-24.66 54 -25.32 54 -26 54 C-22.37359689 34.21961942 -10.48607149 16.7991737 0 0 Z " fill="#A361B9" transform="translate(89,267)"/>
<path d="M0 0 C0.66 0 1.32 0 2 0 C2.69699552 1.45381897 3.38233866 2.91322953 4.0625 4.375 C4.63677734 5.59316406 4.63677734 5.59316406 5.22265625 6.8359375 C5.47917969 7.55007812 5.73570312 8.26421875 6 9 C5.67 9.66 5.34 10.32 5 11 C4.01 10.67 3.02 10.34 2 10 C2.00523682 11.29695801 2.01047363 12.59391602 2.01586914 13.93017578 C2.10691098 38.64091668 2.13766564 63.310235 1 88 C0.34 88 -0.32 88 -1 88 C-1.0231348 76.8215383 -1.04092092 65.64308225 -1.05181217 54.46460152 C-1.0570385 49.27440675 -1.06413164 44.08422833 -1.07543945 38.89404297 C-1.08627718 33.88849603 -1.09227873 28.88296484 -1.09487724 23.87740707 C-1.09672989 21.96437202 -1.10034744 20.05133786 -1.10573006 18.13830948 C-1.11295221 15.46604781 -1.11399044 12.79385184 -1.11352539 10.12158203 C-1.11712067 9.32460907 -1.12071594 8.52763611 -1.12442017 7.70651245 C-1.11405216 2.22810432 -1.11405216 2.22810432 0 0 Z " fill="#AC6EB9" transform="translate(266,144)"/>
<path d="M0 0 C1.8359375 0.046875 1.8359375 0.046875 4 1 C5.08630844 3.46069869 5.89105729 5.68602907 6.625 8.25 C7.93955399 12.56806026 9.24088477 16.83622266 11 21 C7.83884224 19.63016497 7.0072908 19.0109362 5 16 C4.67 16.66 4.34 17.32 4 18 C4 16.68 4 15.36 4 14 C2.02 14.99 2.02 14.99 0 16 C-0.66 15.34 -1.32 14.68 -2 14 C-3.65 15.65 -5.3 17.3 -7 19 C-4.94235079 12.54646385 -2.57616518 6.2638737 0 0 Z " fill="#A562BC" transform="translate(126,200)"/>
<path d="M0 0 C2.63759361 3.31327345 4.69578207 6.87354861 6.75 10.5625 C12.90577221 21.45565721 19.82230384 31.7624243 27 42 C25.515 42.495 25.515 42.495 24 43 C18.19794344 37.35475578 18.19794344 37.35475578 16 34 C16 32.33333333 16 30.66666667 16 29 C14.35 28.67 12.7 28.34 11 28 C10.70996094 27.11248047 10.70996094 27.11248047 10.4140625 26.20703125 C9.6210831 23.80061357 8.81207159 21.40003336 8 19 C7.67 18.01 7.34 17.02 7 16 C6.67 15.34 6.34 14.68 6 14 C5.01 13.67 4.02 13.34 3 13 C2.67 10.36 2.34 7.72 2 5 C1.34 5 0.68 5 0 5 C-0.5625 3.0625 -0.5625 3.0625 -1 1 C-0.67 0.67 -0.34 0.34 0 0 Z " fill="#B483C3" transform="translate(272,155)"/>
<path d="M0 0 C0.66 0 1.32 0 2 0 C2.33 0.99 2.66 1.98 3 3 C4.99571323 3.67939174 6.99594773 4.34561559 9 5 C14 12.5 14 12.5 14 17 C13.34 17 12.68 17 12 17 C11.55527344 16.52433594 11.11054688 16.04867188 10.65234375 15.55859375 C8.61679586 13.63853794 7.30011555 13.47337316 4.5625 13.0625 C0.58473021 12.30452107 -1.46287876 11.30928858 -4 8 C-2.68 5.36 -1.36 2.72 0 0 Z " fill="#8B34B0" transform="translate(130,493)"/>
<path d="M0 0 C0.33 0.66 0.66 1.32 1 2 C-1.45454545 7.72727273 -1.45454545 7.72727273 -4 9 C-5.13202462 10.24608252 -6.23215439 11.52135525 -7.3125 12.8125 C-9.99523653 15.9358523 -12.69610248 18.52207686 -16 21 C-16.53625 21.5775 -17.0725 22.155 -17.625 22.75 C-19 24 -19 24 -22 24 C-21.67 26.64 -21.34 29.28 -21 32 C-22.33333333 32 -23.66666667 32 -25 32 C-25.29520842 28.23609262 -25.4731793 25.78863217 -23.5 22.5 C-20.93667156 19.93667156 -18.26178215 17.59578308 -15.50390625 15.24609375 C-10.10873067 10.40642767 -5.08837292 5.15818292 0 0 Z " fill="#9E5EB6" transform="translate(256,463)"/>
<path d="M0 0 C0.625 1.875 0.625 1.875 1 4 C-1 6 -1 6 -3 7 C-2.67 8.32 -2.34 9.64 -2 11 C-3.98 11 -5.96 11 -8 11 C-8 32.78 -8 54.56 -8 77 C-8.33 77 -8.66 77 -9 77 C-9.16265511 68.40262119 -9.28680045 59.80589193 -9.3626852 51.20735168 C-9.39911878 47.21401374 -9.44848178 43.22173328 -9.52807617 39.22900391 C-9.60449846 35.37096878 -9.64606448 31.51394639 -9.6641407 27.6552124 C-9.67701088 26.18796861 -9.7021448 24.72077627 -9.7401104 23.25396729 C-10.06096911 10.33614858 -10.06096911 10.33614858 -5.58227539 5.16015625 C-4.41917242 4.07265106 -3.22897957 3.01246495 -2 2 C-1.34 1.34 -0.68 0.68 0 0 Z " fill="#9C63B6" transform="translate(153,375)"/>
<path d="M0 0 C1.94158017 3.51624755 2.18311068 5.9715651 2 10 C0.700625 9.62875 0.700625 9.62875 -0.625 9.25 C-5.09455593 8.91892178 -6.62152461 10.14706523 -10 13 C-11.02304948 14.65261839 -12.02616054 16.31791365 -13 18 C-15.1875 19.3125 -15.1875 19.3125 -17 20 C-17 18.33333333 -17 16.66666667 -17 15 C-16.34 15 -15.68 15 -15 15 C-15 14.34 -15 13.68 -15 13 C-14.34 13 -13.68 13 -13 13 C-12.67 12.01 -12.34 11.02 -12 10 C-11.34 10 -10.68 10 -10 10 C-10 9.34 -10 8.68 -10 8 C-8.38542921 6.56418526 -6.70780925 5.19855217 -5 3.875 C-4.071875 3.15054688 -3.14375 2.42609375 -2.1875 1.6796875 C-1.1046875 0.84824219 -1.1046875 0.84824219 0 0 Z " fill="#BA91C7" transform="translate(213,46)"/>
<path d="M0 0 C0.43570313 0.37511719 0.87140625 0.75023437 1.3203125 1.13671875 C4.25553182 3.65897431 7.19628165 6.16929389 10.1875 8.625 C11.115625 9.40875 12.04375 10.1925 13 11 C13.804375 11.66 14.60875 12.32 15.4375 13 C17 15 17 15 17.1875 17.375 C15.41743527 21.28777467 12.36988058 23.43959465 9 26 C9.33 23.36 9.66 20.72 10 18 C10.66 18 11.32 18 12 18 C11.38190089 14.97818211 10.89241785 12.69027983 8.37890625 10.74609375 C6.62500714 9.75793022 4.81335033 8.87429391 3 8 C2.34 7.67 1.68 7.34 1 7 C1 6.01 1 5.02 1 4 C0.34 3.67 -0.32 3.34 -1 3 C-0.67 2.01 -0.34 1.02 0 0 Z " fill="#A671B8" transform="translate(136,316)"/>
<path d="M0 0 C0.99 0 1.98 0 3 0 C3.06947615 8.4231034 3.12279887 16.84608732 3.15543652 25.26940632 C3.17110009 29.18060226 3.19235063 33.09160234 3.22631836 37.00268555 C3.25888769 40.77632259 3.2768478 44.5497711 3.28463173 48.32353783 C3.29017965 49.76408036 3.30101336 51.20461246 3.31719017 52.64507484 C3.33892959 54.6608234 3.3402251 56.67676121 3.34057617 58.69262695 C3.34723801 59.84068314 3.35389984 60.98873932 3.36076355 62.17158508 C3 65 3 65 1.47871399 66.89421082 C0.99073837 67.25912125 0.50276276 67.62403168 0 68 C0.0707373 67.40203613 0.14147461 66.80407227 0.21435547 66.18798828 C1.23277207 56.13448026 1.1511 46.08570023 1.13037109 35.99072266 C1.12500048 32.87527629 1.1303477 29.7599733 1.13671875 26.64453125 C1.13605806 24.63541635 1.13477709 22.62630154 1.1328125 20.6171875 C1.13483673 19.70025116 1.13686096 18.78331482 1.13894653 17.83859253 C1.11748938 11.83833488 0.70311202 5.95856113 0 0 Z " fill="#9E65B2" transform="translate(289,386)"/>
<path d="M0 0 C3.88453879 3.6491122 7.05465053 7.6055485 10.28515625 11.83984375 C12.35779227 14.45070416 14.57305134 16.72013914 17 19 C16.67 19.66 16.34 20.32 16 21 C12.9375 21.625 12.9375 21.625 10 22 C9.814375 20.2984375 9.814375 20.2984375 9.625 18.5625 C9.41875 17.386875 9.2125 16.21125 9 15 C8.34 14.67 7.68 14.34 7 14 C7 12.35 7 10.7 7 9 C6.236875 8.87625 5.47375 8.7525 4.6875 8.625 C2 8 2 8 -1 6 C-0.67 4.02 -0.34 2.04 0 0 Z " fill="#B78AC6" transform="translate(313,215)"/>
<path d="M0 0 C0.33 0 0.66 0 1 0 C0.9969838 0.63369507 0.99396759 1.26739014 0.99085999 1.92028809 C0.96622154 8.53984296 0.9905171 15.1579584 1.04272461 21.77734375 C1.05583193 24.24475694 1.05662848 26.71226844 1.04467773 29.1796875 C1.02962351 32.73535211 1.0594181 36.28830697 1.09765625 39.84375 C1.08340103 40.93989624 1.06914581 42.03604248 1.05445862 43.16540527 C1.16200133 48.90598044 1.63398137 52.23040132 5.55639648 56.57226562 C6.19794174 57.17026978 6.839487 57.76827393 7.50047302 58.38439941 C9 60 9 60 9 63 C4.35046686 61.03686378 2.19839363 59.55245067 0 55 C-0.36076355 52.31071472 -0.36076355 52.31071472 -0.34057617 49.38354492 C-0.34034958 48.28278122 -0.34012299 47.18201752 -0.33988953 46.04789734 C-0.32440567 44.8706459 -0.30892181 43.69339447 -0.29296875 42.48046875 C-0.28872391 41.26676102 -0.28447906 40.05305328 -0.28010559 38.80256653 C-0.26332908 34.9306509 -0.22567733 31.05925801 -0.1875 27.1875 C-0.1724519 24.5605544 -0.15876371 21.93360063 -0.14648438 19.30664062 C-0.11342881 12.87091576 -0.06323883 6.43549523 0 0 Z " fill="#9763AA" transform="translate(160,393)"/>
<path d="M0 0 C-3.25049926 9.05496221 -9.58370839 16.94207923 -16 24 C-17.19873962 20.05272168 -16.6900877 17.80269732 -15 14 C-14.01 13.67 -13.02 13.34 -12 13 C-11.67 12.01 -11.34 11.02 -11 10 C-10.67 10.66 -10.34 11.32 -10 12 C-9.67 10.35 -9.34 8.7 -9 7 C-8.01 7.33 -7.02 7.66 -6 8 C-4.98888907 4.95086772 -4.98888907 4.95086772 -6 2 C-2.25 0 -2.25 0 0 0 Z " fill="#A468BB" transform="translate(369,447)"/>
<path d="M0 0 C0.33 0 0.66 0 1 0 C2.35064935 8.94805195 2.35064935 8.94805195 1 13 C0 14 -1 15 -2 16 C-3.23759823 19.71279469 -3.35608897 23.31306346 -3.5625 27.1875 C-3.60568359 27.93708984 -3.64886719 28.68667969 -3.69335938 29.45898438 C-3.79922685 31.30578375 -3.9000976 33.15286834 -4 35 C-4.66 35 -5.32 35 -6 35 C-6.73824868 22.81069402 -5.55384584 11.10769167 0 0 Z " fill="#B88CC7" transform="translate(118,219)"/>
<path d="M0 0 C0.66 0.99 1.32 1.98 2 3 C2.66 2.34 3.32 1.68 4 1 C4.66 1 5.32 1 6 1 C6 1.99 6 2.98 6 4 C9.63 4 13.26 4 17 4 C17 4.66 17 5.32 17 6 C14.03 6 11.06 6 8 6 C8 6.66 8 7.32 8 8 C6.02 8.33 4.04 8.66 2 9 C1.67 9.99 1.34 10.98 1 12 C0.34 11.34 -0.32 10.68 -1 10 C-1.99 10.495 -1.99 10.495 -3 11 C-3 9.35 -3 7.7 -3 6 C-2.34 6 -1.68 6 -1 6 C-0.67 4.02 -0.34 2.04 0 0 Z " fill="#9245B0" transform="translate(205,422)"/>
<path d="M0 0 C0.33 0 0.66 0 1 0 C1 18.48 1 36.96 1 56 C-0.32 55.67 -1.64 55.34 -3 55 C-2 52 -2 52 -1 50 C-0.93900833 47.66744068 -0.93981675 45.33317719 -0.96875 43 C-1.03798159 33.99066281 -0.78900805 25.00386168 -0.5 16 C-0.45159828 14.43490276 -0.40342026 12.86979859 -0.35546875 11.3046875 C-0.23954258 7.53637387 -0.1206429 3.76816545 0 0 Z " fill="#A15EB2" transform="translate(243,240)"/>
<path d="M0 0 C3.4964302 1.69729621 6.87384233 3.57542703 10.25 5.5 C11.32765625 6.1084375 12.4053125 6.716875 13.515625 7.34375 C14.33546875 7.8903125 15.1553125 8.436875 16 9 C16 9.66 16 10.32 16 11 C7.77895515 9.58257847 0.54700825 6.41386718 -7 3 C-6.401875 2.87625 -5.80375 2.7525 -5.1875 2.625 C-2.73768652 2.04524015 -2.73768652 2.04524015 0 0 Z " fill="#AE7CC1" transform="translate(158,513)"/>
<path d="M0 0 C0.33 0 0.66 0 1 0 C1.10132712 7.90190696 1.17143514 15.80364672 1.21972656 23.70605469 C1.237599 26.39504466 1.26544475 29.08365826 1.30175781 31.77246094 C1.35021615 35.63487561 1.37295626 39.49671208 1.390625 43.359375 C1.41127014 44.5636615 1.43191528 45.767948 1.45318604 47.00872803 C1.45348816 48.12958801 1.45379028 49.250448 1.45410156 50.40527344 C1.46298401 51.39122498 1.47186646 52.37717651 1.48101807 53.39300537 C0.85722069 56.77382724 -0.2234176 58.01552814 -3 60 C-5.25 59.75 -5.25 59.75 -7 59 C-6.57621063 58.63458603 -6.15242126 58.26917206 -5.71578979 57.89268494 C-1.05997491 53.31087682 -0.28867349 49.70881421 -0.16775513 43.27870178 C-0.17684906 42.17739426 -0.18594299 41.07608673 -0.1953125 39.94140625 C-0.18160614 38.79711655 -0.16789978 37.65282684 -0.15377808 36.47386169 C-0.11653165 32.83633925 -0.12018984 29.20018582 -0.125 25.5625 C-0.1068697 23.08917142 -0.08606598 20.61586089 -0.0625 18.14257812 C-0.01069892 12.09491816 0.00756647 6.0478615 0 0 Z " fill="#A173B2" transform="translate(275,392)"/>
<path d="M0 0 C-0.33 0.66 -0.66 1.32 -1 2 C-2.093125 1.525625 -3.18625 1.05125 -4.3125 0.5625 C-13.34523007 -2.76702484 -21.0776208 -2.42572911 -30 1 C-29.67 0.34 -29.34 -0.32 -29 -1 C-28.34 -1 -27.68 -1 -27 -1 C-27 -1.66 -27 -2.32 -27 -3 C-16.24311706 -6.73977613 -9.54701124 -6.09383696 0 0 Z " fill="#B68FC4" transform="translate(233,321)"/>
<path d="M0 0 C0.66 0.99 1.32 1.98 2 3 C0.02 3.66 -1.96 4.32 -4 5 C-4 5.99 -4 6.98 -4 8 C-5.15628906 8.32871094 -5.15628906 8.32871094 -6.3359375 8.6640625 C-9.35128306 9.61750081 -12.16887371 10.5865784 -15 12 C-16.83115399 15.05295854 -16.83115399 15.05295854 -17 18 C-17.66 17.01 -18.32 16.02 -19 15 C-19.33 16.65 -19.66 18.3 -20 20 C-21.98 19.67 -23.96 19.34 -26 19 C-18.46219098 11.18708846 -9.69545598 4.87221147 0 0 Z " fill="#C49BD0" transform="translate(240,27)"/>
<path d="M0 0 C0.66 0.66 1.32 1.32 2 2 C3.90000358 2.63766761 3.90000358 2.63766761 6 3.0625 C8.21220107 3.55455208 9.96650273 3.98325137 12 5 C14.01254354 4.74443892 16.02553833 4.48551893 18.02734375 4.15625 C20 4 20 4 23 5 C23 5.66 23 6.32 23 7 C17.86424619 9.5678769 9.62383081 8.86829083 4.296875 7.10546875 C2.125 6 2.125 6 -1 4 C-1 1 -1 1 0 0 Z " fill="#9D60B3" transform="translate(204,431)"/>
<path d="M0 0 C0.66 0 1.32 0 2 0 C2.69699552 1.45381897 3.38233866 2.91322953 4.0625 4.375 C4.63677734 5.59316406 4.63677734 5.59316406 5.22265625 6.8359375 C5.47917969 7.55007812 5.73570312 8.26421875 6 9 C5.67 9.66 5.34 10.32 5 11 C4.01 10.67 3.02 10.34 2 10 C1.67 9.34 1.34 8.68 1 8 C0.67 17.9 0.34 27.8 0 38 C-0.33 38 -0.66 38 -1 38 C-1.02468084 32.90967159 -1.04285082 27.81937785 -1.05493164 22.72900391 C-1.05996682 20.99657586 -1.06679532 19.26415208 -1.07543945 17.53173828 C-1.08754065 15.04458567 -1.09323638 12.55748913 -1.09765625 10.0703125 C-1.10281754 9.29317902 -1.10797882 8.51604553 -1.11329651 7.71536255 C-1.11387171 2.22774341 -1.11387171 2.22774341 0 0 Z " fill="#DEC1DF" transform="translate(266,144)"/>
<path d="M0 0 C2.5 2.3125 2.5 2.3125 5 5 C5 5.99 5 6.98 5 8 C5.94875 7.835 6.8975 7.67 7.875 7.5 C11 7 11 7 13 7 C13.33 9.31 13.66 11.62 14 14 C7.68571429 13.51428571 7.68571429 13.51428571 4.75 11.3125 C2.02609203 7.71305019 0 4.58182968 0 0 Z " fill="#8E3DAF" transform="translate(98,473)"/>
<path d="M0 0 C1.32 0.33 2.64 0.66 4 1 C4.33 2.98 4.66 4.96 5 7 C3.35 6.67 1.7 6.34 0 6 C0.33 6.99 0.66 7.98 1 9 C-0.43359375 11.48046875 -0.43359375 11.48046875 -2.4375 14.1875 C-3.09621094 15.08855469 -3.75492187 15.98960937 -4.43359375 16.91796875 C-4.95050781 17.60503906 -5.46742187 18.29210937 -6 19 C-7 17 -7 17 -6.47094727 15.21240234 C-6.17244873 14.51066895 -5.8739502 13.80893555 -5.56640625 13.0859375 C-5.24736328 12.32539063 -4.92832031 11.56484375 -4.59960938 10.78125 C-4.25736328 9.9871875 -3.91511719 9.193125 -3.5625 8.375 C-3.22412109 7.57320312 -2.88574219 6.77140625 -2.53710938 5.9453125 C-1.69833222 3.96060036 -0.85004755 1.97991125 0 0 Z " fill="#AC77BF" transform="translate(126,200)"/>
<path d="M0 0 C0 1.98 0 3.96 0 6 C-1.9570868 6.67031719 -3.91571113 7.33614683 -5.875 8 C-6.96554687 8.37125 -8.05609375 8.7425 -9.1796875 9.125 C-12 10 -12 10 -14 10 C-13.83984375 8.203125 -13.83984375 8.203125 -13 6 C-10.56640625 4.296875 -10.56640625 4.296875 -7.5625 2.75 C-6.57378906 2.22921875 -5.58507812 1.7084375 -4.56640625 1.171875 C-2 0 -2 0 0 0 Z " fill="#A46BBA" transform="translate(275,517)"/>
<path d="M0 0 C0.99 0.33 1.98 0.66 3 1 C3 18.82 3 36.64 3 55 C2.34 55 1.68 55 1 55 C0.67 36.85 0.34 18.7 0 0 Z " fill="#914DAC" transform="translate(275,390)"/>
<path d="M0 0 C4.89434213 4.09526587 9.70720334 8.26357085 14 13 C14 13.33 14 13.66 14 14 C12.02 14.33 10.04 14.66 8 15 C8 14.34 8 13.68 8 13 C7.01 12.67 6.02 12.34 5 12 C4.67 10.02 4.34 8.04 4 6 C3.01 6 2.02 6 1 6 C0.67 4.02 0.34 2.04 0 0 Z " fill="#A864BE" transform="translate(109,289)"/>
<path d="M0 0 C0.33 0 0.66 0 1 0 C0.47650497 6.6198928 -0.84725064 12.31765553 -3.0625 18.5625 C-3.34416016 19.38041016 -3.62582031 20.19832031 -3.91601562 21.04101562 C-4.60235441 23.03023483 -5.2999845 25.0155524 -6 27 C-6.33 27 -6.66 27 -7 27 C-7.47825088 19.58711136 -5.99820738 14.71641437 -3 8 C-2.40461075 6.46294908 -1.82009164 4.92161224 -1.25 3.375 C-0.8375 2.26125 -0.425 1.1475 0 0 Z " fill="#B283C3" transform="translate(385,401)"/>
<path d="M0 0 C2.4375 0.6875 2.4375 0.6875 5 2 C5.8125 4.625 5.8125 4.625 6 7 C7.65 7 9.3 7 11 7 C11 8.32 11 9.64 11 11 C11.99 11.33 12.98 11.66 14 12 C15.6875 15.5625 15.6875 15.5625 17 19 C16.34 19 15.68 19 15 19 C15 18.34 15 17.68 15 17 C14.01 16.67 13.02 16.34 12 16 C7.4057666 11.5364083 3.56903504 6.29947627 0 1 C0 0.67 0 0.34 0 0 Z " fill="#A46FBC" transform="translate(84,462)"/>
<path d="M0 0 C0.66 0 1.32 0 2 0 C2 9.9 2 19.8 2 30 C-0.16926659 26.74610012 -0.24080049 25.86604043 -0.1953125 22.11328125 C-0.18886719 21.17548828 -0.18242188 20.23769531 -0.17578125 19.27148438 C-0.15902344 18.29501953 -0.14226562 17.31855469 -0.125 16.3125 C-0.11597656 15.32443359 -0.10695313 14.33636719 -0.09765625 13.31835938 C-0.0740843 10.87866235 -0.04118022 8.43945303 0 6 C-0.66 6 -1.32 6 -2 6 C-2 5.34 -2 4.68 -2 4 C-1.01 4 -0.02 4 1 4 C0.67 2.68 0.34 1.36 0 0 Z " fill="#8A47A4" transform="translate(107,406)"/>
<path d="M0 0 C0.99 0.33 1.98 0.66 3 1 C3.90473113 15.31485702 3.90473113 15.31485702 -0.7109375 21.64453125 C-2 23 -2 23 -4 24 C-4.1875 21.625 -4.1875 21.625 -4 19 C-3.01 18.34 -2.02 17.68 -1 17 C-0.37842768 14.71375347 -0.37842768 14.71375347 -0.25 12.125 C-0.17265625 11.26132812 -0.0953125 10.39765625 -0.015625 9.5078125 C0.10610151 7.03791809 0.10610151 7.03791809 -0.546875 4.8671875 C-1 3 -1 3 0 0 Z " fill="#A476B9" transform="translate(236,329)"/>
<path d="M0 0 C0 0.66 0 1.32 0 2 C-2.57952403 3.17578304 -5.16303938 4.340791 -7.75 5.5 C-8.47960937 5.83386719 -9.20921875 6.16773438 -9.9609375 6.51171875 C-10.66992188 6.82753906 -11.37890625 7.14335938 -12.109375 7.46875 C-12.75874023 7.76201172 -13.40810547 8.05527344 -14.07714844 8.35742188 C-16 9 -16 9 -20 9 C-20 7.02 -20 5.04 -20 3 C-18.68 2.34 -17.36 1.68 -16 1 C-16.33 2.65 -16.66 4.3 -17 6 C-11.84102341 4.58754233 -4.87553339 0 0 0 Z " fill="#A26DB9" transform="translate(295,513)"/>
<path d="M0 0 C4.66666667 4.66666667 9.33333333 9.33333333 14 14 C10.125 16 10.125 16 9 16 C9 14.35 9 12.7 9 11 C6.03 10.505 6.03 10.505 3 10 C2.67 8.68 2.34 7.36 2 6 C1.34 6 0.68 6 0 6 C0 4.02 0 2.04 0 0 Z " fill="#A265B8" transform="translate(130,487)"/>
<path d="M0 0 C1.0625 1.875 1.0625 1.875 2 4 C1.67 4.66 1.34 5.32 1 6 C0.85283458 7.80843663 0.7789113 9.62331566 0.75 11.4375 C0.72421875 12.40558594 0.6984375 13.37367188 0.671875 14.37109375 C1.05464702 17.43782669 1.75755067 18.01563307 4 20 C4.6875 23.1875 4.6875 23.1875 5 26 C-0.05361872 21.90247131 -2.08813732 17.45167356 -3 11 C-2.70680247 8.04814691 -1.99606701 5.83879099 -1 3 C-0.67 2.01 -0.34 1.02 0 0 Z " fill="#B587C4" transform="translate(198,327)"/>
<path d="M0 0 C0.33 0 0.66 0 1 0 C1 12.87 1 25.74 1 39 C-3.29425875 37.92643531 -3.74740471 37.4915227 -6 34 C-4.02 34.66 -2.04 35.32 0 36 C0 24.12 0 12.24 0 0 Z " fill="#C19BC9" transform="translate(244,260)"/>
<path d="M0 0 C0.66 0.33 1.32 0.66 2 1 C1 4 1 4 -2 6 C-2.33 6.99 -2.66 7.98 -3 9 C-3.639375 9.12375 -4.27875 9.2475 -4.9375 9.375 C-5.618125 9.58125 -6.29875 9.7875 -7 10 C-7.495 11.2375 -7.495 11.2375 -8 12.5 C-8.495 13.7375 -8.495 13.7375 -9 15 C-11 15.6875 -11 15.6875 -13 16 C-13.66 16.66 -14.32 17.32 -15 18 C-15.66 17.34 -16.32 16.68 -17 16 C-16.48050781 15.62488281 -15.96101563 15.24976563 -15.42578125 14.86328125 C-9.46255968 10.48731274 -4.53460324 5.87818938 0 0 Z " fill="#A877BB" transform="translate(303,492)"/>
<path d="M0 0 C4.25883667 3.04202619 7.38603243 6.4839539 10 11 C10 11.66 10 12.32 10 13 C9.01 13.33 8.02 13.66 7 14 C7 13.01 7 12.02 7 11 C5.35 10.67 3.7 10.34 2 10 C1.690625 9.05125 1.38125 8.1025 1.0625 7.125 C0.12605258 4.13919592 0.12605258 4.13919592 -1 2 C-0.67 1.34 -0.34 0.68 0 0 Z " fill="#B280C2" transform="translate(330,236)"/>
<path d="M0 0 C-0.6875 2.875 -0.6875 2.875 -2 6 C-4.625 7.375 -4.625 7.375 -7 8 C-8.32 6.35 -9.64 4.7 -11 3 C-9.73581754 2.30034557 -8.46334598 1.61565237 -7.1875 0.9375 C-6.47980469 0.55464844 -5.77210938 0.17179687 -5.04296875 -0.22265625 C-3 -1 -3 -1 0 0 Z " fill="#B787C3" transform="translate(252,23)"/>
<path d="M0 0 C0.33 0 0.66 0 1 0 C1.09038099 5.15171623 0.84681133 9.91913204 0 15 C-0.66 15 -1.32 15 -2 15 C-1.67 17.31 -1.34 19.62 -1 22 C-2.65 22.66 -4.3 23.32 -6 24 C-4 16 -2 8 0 0 Z " fill="#B17EBE" transform="translate(328,439)"/>
<path d="M0 0 C0.33 0 0.66 0 1 0 C0.67 9.24 0.34 18.48 0 28 C-2.23413013 24.64880481 -2.23847762 23.5822245 -2.1953125 19.67578125 C-2.18886719 18.64775391 -2.18242187 17.61972656 -2.17578125 16.56054688 C-2.15064453 14.95276367 -2.15064453 14.95276367 -2.125 13.3125 C-2.11597656 12.22904297 -2.10695313 11.14558594 -2.09765625 10.02929688 C-2.0740734 7.3526429 -2.04116126 4.67643203 -2 2 C-1.34 2 -0.68 2 0 2 C0 1.34 0 0.68 0 0 Z " fill="#BB8CC6" transform="translate(267,239)"/>
<path d="M0 0 C0.33 0 0.66 0 1 0 C1.33 9.57 1.66 19.14 2 29 C1.01 28.67 0.02 28.34 -1 28 C-1.10731538 18.60394198 -0.99263429 9.35912329 0 0 Z " fill="#AC78BC" transform="translate(148,154)"/>
<path d="M0 0 C0 1.32 0 2.64 0 4 C-0.99 4.33 -1.98 4.66 -3 5 C-3.598125 6.155 -4.19625 7.31 -4.8125 8.5 C-5.81640625 10.41015625 -5.81640625 10.41015625 -7 12 C-10.25 12.9375 -10.25 12.9375 -13 13 C-11.48818898 9.22047244 -11.48818898 9.22047244 -9.0625 8.125 C-6.05657841 6.4854064 -5.41861413 4.03067565 -4 1 C-2 0 -2 0 0 0 Z " fill="#9953B3" transform="translate(318,479)"/>
<path d="M0 0 C1.98 0 3.96 0 6 0 C6 0.66 6 1.32 6 2 C4.27281484 2.96189997 2.54315942 3.91936508 0.8125 4.875 C-0.15042969 5.40867187 -1.11335938 5.94234375 -2.10546875 6.4921875 C-4.69739518 7.8423678 -7.26761098 8.97098329 -10 10 C-10 9.01 -10 8.02 -10 7 C-9.01 7 -8.02 7 -7 7 C-6.67 6.01 -6.34 5.02 -6 4 C-4.02 4 -2.04 4 0 4 C0 2.68 0 1.36 0 0 Z " fill="#9C5EB7" transform="translate(306,504)"/>
<path d="M0 0 C0.66 1.32 1.32 2.64 2 4 C1.34 4 0.68 4 0 4 C0.020625 5.2375 0.04125 6.475 0.0625 7.75 C0.0625 10.68300574 -0.09670757 13.18975689 -1 16 C-1.185625 16.7425 -1.37125 17.485 -1.5625 18.25 C-1.7790625 19.11625 -1.7790625 19.11625 -2 20 C-2.66 20 -3.32 20 -4 20 C-4.33 20.66 -4.66 21.32 -5 22 C-4.38955672 14.36945905 -2.20378179 7.29810526 0 0 Z " fill="#B180C0" transform="translate(62,321)"/>
<path d="M0 0 C0.33 0 0.66 0 1 0 C1.33 3.96 1.66 7.92 2 12 C2.33 12 2.66 12 3 12 C2.979375 13.0725 2.95875 14.145 2.9375 15.25 C2.9857984 18.14790424 3.13155885 20.28612141 4 23 C2.68 23 1.36 23 0 23 C0 15.41 0 7.82 0 0 Z " fill="#9155A7" transform="translate(231,508)"/>
<path d="M0 0 C2.96404505 2.80804268 5.44499019 5.18315774 7 9 C4.69 9.33 2.38 9.66 0 10 C-0.12375 8.865625 -0.2475 7.73125 -0.375 6.5625 C-0.58125 5.386875 -0.7875 4.21125 -1 3 C-1.66 2.67 -2.32 2.34 -3 2 C-2.01 1.34 -1.02 0.68 0 0 Z " fill="#B27BC5" transform="translate(323,227)"/>
<path d="M0 0 C4.91935902 4.11619836 9.52647956 8.40410362 14 13 C13.34 13.66 12.68 14.32 12 15 C6.125 10.375 6.125 10.375 5 7 C4.34 6.71125 3.68 6.4225 3 6.125 C1 5 1 5 0.25 2.375 C0.1675 1.59125 0.085 0.8075 0 0 Z " fill="#A46CB6" transform="translate(276,369)"/>
<path d="M0 0 C1.45947705 0.06006078 2.91779272 0.1488689 4.375 0.25 C5.59316406 0.31960938 5.59316406 0.31960938 6.8359375 0.390625 C9 1 9 1 10.2890625 3.046875 C10.64097656 4.01367188 10.64097656 4.01367188 11 5 C6.99608513 6.60156595 3.92968808 5.4087561 0 4 C-0.33 3.34 -0.66 2.68 -1 2 C-0.67 1.34 -0.34 0.68 0 0 Z " fill="#924EAF" transform="translate(148,510)"/>
<path d="M0 0 C0.43570313 0.37511719 0.87140625 0.75023437 1.3203125 1.13671875 C5.18607599 4.45859777 9.07657648 7.74642927 13 11 C12.67 11.66 12.34 12.32 12 13 C9.525 12.01 9.525 12.01 7 11 C7 10.34 7 9.68 7 9 C5.68 8.67 4.36 8.34 3 8 C3 6.68 3 5.36 3 4 C2.01 4 1.02 4 0 4 C0 2.68 0 1.36 0 0 Z " fill="#A870BD" transform="translate(190,473)"/>
<path d="M0 0 C1.65 1.65 3.3 3.3 5 5 C4.34 6.98 3.68 8.96 3 11 C2.01 10.67 1.02 10.34 0 10 C-0.3721042 8.67696283 -0.70630173 7.34262065 -1 6 C-1.66 5.67 -2.32 5.34 -3 5 C-3 4.01 -3 3.02 -3 2 C-2.01 2 -1.02 2 0 2 C0 1.34 0 0.68 0 0 Z " fill="#A462BF" transform="translate(233,323)"/>
<path d="M0 0 C0.33 0 0.66 0 1 0 C1.02897435 4.27081914 1.04678996 8.54161309 1.0625 12.8125 C1.07087891 14.02744141 1.07925781 15.24238281 1.08789062 16.49414062 C1.09111328 17.65751953 1.09433594 18.82089844 1.09765625 20.01953125 C1.10289307 21.09307861 1.10812988 22.16662598 1.11352539 23.27270508 C1 26 1 26 0 29 C0.66 29 1.32 29 2 29 C1.67 30.32 1.34 31.64 1 33 C-1 31 -1 31 -1.13525391 27.92724609 C-1.08288574 26.63898926 -1.03051758 25.35073242 -0.9765625 24.0234375 C-0.95153656 23.33819 -0.92651062 22.6529425 -0.90072632 21.94692993 C-0.81847691 19.7557869 -0.72190952 17.56553889 -0.625 15.375 C-0.56676528 13.8906617 -0.50946189 12.40628654 -0.453125 10.921875 C-0.31289242 7.28076026 -0.15981249 3.6403138 0 0 Z " fill="#AA6BBF" transform="translate(267,293)"/>
<path d="M0 0 C2.96404505 2.80804268 5.44499019 5.18315774 7 9 C5.02 9 3.04 9 1 9 C1 7.68 1 6.36 1 5 C-0.98 5 -2.96 5 -5 5 C-5 4.34 -5 3.68 -5 3 C-2.5 1.375 -2.5 1.375 0 0 Z " fill="#B27CC4" transform="translate(303,203)"/>
<path d="M0 0 C-0.33 1.65 -0.66 3.3 -1 5 C-2.98 5.33 -4.96 5.66 -7 6 C-7.103125 6.598125 -7.20625 7.19625 -7.3125 7.8125 C-8.08876455 10.28243264 -9.07088921 11.32251235 -11 13 C-11.33 12.01 -11.66 11.02 -12 10 C-10.671875 8.02734375 -10.671875 8.02734375 -8.75 5.9375 C-8.12609375 5.24527344 -7.5021875 4.55304688 -6.859375 3.83984375 C-2.97876858 0 -2.97876858 0 0 0 Z " fill="#A874BD" transform="translate(208,393)"/>
<path d="M0 0 C0.625 1.875 0.625 1.875 1 4 C-1 6 -1 6 -3 7 C-2.67 8.32 -2.34 9.64 -2 11 C-3.98 11 -5.96 11 -8 11 C-8.33 11.66 -8.66 12.32 -9 13 C-8.51286902 8.58489226 -7.14946803 6.69553355 -3.9375 3.6875 C-3.20402344 2.99011719 -2.47054687 2.29273438 -1.71484375 1.57421875 C-1.14894531 1.05472656 -0.58304688 0.53523438 0 0 Z " fill="#AE6BC4" transform="translate(153,375)"/>
<path d="M0 0 C2.09350689 3.4019487 2.17942163 6.05272412 2 10 C-0.97 9.505 -0.97 9.505 -4 9 C-4.25 6.1875 -4.25 6.1875 -4 3 C-2 1.125 -2 1.125 0 0 Z " fill="#B07BC6" transform="translate(213,46)"/>
<path d="M0 0 C0.33 0 0.66 0 1 0 C1 5.28 1 10.56 1 16 C0.34 16 -0.32 16 -1 16 C-1.66 16.99 -2.32 17.98 -3 19 C-3.84098656 14.98195309 -4.05404945 11.98196457 -3 8 C-2.01 8 -1.02 8 0 8 C0 5.36 0 2.72 0 0 Z " fill="#B47AC5" transform="translate(245,39)"/>
<path d="M0 0 C3.63 1.98 7.26 3.96 11 6 C11 6.66 11 7.32 11 8 C6.16371695 7.00956295 1.52381127 6.04301154 -3 4 C-1.68 3.67 -0.36 3.34 1 3 C0.67 2.67 0.34 2.34 0 2 C0 1.34 0 0.68 0 0 Z " fill="#BA90C1" transform="translate(163,516)"/>
<path d="M0 0 C0.99 0.33 1.98 0.66 3 1 C3 1.99 3 2.98 3 4 C3.66 4 4.32 4 5 4 C5.99 5.485 5.99 5.485 7 7 C7.680625 7.33 8.36125 7.66 9.0625 8 C11 9 11 9 12 12 C10.02 12.99 10.02 12.99 8 14 C6.66101601 12.04532248 5.32870953 10.0866421 4 8.125 C3.2575 7.03445313 2.515 5.94390625 1.75 4.8203125 C0 2 0 2 0 0 Z " fill="#9E63B8" transform="translate(75,448)"/>
<path d="M0 0 C0.85178626 2.38500154 1.09806909 3.6665651 0.375 6.125 C-1.4744382 8.64696118 -3.02658193 9.07995503 -6 10 C-8.89453125 9.9765625 -8.89453125 9.9765625 -11.8125 9.625 C-13.27623047 9.45871094 -13.27623047 9.45871094 -14.76953125 9.2890625 C-15.50558594 9.19367188 -16.24164063 9.09828125 -17 9 C-16.67 8.01 -16.34 7.02 -16 6 C-15.34 6.33 -14.68 6.66 -14 7 C-10.94313036 7.41309049 -8.04881414 7.49909413 -5 7 C-2.63123574 4.74967395 -1.44152611 2.88305222 0 0 Z " fill="#BB91D3" transform="translate(228,417)"/>
<path d="M0 0 C0.33 0 0.66 0 1 0 C1 6.6 1 13.2 1 20 C-2.07282421 15.39076369 -2.43899959 11.42113451 -2 6 C-1 2.5 -1 2.5 0 0 Z " fill="#B580C4" transform="translate(195,405)"/>
<path d="M0 0 C0.66 0.99 1.32 1.98 2 3 C0.02 3.66 -1.96 4.32 -4 5 C-4 5.99 -4 6.98 -4 8 C-6.31 8.66 -8.62 9.32 -11 10 C-10.81640625 8.203125 -10.81640625 8.203125 -10 6 C-7.71484375 4.296875 -7.71484375 4.296875 -4.9375 2.75 C-3.55884766 1.96882813 -3.55884766 1.96882813 -2.15234375 1.171875 C-1.44207031 0.78515625 -0.73179687 0.3984375 0 0 Z " fill="#B78BC7" transform="translate(240,27)"/>
<path d="M0 0 C0.33 0.99 0.66 1.98 1 3 C0.34 3 -0.32 3 -1 3 C-0.67 2.01 -0.34 1.02 0 0 Z M-3 3 C-2.34 3 -1.68 3 -1 3 C-0.67 3.66 -0.34 4.32 0 5 C0.99 5.33 1.98 5.66 3 6 C1.47005208 7.23697917 -0.05989583 8.47395833 -1.58984375 9.7109375 C-3.13266437 10.9666391 -3.13266437 10.9666391 -4 13 C-4.66 13 -5.32 13 -6 13 C-6.33 13.66 -6.66 14.32 -7 15 C-6.67 13.35 -6.34 11.7 -6 10 C-4.68 9.67 -3.36 9.34 -2 9 C-2.33 7.02 -2.66 5.04 -3 3 Z " fill="#AC75C1" transform="translate(269,466)"/>
<path d="M0 0 C1.15518918 0.90484792 2.29885406 1.8244206 3.4375 2.75 C4.07558594 3.26046875 4.71367187 3.7709375 5.37109375 4.296875 C7.18810554 6.19667629 7.60423197 7.43586908 8 10 C5.69 9.34 3.38 8.68 1 8 C1 6.68 1 5.36 1 4 C0.34 3.67 -0.32 3.34 -1 3 C-0.67 2.01 -0.34 1.02 0 0 Z " fill="#9D60B2" transform="translate(136,316)"/>
<path d="M0 0 C0.99 0 1.98 0 3 0 C5.04296875 2.40625 5.04296875 2.40625 7.1875 5.5 C8.26064453 7.03140625 8.26064453 7.03140625 9.35546875 8.59375 C9.89816406 9.3878125 10.44085938 10.181875 11 11 C10.01 11.33 9.02 11.66 8 12 C7.67 10.68 7.34 9.36 7 8 C6.34 8 5.68 8 5 8 C5 7.34 5 6.68 5 6 C3.68 5.67 2.36 5.34 1 5 C0.67 3.35 0.34 1.7 0 0 Z " fill="#AF7BBC" transform="translate(137,225)"/>
<path d="M0 0 C0.66 0.33 1.32 0.66 2 1 C1.67 1.99 1.34 2.98 1 4 C0.34 4 -0.32 4 -1 4 C-1.309375 5.093125 -1.61875 6.18625 -1.9375 7.3125 C-2.58337897 9.55407994 -3.2623117 11.7869351 -4 14 C-4.66 14 -5.32 14 -6 14 C-5.71640113 12.5608866 -5.42278601 11.12374482 -5.125 9.6875 C-4.96257812 8.88699219 -4.80015625 8.08648437 -4.6328125 7.26171875 C-4 5 -4 5 -2 2 C-1.34 2 -0.68 2 0 2 C0 1.34 0 0.68 0 0 Z " fill="#A366B6" transform="translate(69,307)"/>
<path d="M0 0 C0.66 0.33 1.32 0.66 2 1 C0.61166236 5.41743795 -1.39713352 8.0833938 -5 11 C-7.1640625 10.6328125 -7.1640625 10.6328125 -9 10 C-8.04882866 8.8274869 -7.08882991 7.66212985 -6.125 6.5 C-5.32449219 5.52546875 -5.32449219 5.52546875 -4.5078125 4.53125 C-4.01023438 4.0259375 -3.51265625 3.520625 -3 3 C-2.34 3 -1.68 3 -1 3 C-0.67 2.01 -0.34 1.02 0 0 Z " fill="#B98BC6" transform="translate(193,64)"/>
<path d="M0 0 C0.99 0.33 1.98 0.66 3 1 C2.125 5.75 2.125 5.75 1 8 C-3.75 7.25 -3.75 7.25 -6 5 C-5.195625 4.731875 -4.39125 4.46375 -3.5625 4.1875 C-2.716875 3.795625 -1.87125 3.40375 -1 3 C-0.67 2.01 -0.34 1.02 0 0 Z " fill="#9346B6" transform="translate(133,497)"/>
<path d="M0 0 C0.33 0.66 0.66 1.32 1 2 C-1.01577062 6.50584021 -3.83128248 8.49876949 -8 11 C-8.66 10.67 -9.32 10.34 -10 10 C-6.7 6.7 -3.4 3.4 0 0 Z " fill="#B47DC7" transform="translate(267,452)"/>
<path d="M0 0 C4.13621084 3.3810038 7.81316569 6.66590534 11 11 C7.81390075 10.64598897 6.20933322 10.16972964 3.6875 8.125 C2 6 2 6 2 3 C1.34 3 0.68 3 0 3 C0 2.01 0 1.02 0 0 Z " fill="#BA93C9" transform="translate(154,244)"/>
<path d="M0 0 C0.33 0.66 0.66 1.32 1 2 C-0.1875 5.0625 -0.1875 5.0625 -2 8 C-4 8.6875 -4 8.6875 -6 9 C-7.73026102 10.47890069 -7.73026102 10.47890069 -9 12 C-9.66 11.67 -10.32 11.34 -11 11 C-7.37 7.37 -3.74 3.74 0 0 Z " fill="#AD7BC2" transform="translate(256,463)"/>
<path d="M0 0 C1.12894876 0.93274109 2.25300876 1.87140122 3.375 2.8125 C4.00148438 3.33457031 4.62796875 3.85664063 5.2734375 4.39453125 C7 6 7 6 9 9 C7.35 9 5.7 9 4 9 C4 8.01 4 7.02 4 6 C3.01 6 2.02 6 1 6 C0.67 4.02 0.34 2.04 0 0 Z " fill="#AF70BE" transform="translate(109,289)"/>
<path d="M0 0 C1.32 0.33 2.64 0.66 4 1 C4.33 2.98 4.66 4.96 5 7 C4.34 6.67 3.68 6.34 3 6 C1.32345271 6.27942455 -0.34608154 6.60828247 -2 7 C-1.34 4.69 -0.68 2.38 0 0 Z " fill="#BA91C4" transform="translate(126,200)"/>
<path d="M0 0 C2.64 0 5.28 0 8 0 C7.06725891 1.12894876 6.12859878 2.25300876 5.1875 3.375 C4.66542969 4.00148438 4.14335937 4.62796875 3.60546875 5.2734375 C2 7 2 7 -1 9 C-0.67 7.68 -0.34 6.36 0 5 C0.66 5 1.32 5 2 5 C1.34 3.35 0.68 1.7 0 0 Z " fill="#AC6CBE" transform="translate(276,459)"/>
<path d="M0 0 C3.465 1.98 3.465 1.98 7 4 C7 4.33 7 4.66 7 5 C5.02 5 3.04 5 1 5 C0.67 5.99 0.34 6.98 0 8 C-2.475 7.01 -2.475 7.01 -5 6 C-3.68 5.67 -2.36 5.34 -1 5 C-0.67 3.35 -0.34 1.7 0 0 Z " fill="#A163BC" transform="translate(148,506)"/>
<path d="M0 0 C0.99 0 1.98 0 3 0 C3.33 1.98 3.66 3.96 4 6 C2.35 6.33 0.7 6.66 -1 7 C-1 3 -1 3 0 0 Z " fill="#934CB1" transform="translate(314,496)"/>
<path d="M0 0 C1.4835001 0.42257276 2.96176424 0.86356322 4.4375 1.3125 C5.67306641 1.67794922 5.67306641 1.67794922 6.93359375 2.05078125 C7.95646484 2.52064453 7.95646484 2.52064453 9 3 C9.33 3.99 9.66 4.98 10 6 C8.14375 5.7215625 8.14375 5.7215625 6.25 5.4375 C3.23720423 5.05288777 0.89989173 4.9125406 -2 6 C-1.34 4.02 -0.68 2.04 0 0 Z " fill="#A670BF" transform="translate(214,400)"/>
<path d="M0 0 C4.2742558 1.5830577 6.26531794 4.50568404 9 8 C8.01 8.495 8.01 8.495 7 9 C7 8.34 7 7.68 7 7 C5.35 7 3.7 7 2 7 C1.855625 6.401875 1.71125 5.80375 1.5625 5.1875 C1.1127561 3.43849596 0.57107659 1.71322977 0 0 Z " fill="#A873BF" transform="translate(170,455)"/>
<path d="M0 0 C0.598125 0.226875 1.19625 0.45375 1.8125 0.6875 C1.1525 0.6875 0.4925 0.6875 -0.1875 0.6875 C-1.1775 3.9875 -2.1675 7.2875 -3.1875 10.6875 C-5.1875 8.6875 -5.1875 8.6875 -5.5 5.75 C-5.1875 2.6875 -5.1875 2.6875 -3.9375 0.75 C-2.1875 -0.3125 -2.1875 -0.3125 0 0 Z " fill="#A771BB" transform="translate(210.1875,406.3125)"/>
<path d="M0 0 C0 3 0 3 -1.75 4.82421875 C-2.4925 5.43910156 -3.235 6.05398438 -4 6.6875 C-4.7425 7.31011719 -5.485 7.93273437 -6.25 8.57421875 C-6.8275 9.04472656 -7.405 9.51523437 -8 10 C-8.33 8.68 -8.66 7.36 -9 6 C-8.01 6 -7.02 6 -6 6 C-6 5.01 -6 4.02 -6 3 C-2.66666667 0 -2.66666667 0 0 0 Z " fill="#9F6CB6" transform="translate(182,369)"/>
<path d="M0 0 C2.08410658 0.08733973 4.16734669 0.19552278 6.25 0.3125 C7.99023438 0.39951172 7.99023438 0.39951172 9.765625 0.48828125 C13.10819638 1.01711803 14.5497057 1.73772333 17 4 C16.67 4.66 16.34 5.32 16 6 C14.845 5.525625 13.69 5.05125 12.5 4.5625 C8.31429668 2.97791232 4.44761014 2.39710805 0 2 C0 1.34 0 0.68 0 0 Z " fill="#AD77BD" transform="translate(216,317)"/>
<path d="M0 0 C1.65 0.33 3.3 0.66 5 1 C4.25 3.4375 4.25 3.4375 3 6 C0.875 6.8125 0.875 6.8125 -1 7 C-1.33 6.01 -1.66 5.02 -2 4 C-1.34 4 -0.68 4 0 4 C0 2.68 0 1.36 0 0 Z " fill="#A76FBA" transform="translate(167,309)"/>
<path d="M0 0 C0.33 0.66 0.66 1.32 1 2 C1.61875 2.28875 2.2375 2.5775 2.875 2.875 C5.36796335 4.19480413 6.45147781 5.67721672 8 8 C2.25 7.25 2.25 7.25 0 5 C-0.125 2.375 -0.125 2.375 0 0 Z " fill="#BC91CB" transform="translate(165,255)"/>
<path d="M0 0 C0.66 0 1.32 0 2 0 C2 1.65 2 3.3 2 5 C1.01 5.33 0.02 5.66 -1 6 C-0.67 7.65 -0.34 9.3 0 11 C-1.32 11 -2.64 11 -4 11 C-3.52269162 9.5410574 -3.04308958 8.08286504 -2.5625 6.625 C-2.29566406 5.81289062 -2.02882812 5.00078125 -1.75390625 4.1640625 C-1 2 -1 2 0 0 Z " fill="#B481C2" transform="translate(157,115)"/>
<path d="M0 0 C0.66 0 1.32 0 2 0 C1.63287028 2.71675995 1.27255401 4.61063713 -0.3125 6.875 C-1.1478125 7.431875 -1.1478125 7.431875 -2 8 C-4.10546875 7.5703125 -4.10546875 7.5703125 -6 7 C-5.04882866 5.8274869 -4.08882991 4.66212985 -3.125 3.5 C-2.59132813 2.8503125 -2.05765625 2.200625 -1.5078125 1.53125 C-0.76144531 0.77328125 -0.76144531 0.77328125 0 0 Z " fill="#A675BE" transform="translate(274,444)"/>
<path d="M0 0 C1.65 0 3.3 0 5 0 C5.66 3.63 6.32 7.26 7 11 C6.34 11 5.68 11 5 11 C4.72285156 10.37351562 4.44570312 9.74703125 4.16015625 9.1015625 C3.79792969 8.28429687 3.43570313 7.46703125 3.0625 6.625 C2.70285156 5.81289063 2.34320313 5.00078125 1.97265625 4.1640625 C1.3430097 2.76316215 0.68687358 1.37374716 0 0 Z " fill="#AC78BC" transform="translate(224,406)"/>
<path d="M0 0 C0.66 0 1.32 0 2 0 C2 0.66 2 1.32 2 2 C1.34 2 0.68 2 0 2 C-0.33 2.99 -0.66 3.98 -1 5 C-1.66 5 -2.32 5 -3 5 C-3.66 6.65 -4.32 8.3 -5 10 C-6.32 9.67 -7.64 9.34 -9 9 C-8.51789063 8.60167969 -8.03578125 8.20335937 -7.5390625 7.79296875 C-6.90742188 7.26316406 -6.27578125 6.73335938 -5.625 6.1875 C-4.99851563 5.66542969 -4.37203125 5.14335937 -3.7265625 4.60546875 C-1.7778952 2.91774261 -1.7778952 2.91774261 0 0 Z " fill="#BC93CA" transform="translate(163,365)"/>
<path d="M0 0 C-1.3697164 3.99500618 -3.25722422 6.80009492 -6 10 C-6 7.33333333 -6 4.66666667 -6 2 C-2.25 0 -2.25 0 0 0 Z " fill="#AC76C2" transform="translate(369,447)"/>
<path d="M0 0 C1.65 0.33 3.3 0.66 5 1 C4.67 2.65 4.34 4.3 4 6 C3.01 6 2.02 6 1 6 C1 5.34 1 4.68 1 4 C0.34 4 -0.32 4 -1 4 C-0.67 2.68 -0.34 1.36 0 0 Z " fill="#9A50B8" transform="translate(314,369)"/>
<path d="M0 0 C2.31 1.98 4.62 3.96 7 6 C6.01 7.485 6.01 7.485 5 9 C2.5 6.75 2.5 6.75 0 4 C0 2.68 0 1.36 0 0 Z " fill="#AA6FBC" transform="translate(102,282)"/>
<path d="M0 0 C1.65 0 3.3 0 5 0 C4.67 1.32 4.34 2.64 4 4 C3.195625 4.12375 2.39125 4.2475 1.5625 4.375 C0.2940625 4.684375 0.2940625 4.684375 -1 5 C-1.33 5.66 -1.66 6.32 -2 7 C-2 5.68 -2 4.36 -2 3 C-1.34 3 -0.68 3 0 3 C0 2.01 0 1.02 0 0 Z " fill="#9C5BB6" transform="translate(270,466)"/>
<path d="M0 0 C0.33 0.99 0.66 1.98 1 3 C3.01508358 3.73323796 3.01508358 3.73323796 5 4 C4.01 5.485 4.01 5.485 3 7 C2.01 6.67 1.02 6.34 0 6 C0 5.34 0 4.68 0 4 C-0.99 4.33 -1.98 4.66 -3 5 C-1.125 1.125 -1.125 1.125 0 0 Z " fill="#A86AC7" transform="translate(202,322)"/>
<path d="M0 0 C2.31966166 2.84685749 3.91581154 5.4763875 5 9 C4.67 9.99 4.34 10.98 4 12 C1.95780294 10.30820672 1.08206694 9.36272334 0.48828125 6.73828125 C0.43027344 5.93777344 0.37226563 5.13726562 0.3125 4.3125 C0.24675781 3.50425781 0.18101562 2.69601562 0.11328125 1.86328125 C0.07589844 1.24839844 0.03851563 0.63351562 0 0 Z " fill="#B887C8" transform="translate(375,305)"/>
<path d="M0 0 C0.33 0.66 0.66 1.32 1 2 C3.97 2 6.94 2 10 2 C10 2.99 10 3.98 10 5 C6.7 4.67 3.4 4.34 0 4 C0 2.68 0 1.36 0 0 Z " fill="#A978BC" transform="translate(189,525)"/>
<path d="M0 0 C1.32 0 2.64 0 4 0 C4 2.64 4 5.28 4 8 C3.01 8.495 3.01 8.495 2 9 C1.22678118 6.01758453 0.58803797 3.02419525 0 0 Z " fill="#8D3BB0" transform="translate(104,433)"/>
<path d="M0 0 C0.33 0 0.66 0 1 0 C1.16682272 4.92127034 1.24828052 8.50343896 -1 13 C-1.33 13 -1.66 13 -2 13 C-2.05447047 11.58376784 -2.09300508 10.16691809 -2.125 8.75 C-2.14820313 7.96109375 -2.17140625 7.1721875 -2.1953125 6.359375 C-1.9828378 3.79268059 -1.28654105 2.2083933 0 0 Z " fill="#AC7BBD" transform="translate(380,415)"/>
<path d="M0 0 C2 2 2 2 2.13525391 3.87939453 C2.08288574 4.62302246 2.03051758 5.36665039 1.9765625 6.1328125 C1.89921875 7.34130859 1.89921875 7.34130859 1.8203125 8.57421875 C1.75585938 9.41597656 1.69140625 10.25773437 1.625 11.125 C1.56828125 11.97449219 1.5115625 12.82398438 1.453125 13.69921875 C1.31149023 15.8001345 1.15695674 17.90017334 1 20 C0.67 20 0.34 20 0 20 C0 14.06 0 8.12 0 2 C-0.99 1.67 -1.98 1.34 -3 1 C-2.01 0.67 -1.02 0.34 0 0 Z " fill="#9E64B5" transform="translate(212,356)"/>
<path d="M0 0 C0.33 0 0.66 0 1 0 C0.67 2.97 0.34 5.94 0 9 C-1.32 9.33 -2.64 9.66 -4 10 C-3.52449439 8.51965236 -3.04448784 7.04074979 -2.5625 5.5625 C-2.29566406 4.73878906 -2.02882813 3.91507812 -1.75390625 3.06640625 C-1 1 -1 1 0 0 Z " fill="#B583C3" transform="translate(71,299)"/>
<path d="M0 0 C3.27286682 2.7819368 4.96427697 6.27954067 7 10 C6.34 10 5.68 10 5 10 C5 9.34 5 8.68 5 8 C4.01 8.33 3.02 8.66 2 9 C0 2.25 0 2.25 0 0 Z " fill="#B78DC9" transform="translate(354,268)"/>
<path d="M0 0 C1.32 0.33 2.64 0.66 4 1 C3.690625 1.598125 3.38125 2.19625 3.0625 2.8125 C1.89790296 5.08956772 1.89790296 5.08956772 1 8 C0.01 8.33 -0.98 8.66 -2 9 C-1.34 6.03 -0.68 3.06 0 0 Z " fill="#B784C8" transform="translate(152,127)"/>
<path d="M0 0 C0.33 0.66 0.66 1.32 1 2 C1.99 2.66 2.98 3.32 4 4 C1.03 4.66 -1.94 5.32 -5 6 C-4 2 -4 2 -1.9375 0.75 C-1.298125 0.5025 -0.65875 0.255 0 0 Z " fill="#CEAFD3" transform="translate(266,521)"/>
<path d="M0 0 C2.97 0.33 5.94 0.66 9 1 C8.34 2.32 7.68 3.64 7 5 C3.34683329 3.75023244 2.21934164 3.32901247 0 0 Z " fill="#A05EBD" transform="translate(120,497)"/>
<path d="M0 0 C3.77545388 1.09068668 6.47043472 1.9083091 9 5 C8.67 5.99 8.34 6.98 8 8 C7.67 7.34 7.34 6.68 7 6 C6.38125 5.71125 5.7625 5.4225 5.125 5.125 C2.63203665 3.80519587 1.54852219 2.32278328 0 0 Z " fill="#A871BD" transform="translate(174,481)"/>
<path d="M0 0 C0.66 1.32 1.32 2.64 2 4 C-1.75 9.875 -1.75 9.875 -4 11 C-4.1875 8.625 -4.1875 8.625 -4 6 C-3.01 5.34 -2.02 4.68 -1 4 C-0.27617533 1.94074861 -0.27617533 1.94074861 0 0 Z " fill="#B88BC8" transform="translate(236,342)"/>
<path d="M0 0 C2 3 2 3 1.625 5.6875 C1.41875 6.450625 1.2125 7.21375 1 8 C-0.65 6.35 -2.3 4.7 -4 3 C-2.68 2.67 -1.36 2.34 0 2 C0 1.34 0 0.68 0 0 Z " fill="#9F5EBA" transform="translate(173,473)"/>
<path d="M0 0 C0.33 0 0.66 0 1 0 C1.33 2.97 1.66 5.94 2 9 C0.35 9.66 -1.3 10.32 -3 11 C-2.01 7.37 -1.02 3.74 0 0 Z " fill="#B981C7" transform="translate(325,452)"/>
<path d="M0 0 C0.99 0.99 1.98 1.98 3 3 C2.67 3.99 2.34 4.98 2 6 C2.66 6.33 3.32 6.66 4 7 C1 7 1 7 -0.6875 5.5 C-1.120625 5.005 -1.55375 4.51 -2 4 C-1.34 2.68 -0.68 1.36 0 0 Z " fill="#AB71BB" transform="translate(147,450)"/>
<path d="M0 0 C0.33 0.99 0.66 1.98 1 3 C1.66 3 2.32 3 3 3 C3.80967438 5.91482778 4.21845993 7.46113217 3.0625 10.3125 C2.5365625 11.1478125 2.5365625 11.1478125 2 12 C0.70756464 7.8803623 -0.26252625 4.33168317 0 0 Z " fill="#A978C0" transform="translate(58,403)"/>
<path d="M0 0 C0.99 0.33 1.98 0.66 3 1 C3 4.63 3 8.26 3 12 C2.67 12 2.34 12 2 12 C0.86235649 7.73383684 0 4.43513689 0 0 Z " fill="#AE7ABC" transform="translate(324,393)"/>
<path d="M0 0 C0.99 0.33 1.98 0.66 3 1 C4.1875 4.5625 4.1875 4.5625 5 8 C4.01 8 3.02 8 2 8 C2 6.68 2 5.36 2 4 C1.01 3.67 0.02 3.34 -1 3 C-0.67 2.01 -0.34 1.02 0 0 Z " fill="#B789C2" transform="translate(91,264)"/>
<path d="M0 0 C2.375 0.25 2.375 0.25 5 1 C6.375 2.9375 6.375 2.9375 7 5 C6.67 5.66 6.34 6.32 6 7 C5.01 6.34 4.02 5.68 3 5 C3 4.34 3 3.68 3 3 C2.34 3 1.68 3 1 3 C0.67 2.01 0.34 1.02 0 0 Z " fill="#B181C0" transform="translate(200,257)"/>
<path d="M0 0 C1.32 1.65 2.64 3.3 4 5 C3.67 5.66 3.34 6.32 3 7 C1.02 6.34 -0.96 5.68 -3 5 C-2.67 4.01 -2.34 3.02 -2 2 C-1.67 2.66 -1.34 3.32 -1 4 C-0.67 2.68 -0.34 1.36 0 0 Z " fill="#B67FC8" transform="translate(341,249)"/>
<path d="M0 0 C1.32 0.33 2.64 0.66 4 1 C4 1.66 4 2.32 4 3 C-1.75 6 -1.75 6 -4 6 C-4 5.01 -4 4.02 -4 3 C-3.01 3 -2.02 3 -1 3 C-0.67 2.01 -0.34 1.02 0 0 Z " fill="#A36EB8" transform="translate(300,508)"/>
<path d="M0 0 C0.66 1.32 1.32 2.64 2 4 C0.02 6.97 0.02 6.97 -2 10 C-2.6875 8.375 -2.6875 8.375 -3 6 C-1.5625 2.75 -1.5625 2.75 0 0 Z " fill="#AF7FC1" transform="translate(239,421)"/>
<path d="M0 0 C0.66 0 1.32 0 2 0 C2.73080266 1.97746603 3.39421747 3.98072489 4 6 C3.67 6.66 3.34 7.32 3 8 C2.34 8 1.68 8 1 8 C-0.35439668 5.29120665 -0.06501451 2.99066732 0 0 Z " fill="#8F49A8" transform="translate(56,390)"/>
<path d="M0 0 C0.66 0 1.32 0 2 0 C2.33 0.99 2.66 1.98 3 3 C0.03 5.475 0.03 5.475 -3 8 C-2.67 6.35 -2.34 4.7 -2 3 C-1.34 3 -0.68 3 0 3 C0 2.01 0 1.02 0 0 Z " fill="#9C62B3" transform="translate(170,377)"/>
<path d="M0 0 C1.125 1.5625 1.125 1.5625 2 4 C1.125 7.75 1.125 7.75 0 11 C-0.66 11 -1.32 11 -2 11 C-1 3.57142857 -1 3.57142857 0 0 Z " fill="#B080C0" transform="translate(115,227)"/>
<path d="M0 0 C2.31 0.66 4.62 1.32 7 2 C5.68 3.65 4.36 5.3 3 7 C0 2.25 0 2.25 0 0 Z " fill="#B484C3" transform="translate(158,210)"/>
<path d="M0 0 C1.98362069 2.91708924 1.9876191 4.12380904 1.625 7.75 C1.41875 8.8225 1.2125 9.895 1 11 C-0.98362069 8.08291076 -0.9876191 6.87619096 -0.625 3.25 C-0.41875 2.1775 -0.2125 1.105 0 0 Z " fill="#AE76C3" transform="translate(328,402)"/>
<path d="M0 0 C0.33 0.66 0.66 1.32 1 2 C0.22265625 3.7265625 0.22265625 3.7265625 -0.9375 5.625 C-1.618125 6.73875 -2.29875 7.8525 -3 9 C-3.66 8.01 -4.32 7.02 -5 6 C-3.35 4.02 -1.7 2.04 0 0 Z " fill="#A26BB6" transform="translate(201,397)"/>
<path d="M0 0 C2.12508244 3.18762365 2.5020163 5.26512223 3 9 C2.01 9 1.02 9 0 9 C-1.10844919 5.67465243 -0.84454356 3.37817425 0 0 Z " fill="#AB80C0" transform="translate(380,318)"/>
<path d="M0 0 C0.99 0.33 1.98 0.66 3 1 C2.67 2.65 2.34 4.3 2 6 C0.68 5.67 -0.64 5.34 -2 5 C-1.125 1.125 -1.125 1.125 0 0 Z " fill="#9A4EB5" transform="translate(148,289)"/>
<path d="M0 0 C2.9719385 1.12451727 5.33440687 2.22293791 8 4 C7.67 5.32 7.34 6.64 7 8 C6.67 7.01 6.34 6.02 6 5 C5.01 4.67 4.02 4.34 3 4 C3 3.34 3 2.68 3 2 C2.01 1.67 1.02 1.34 0 1 C0 0.67 0 0.34 0 0 Z " fill="#9959AF" transform="translate(223,278)"/>
<path d="M0 0 C1.65 0 3.3 0 5 0 C5 1.32 5 2.64 5 4 C5.66 4 6.32 4 7 4 C6.67 4.99 6.34 5.98 6 7 C4.02 4.69 2.04 2.38 0 0 Z " fill="#B47BC2" transform="translate(121,270)"/>
<path d="M0 0 C0.66 0 1.32 0 2 0 C4.09350689 3.4019487 4.17942163 6.05272412 4 10 C1.16625119 6.79663178 0.4794463 4.21912747 0 0 Z " fill="#AB80BD" transform="translate(113,254)"/>
<path d="M0 0 C0 3 0 3 -1.5 4.6875 C-1.995 5.120625 -2.49 5.55375 -3 6 C-5 5 -5 5 -6 4 C-5.67 3.01 -5.34 2.02 -5 1 C-3.35 0.67 -1.7 0.34 0 0 Z " fill="#B481C6" transform="translate(201,60)"/>
<path d="M0 0 C0.66 0.33 1.32 0.66 2 1 C2 1.66 2 2.32 2 3 C2.66 3 3.32 3 4 3 C3.67 3.66 3.34 4.32 3 5 C0.03 4.505 0.03 4.505 -3 4 C-3 3.01 -3 2.02 -3 1 C-2.01 0.67 -1.02 0.34 0 0 Z " fill="#9355B1" transform="translate(161,515)"/>
<path d="M0 0 C0.99 0 1.98 0 3 0 C3 4.29 3 8.58 3 13 C2.67 13 2.34 13 2 13 C2 9.7 2 6.4 2 3 C1.34 3 0.68 3 0 3 C0 2.01 0 1.02 0 0 Z " fill="#985DB1" transform="translate(187,493)"/>
<path d="M0 0 C2.97 0.495 2.97 0.495 6 1 C6 1.66 6 2.32 6 3 C5.01 3 4.02 3 3 3 C2.67 3.66 2.34 4.32 2 5 C1.01 5 0.02 5 -1 5 C-0.67 3.35 -0.34 1.7 0 0 Z " fill="#8D40AA" transform="translate(177,465)"/>
<path d="M0 0 C2.475 0.99 2.475 0.99 5 2 C5 2.99 5 3.98 5 5 C4.01 5.33 3.02 5.66 2 6 C0 3 0 3 0 0 Z " fill="#A064BC" transform="translate(72,442)"/>
<path d="M0 0 C0.33 0.66 0.66 1.32 1 2 C-0.3125 4.625 -0.3125 4.625 -2 7 C-2.66 7 -3.32 7 -4 7 C-4.33 7.66 -4.66 8.32 -5 9 C-4.5206753 4.68607774 -3.2542015 2.83430453 0 0 Z " fill="#C495D0" transform="translate(149,379)"/>
<path d="M0 0 C0.66 0.33 1.32 0.66 2 1 C2 2.32 2 3.64 2 5 C2.99 5.33 3.98 5.66 5 6 C4.67 6.99 4.34 7.98 4 9 C-0.00390625 4.60546875 -0.00390625 4.60546875 -1 3 C-0.67 2.01 -0.34 1.02 0 0 Z " fill="#B488C6" transform="translate(299,352)"/>
<path d="M0 0 C0.99 0.66 1.98 1.32 3 2 C1.63016497 5.16115776 1.0109362 5.9927092 -2 8 C-2.33 7.01 -2.66 6.02 -3 5 C-2.01 5 -1.02 5 0 5 C0 3.35 0 1.7 0 0 Z " fill="#A76DBB" transform="translate(139,343)"/>
<path d="M0 0 C1.32 1.32 2.64 2.64 4 4 C2.35 4.66 0.7 5.32 -1 6 C-1 2 -1 2 0 0 Z " fill="#AA63C3" transform="translate(132,312)"/>
<path d="M0 0 C2.375 0.25 2.375 0.25 5 1 C6.3125 3.0625 6.3125 3.0625 7 5 C5.68 5.33 4.36 5.66 3 6 C0 2.25 0 2.25 0 0 Z " fill="#A976BF" transform="translate(117,264)"/>
<path d="M0 0 C2.125 0.375 2.125 0.375 4 1 C1.03 3.475 1.03 3.475 -2 6 C-2.66 5.67 -3.32 5.34 -4 5 C-2 2 -2 2 0 0 Z " fill="#B989CA" transform="translate(325,493)"/>
<path d="M0 0 C0.33 1.32 0.66 2.64 1 4 C-0.4375 6.25 -0.4375 6.25 -2 8 C-2.99 7.67 -3.98 7.34 -5 7 C-3.35 4.69 -1.7 2.38 0 0 Z " fill="#BB88C9" transform="translate(313,479)"/>
<path d="M0 0 C0 1.32 0 2.64 0 4 C-1.98 4.66 -3.96 5.32 -6 6 C-3.84615385 0 -3.84615385 0 0 0 Z " fill="#9543B5" transform="translate(318,479)"/>
<path d="M0 0 C2.4375 0.6875 2.4375 0.6875 5 2 C5.8125 4.625 5.8125 4.625 6 7 C5.34 7 4.68 7 4 7 C3.566875 6.0409375 3.566875 6.0409375 3.125 5.0625 C2.17176549 2.84793921 2.17176549 2.84793921 0 2 C0 1.34 0 0.68 0 0 Z " fill="#8B42A7" transform="translate(154,459)"/>
<path d="M0 0 C2.31 1.98 4.62 3.96 7 6 C5 7 5 7 2.9375 6.375 C1 5 1 5 0.25 2.375 C0.1675 1.59125 0.085 0.8075 0 0 Z " fill="#B889C9" transform="translate(276,369)"/>
<path d="M0 0 C1.125 1.6875 1.125 1.6875 2 4 C1.125 6.75 1.125 6.75 0 9 C-0.66 9 -1.32 9 -2 9 C-1.51421457 5.87709365 -1.0013988 3.00419641 0 0 Z " fill="#B27CBF" transform="translate(198,327)"/>
<path d="M0 0 C0.99 0.99 1.98 1.98 3 3 C2.67 3.66 2.34 4.32 2 5 C0.68 5 -0.64 5 -2 5 C-2 4.01 -2 3.02 -2 2 C-1.34 2 -0.68 2 0 2 C0 1.34 0 0.68 0 0 Z " fill="#B274C5" transform="translate(363,282)"/>
<path d="M0 0 C0.93423645 3.01031744 1.04449911 3.86650268 0 7 C-2.0625 7.6875 -2.0625 7.6875 -4 8 C-2.87548273 5.0280615 -1.77706209 2.66559313 0 0 Z " fill="#B387C1" transform="translate(84,275)"/>
<path d="M0 0 C1.52299523 2.93720508 2.80100302 5.9168649 4 9 C0.125 7.25 0.125 7.25 -1 5 C-0.72057545 3.32345271 -0.39171753 1.65391846 0 0 Z " fill="#B988C7" transform="translate(133,212)"/>
<path d="M0 0 C2.52588702 2.36292656 3.88820837 3.66462511 5 7 C1.125 6.125 1.125 6.125 0 5 C-0.04063832 3.33382885 -0.042721 1.66611905 0 0 Z " fill="#BC95CB" transform="translate(294,191)"/>
<path d="M0 0 C0 1.65 0 3.3 0 5 C-2.97 4.505 -2.97 4.505 -6 4 C-2.25 0 -2.25 0 0 0 Z " fill="#B789C7" transform="translate(220,42)"/>
<path d="M0 0 C1.98 1.65 3.96 3.3 6 5 C2.125 7 2.125 7 1 7 C0.67 4.69 0.34 2.38 0 0 Z " fill="#B98DCB" transform="translate(138,496)"/>
<path d="M0 0 C1.41377341 2.63904371 2.37240135 5.07120629 3 8 C1.68 8 0.36 8 -1 8 C-1.125 2.25 -1.125 2.25 0 0 Z " fill="#8535AB" transform="translate(123,479)"/>
<path d="M0 0 C1.65 0 3.3 0 5 0 C5 0.99 5 1.98 5 3 C4.34 3 3.68 3 3 3 C3 3.66 3 4.32 3 5 C2.34 5 1.68 5 1 5 C0.67 3.35 0.34 1.7 0 0 Z " fill="#8B33AC" transform="translate(89,464)"/>
<path d="M0 0 C0.33 0 0.66 0 1 0 C1.24954005 1.43410368 1.47392642 2.87260072 1.6875 4.3125 C1.87892578 5.51326172 1.87892578 5.51326172 2.07421875 6.73828125 C2 9 2 9 -1 12 C-0.67 8.04 -0.34 4.08 0 0 Z " fill="#A76DBD" transform="translate(290,442)"/>
<path d="M0 0 C3.26954202 0.56371414 4.82575883 1.49962266 7 4 C6.34 4.66 5.68 5.32 5 6 C3.35 4.02 1.7 2.04 0 0 Z " fill="#A36EB6" transform="translate(257,373)"/>
<path d="M0 0 C0.66 0 1.32 0 2 0 C2 0.66 2 1.32 2 2 C3.65 1.34 5.3 0.68 7 0 C5.25 4.875 5.25 4.875 3 6 C2.01 4.02 1.02 2.04 0 0 Z " fill="#B072C5" transform="translate(313,373)"/>
<path d="M0 0 C2 2 2 2 2.125 4.625 C2.08375 5.40875 2.0425 6.1925 2 7 C1.01 7 0.02 7 -1 7 C-0.67 4.69 -0.34 2.38 0 0 Z " fill="#8F47A8" transform="translate(58,341)"/>
<path d="M0 0 C0.99 0 1.98 0 3 0 C2.67 1.98 2.34 3.96 2 6 C1.34 6 0.68 6 0 6 C-0.33 6.66 -0.66 7.32 -1 8 C-0.67 5.36 -0.34 2.72 0 0 Z " fill="#B475C8" transform="translate(58,335)"/>
<path d="M0 0 C2.9375 0.8125 2.9375 0.8125 6 2 C6.33 2.99 6.66 3.98 7 5 C4.11424181 4.60196439 3.17810487 4.20990931 1.25 1.9375 C0.8375 1.298125 0.425 0.65875 0 0 Z " fill="#A775B8" transform="translate(233,289)"/>
<path d="M0 0 C1.125 3.75 1.125 3.75 0 6 C-0.66 6 -1.32 6 -2 6 C-2 6.66 -2 7.32 -2 8 C-2.66 8 -3.32 8 -4 8 C-2.87548273 5.0280615 -1.77706209 2.66559313 0 0 Z " fill="#B188C5" transform="translate(89,267)"/>
</svg>
